<svg width="1107" height="208" viewBox="0 0 1107 208" fill="none" xmlns="http://www.w3.org/2000/svg">
<g opacity="0.2">
<mask id="path-1-outside-1_258_1079" maskUnits="userSpaceOnUse" x="-3" y="-3" width="1114" height="215" fill="black">
<rect fill="white" x="-3" y="-3" width="1114" height="215"/>
<path d="M96.9221 207.878C82.9181 207.878 70.0651 205.384 58.3631 200.396C46.6611 195.408 36.4937 188.31 27.8611 179.102C19.2285 169.702 12.5142 158.672 7.71831 146.01C3.11424 133.349 0.812205 119.441 0.812205 104.286C0.812205 89.8983 3.30608 76.5657 8.29382 64.2882C13.4734 51.8188 20.5713 40.8841 29.5876 31.4842C38.6039 22.0842 49.059 14.7944 60.9528 9.61484C72.8467 4.43526 85.6997 1.84547 99.5119 1.84547C109.296 1.84547 118.791 3.38016 128 6.44954C137.4 9.32709 145.84 13.4516 153.322 18.823C160.995 24.0026 167.23 29.9495 172.026 36.6637L151.308 58.2453C145.744 52.6821 140.085 48.078 134.33 44.4331C128.767 40.5964 123.012 37.7188 117.065 35.8005C111.31 33.8821 105.459 32.9229 99.5119 32.9229C90.112 32.9229 81.2875 34.7454 73.0385 38.3903C64.9814 41.8433 57.8835 46.7351 51.7447 53.0657C45.7978 59.3963 41.0978 66.9739 37.6448 75.7983C34.1917 84.431 32.4652 93.9268 32.4652 104.286C32.4652 115.221 34.0958 125.196 37.357 134.212C40.8101 143.037 45.606 150.614 51.7447 156.945C57.8835 163.276 65.1732 168.167 73.614 171.621C82.2467 174.882 91.7426 176.512 102.102 176.512C108.432 176.512 114.667 175.649 120.806 173.923C126.944 172.196 132.7 169.702 138.071 166.441C143.442 163.18 148.334 159.343 152.746 154.931L168.285 180.253C163.873 185.433 157.83 190.133 150.157 194.353C142.675 198.573 134.234 201.931 124.834 204.424C115.626 206.727 106.322 207.878 96.9221 207.878ZM264.024 207.878C253.09 207.878 242.922 206.439 233.522 203.561C224.314 200.684 215.873 196.367 208.2 190.612C200.718 184.665 194.004 177.376 188.057 168.743L209.351 144.284C218.751 157.712 227.767 167.016 236.4 172.196C245.032 177.376 255.296 179.965 267.189 179.965C274.479 179.965 281.098 178.814 287.045 176.512C292.991 174.21 297.691 171.045 301.144 167.016C304.598 162.988 306.324 158.384 306.324 153.204C306.324 149.751 305.749 146.49 304.598 143.421C303.447 140.351 301.624 137.57 299.13 135.076C296.828 132.582 293.759 130.28 289.922 128.17C286.277 126.059 281.961 124.237 276.973 122.702C271.985 120.976 266.23 119.537 259.708 118.386C249.349 116.276 240.332 113.494 232.659 110.041C224.986 106.588 218.559 102.272 213.379 97.0921C208.2 91.9126 204.363 86.0616 201.869 79.5391C199.375 72.8249 198.128 65.3433 198.128 57.0943C198.128 49.0372 199.855 41.5556 203.308 34.6495C206.953 27.7434 211.845 21.7964 217.984 16.8087C224.314 11.6291 231.7 7.69647 240.141 5.01077C248.581 2.13323 257.694 0.694456 267.477 0.694456C277.836 0.694456 287.332 2.03731 295.965 4.72301C304.598 7.40872 312.271 11.4373 318.985 16.8087C325.7 21.9883 331.263 28.4148 335.675 36.0882L313.806 57.6698C309.969 51.3392 305.653 46.0637 300.857 41.8433C296.061 37.4311 290.785 34.1699 285.03 32.0597C279.275 29.7576 273.136 28.6066 266.614 28.6066C259.132 28.6066 252.61 29.7576 247.047 32.0597C241.483 34.3617 237.071 37.6229 233.81 41.8433C230.741 45.8719 229.206 50.6678 229.206 56.231C229.206 60.2596 229.973 64.0004 231.508 67.4535C233.043 70.7147 235.345 73.6881 238.414 76.3738C241.675 78.8677 245.992 81.1697 251.363 83.2799C256.734 85.1983 263.161 86.9248 270.643 88.4595C281.194 90.7615 290.594 93.735 298.842 97.3799C307.091 100.833 314.093 104.957 319.849 109.753C325.604 114.549 329.92 119.921 332.797 125.868C335.867 131.814 337.402 138.241 337.402 145.147C337.402 158 334.428 169.127 328.481 178.527C322.534 187.927 314.093 195.216 303.159 200.396C292.224 205.384 279.179 207.878 264.024 207.878ZM365.32 205V176.225H397.837V32.3474H365.32V3.572H461.43V32.3474H428.914V176.225H461.43V205H365.32ZM488.634 137.378V108.027H571.508V137.378H488.634ZM585.192 205L663.173 3.572H694.826L772.232 205H739.14L693.1 83.5677C692.524 82.2248 691.373 78.9636 689.646 73.784C688.112 68.6045 686.289 62.8494 684.179 56.5188C682.069 50.1882 680.151 44.4331 678.424 39.2535C676.698 33.8821 675.547 30.4291 674.971 28.8944L681.589 28.6066C680.438 31.8678 679 35.9923 677.273 40.98C675.738 45.9678 674.012 51.2433 672.093 56.8065C670.367 62.3698 668.64 67.6453 666.914 72.633C665.187 77.4289 663.749 81.4575 662.598 84.7187L616.845 205H585.192ZM619.722 154.931L631.232 125.004H722.738L735.975 154.931H619.722ZM875.151 207.878C861.147 207.878 848.294 205.384 836.592 200.396C824.89 195.408 814.723 188.31 806.09 179.102C797.458 169.702 790.743 158.672 785.947 146.01C781.343 133.349 779.041 119.441 779.041 104.286C779.041 89.8983 781.535 76.5657 786.523 64.2882C791.703 51.8188 798.801 40.8841 807.817 31.4842C816.833 22.0842 827.288 14.7944 839.182 9.61484C851.076 4.43526 863.929 1.84547 877.741 1.84547C887.525 1.84547 897.021 3.38016 906.229 6.44954C915.629 9.32709 924.07 13.4516 931.551 18.823C939.225 24.0026 945.459 29.9495 950.255 36.6637L929.537 58.2453C923.974 52.6821 918.314 48.078 912.559 44.4331C906.996 40.5964 901.241 37.7188 895.294 35.8005C889.539 33.8821 883.688 32.9229 877.741 32.9229C868.341 32.9229 859.517 34.7454 851.268 38.3903C843.211 41.8433 836.113 46.7351 829.974 53.0657C824.027 59.3963 819.327 66.9739 815.874 75.7983C812.421 84.431 810.694 93.9268 810.694 104.286C810.694 115.221 812.325 125.196 815.586 134.212C819.039 143.037 823.835 150.614 829.974 156.945C836.113 163.276 843.402 168.167 851.843 171.621C860.476 174.882 869.972 176.512 880.331 176.512C886.661 176.512 892.896 175.649 899.035 173.923C905.174 172.196 910.929 169.702 916.3 166.441C921.672 163.18 926.563 159.343 930.976 154.931L946.514 180.253C942.102 185.433 936.059 190.133 928.386 194.353C920.904 198.573 912.463 201.931 903.063 204.424C893.855 206.727 884.551 207.878 875.151 207.878ZM980.098 205V3.572H1107V33.4984H1011.18V175.074H1107V205H980.098ZM994.198 116.659V86.733H1091.17V116.659H994.198Z"/>
</mask>
<path d="M58.3631 200.396L57.0587 203.456L58.3631 200.396ZM27.8611 179.102L25.4109 181.352L25.4225 181.365L25.4342 181.377L27.8611 179.102ZM7.71831 146.01L4.59196 147.147L4.59953 147.168L4.60737 147.189L7.71831 146.01ZM8.29382 64.2882L5.22168 63.012L5.21669 63.024L5.2118 63.0361L8.29382 64.2882ZM29.5876 31.4842L27.1869 29.1814V29.1814L29.5876 31.4842ZM60.9529 9.61484L59.6246 6.56487L60.9529 9.61484ZM128 6.44954L126.948 9.60546L126.987 9.61845L127.026 9.63047L128 6.44954ZM153.322 18.823L151.382 21.5253L151.421 21.5533L151.461 21.5803L153.322 18.823ZM172.026 36.6637L174.426 38.9675L176.337 36.9763L174.733 34.7302L172.026 36.6637ZM151.308 58.2453L148.955 60.5976L151.356 62.9984L153.707 60.5491L151.308 58.2453ZM134.33 44.4331L132.442 47.1716L132.495 47.2086L132.55 47.2435L134.33 44.4331ZM117.065 35.8005L116.013 38.9564L116.028 38.9615L116.044 38.9665L117.065 35.8005ZM73.0385 38.3903L74.349 41.4479L74.366 41.4406L74.383 41.4331L73.0385 38.3903ZM51.7447 53.0657L49.3565 50.7499L49.3382 50.7689L49.3201 50.7881L51.7447 53.0657ZM37.6448 75.7983L40.7335 77.0338L40.7381 77.0222L40.7427 77.0105L37.6448 75.7983ZM37.357 134.212L34.2287 135.344L34.2434 135.385L34.2591 135.425L37.357 134.212ZM51.7447 156.945L54.1329 154.629L51.7447 156.945ZM73.614 171.62L72.3545 174.699L72.3962 174.717L72.4384 174.732L73.614 171.62ZM120.806 173.923L121.706 177.125L120.806 173.923ZM138.071 166.441L139.797 169.285L138.071 166.441ZM152.746 154.931L155.582 153.191L153.376 149.596L150.394 152.578L152.746 154.931ZM168.285 180.253L170.818 182.41L172.384 180.572L171.121 178.513L168.285 180.253ZM150.157 194.353L148.554 191.438L148.538 191.447L148.522 191.456L150.157 194.353ZM124.834 204.424L125.641 207.652L125.664 207.646L125.687 207.64L124.834 204.424ZM96.9221 204.551C83.3209 204.551 70.9172 202.131 59.6674 197.336L57.0587 203.456C69.213 208.637 82.5153 211.204 96.9221 211.204V204.551ZM59.6674 197.336C48.3866 192.527 38.6024 185.696 30.288 176.827L25.4342 181.377C34.385 190.925 44.9355 198.289 57.0587 203.456L59.6674 197.336ZM30.3113 176.852C21.9823 167.783 15.4844 157.122 10.8292 144.832L4.60737 147.189C9.54406 160.222 16.4747 171.622 25.4109 181.352L30.3113 176.852ZM10.8447 144.874C6.38857 132.619 4.13884 119.101 4.13884 104.286H-2.51443C-2.51443 119.781 -0.160087 134.079 4.59196 147.147L10.8447 144.874ZM4.13884 104.286C4.13884 90.2905 6.56302 77.3872 11.3758 65.5402L5.2118 63.0361C0.0491295 75.7442 -2.51443 89.5061 -2.51443 104.286H4.13884ZM11.366 65.5643C16.3932 53.4616 23.2681 42.8784 31.9884 33.7869L27.1869 29.1814C17.8746 38.8899 10.5536 50.176 5.22168 63.012L11.366 65.5643ZM31.9884 33.7869C40.7014 24.7032 50.7923 17.668 62.2811 12.6648L59.6246 6.56487C47.3257 11.9209 36.5065 19.4652 27.1869 29.1814L31.9884 33.7869ZM62.2811 12.6648C73.7292 7.67935 86.1267 5.17212 99.5119 5.17212V-1.48116C85.2727 -1.48116 71.9642 1.19118 59.6246 6.56487L62.2811 12.6648ZM99.5119 5.17212C108.941 5.17212 118.081 6.65007 126.948 9.60546L129.052 3.29361C119.501 0.110252 109.65 -1.48116 99.5119 -1.48116V5.17212ZM127.026 9.63047C136.103 12.4093 144.213 16.3787 151.382 21.5253L155.262 16.1207C147.467 10.5244 138.696 6.24492 128.973 3.2686L127.026 9.63047ZM151.461 21.5803C158.845 26.5648 164.78 32.2428 169.319 38.5973L174.733 34.7302C169.68 27.6562 163.146 21.4403 155.183 16.0657L151.461 21.5803ZM169.626 34.3599L148.908 55.9415L153.707 60.5491L174.426 38.9675L169.626 34.3599ZM153.66 55.893C147.949 50.1825 142.101 45.4171 136.11 41.6227L132.55 47.2435C138.069 50.7389 143.539 55.1816 148.955 60.5976L153.66 55.893ZM136.219 41.6946C130.41 37.6888 124.366 34.6601 118.086 32.6345L116.044 38.9665C121.658 40.7776 127.123 43.504 132.442 47.1716L136.219 41.6946ZM118.117 32.6446C112.03 30.6154 105.824 29.5963 99.5119 29.5963V36.2496C105.094 36.2496 110.59 37.1488 116.013 38.9564L118.117 32.6446ZM99.5119 29.5963C89.6689 29.5963 80.3845 31.5075 71.694 35.3474L74.383 41.4331C82.1905 37.9833 90.555 36.2496 99.5119 36.2496V29.5963ZM71.7281 35.3326C63.2637 38.9602 55.8 44.1051 49.3565 50.7499L54.1329 55.3816C59.9669 49.3652 66.6991 44.7264 74.349 41.4479L71.7281 35.3326ZM49.3201 50.7881C43.0575 57.4547 38.1403 65.4029 34.5468 74.5861L40.7427 77.0105C44.0553 68.5448 48.5381 61.338 54.1693 55.3434L49.3201 50.7881ZM34.556 74.5628C30.9288 83.6309 29.1385 93.5519 29.1385 104.286H35.7918C35.7918 94.3018 37.4546 85.2311 40.7335 77.0338L34.556 74.5628ZM29.1385 104.286C29.1385 115.553 30.8192 125.918 34.2287 135.344L40.4853 133.081C37.3723 124.475 35.7918 114.888 35.7918 104.286H29.1385ZM34.2591 135.425C37.861 144.629 42.8879 152.59 49.3565 159.261L54.1329 154.629C48.324 148.639 43.7591 141.444 40.4549 133L34.2591 135.425ZM49.3565 159.261C55.8258 165.932 63.5037 171.079 72.3545 174.699L74.8736 168.542C66.8428 165.256 59.9411 160.619 54.1329 154.629L49.3565 159.261ZM72.4384 174.732C81.4899 178.152 91.3898 179.839 102.102 179.839V173.186C92.0953 173.186 83.0034 171.611 74.7897 168.509L72.4384 174.732ZM102.102 179.839C108.739 179.839 115.277 178.933 121.706 177.125L119.905 170.72C114.057 172.365 108.126 173.186 102.102 173.186V179.839ZM121.706 177.125C128.131 175.318 134.164 172.705 139.797 169.285L136.345 163.597C131.235 166.7 125.758 169.074 119.905 170.72L121.706 177.125ZM139.797 169.285C145.395 165.886 150.497 161.885 155.099 157.283L150.394 152.578C146.171 156.801 141.49 160.473 136.345 163.597L139.797 169.285ZM149.911 156.671L165.45 181.993L171.121 178.513L155.582 153.191L149.911 156.671ZM165.753 178.096C161.665 182.895 155.97 187.359 148.554 191.438L151.76 197.268C159.69 192.906 166.081 187.971 170.818 182.41L165.753 178.096ZM148.522 191.456C141.316 195.52 133.144 198.778 123.981 201.209L125.687 207.64C135.325 205.083 144.034 201.627 151.791 197.251L148.522 191.456ZM124.027 201.197C115.081 203.434 106.047 204.551 96.9221 204.551V211.204C106.597 211.204 116.172 210.019 125.641 207.652L124.027 201.197ZM233.522 203.561L232.53 206.736L232.539 206.739L232.548 206.742L233.522 203.561ZM208.2 190.612L206.13 193.216L206.166 193.246L206.204 193.274L208.2 190.612ZM188.057 168.743L185.548 166.559L183.854 168.505L185.318 170.63L188.057 168.743ZM209.351 144.284L212.076 142.376L209.636 138.89L206.842 142.1L209.351 144.284ZM236.4 172.196L238.111 169.343L236.4 172.196ZM287.045 176.512L288.245 179.615L287.045 176.512ZM301.145 167.016L303.67 169.181L301.145 167.016ZM304.598 143.421L301.483 144.589L304.598 143.421ZM299.13 135.076L296.686 137.332L296.731 137.381L296.778 137.428L299.13 135.076ZM289.922 128.17L288.255 131.049L288.287 131.067L288.319 131.084L289.922 128.17ZM276.973 122.702L275.885 125.846L275.94 125.865L275.995 125.882L276.973 122.702ZM259.708 118.386L259.044 121.646L259.087 121.654L259.13 121.662L259.708 118.386ZM232.659 110.041L234.024 107.007L232.659 110.041ZM213.379 97.0921L215.732 94.7399L213.379 97.0921ZM201.869 79.5391L198.751 80.6974L198.756 80.7123L198.762 80.7272L201.869 79.5391ZM203.308 34.6495L200.366 33.0967L200.349 33.1291L200.333 33.1618L203.308 34.6495ZM217.984 16.8087L220.081 19.3906L220.09 19.3834L217.984 16.8087ZM240.141 5.01077L241.149 8.18081L241.182 8.17047L241.214 8.15946L240.141 5.01077ZM295.965 4.72301L294.977 7.89948L295.965 4.72301ZM318.985 16.8087L316.907 19.4064L316.93 19.4247L316.953 19.4427L318.985 16.8087ZM335.675 36.0882L338.012 38.4561L339.838 36.654L338.559 34.43L335.675 36.0882ZM313.806 57.6698L310.961 59.394L313.144 62.9965L316.142 60.0376L313.806 57.6698ZM300.857 41.8433L298.604 44.2915L298.631 44.3164L298.659 44.3407L300.857 41.8433ZM285.03 32.0597L283.795 35.1484L283.84 35.1663L283.885 35.183L285.03 32.0597ZM247.047 32.0597L248.319 35.1336V35.1335L247.047 32.0597ZM233.81 41.8433L231.178 39.8093L231.171 39.8182L231.164 39.8272L233.81 41.8433ZM231.508 67.4535L228.468 68.8045L228.483 68.8374L228.498 68.8699L231.508 67.4535ZM238.414 76.3738L236.223 78.8774L236.306 78.9497L236.393 79.0164L238.414 76.3738ZM251.363 83.2799L250.147 86.3762L250.195 86.3953L250.244 86.4128L251.363 83.2799ZM270.643 88.4595L271.352 85.2093L271.331 85.2049L271.311 85.2007L270.643 88.4595ZM298.842 97.3799L297.498 100.423L297.528 100.436L297.558 100.449L298.842 97.3799ZM319.849 109.753L321.978 107.198L319.849 109.753ZM332.797 125.868L329.803 127.317L329.822 127.355L329.841 127.393L332.797 125.868ZM328.481 178.527L331.292 180.305L328.481 178.527ZM303.159 200.396L304.539 203.423L304.561 203.413L304.583 203.402L303.159 200.396ZM264.024 204.551C253.383 204.551 243.547 203.151 234.496 200.38L232.548 206.742C242.297 209.726 252.796 211.204 264.024 211.204V204.551ZM234.514 200.386C225.666 197.621 217.565 193.478 210.196 187.951L206.204 193.274C214.182 199.257 222.963 203.747 232.53 206.736L234.514 200.386ZM210.27 188.008C203.069 182.285 196.575 175.244 190.797 166.856L185.318 170.63C191.433 179.508 198.367 187.046 206.13 193.216L210.27 188.008ZM190.566 170.927L211.86 146.468L206.842 142.1L185.548 166.559L190.566 170.927ZM206.626 146.192C216.145 159.791 225.481 169.524 234.688 175.049L238.111 169.343C230.053 164.509 221.356 155.633 212.076 142.376L206.626 146.192ZM234.688 175.049C243.925 180.591 254.803 183.292 267.189 183.292V176.639C255.788 176.639 246.14 174.161 238.111 169.343L234.688 175.049ZM267.189 183.292C274.832 183.292 281.865 182.085 288.245 179.615L285.844 173.41C280.33 175.544 274.127 176.639 267.189 176.639V183.292ZM288.245 179.615C294.602 177.154 299.794 173.703 303.67 169.181L298.619 164.851C295.589 168.387 291.381 171.266 285.844 173.41L288.245 179.615ZM303.67 169.181C307.626 164.566 309.651 159.199 309.651 153.204H302.997C302.997 157.569 301.569 161.41 298.619 164.851L303.67 169.181ZM309.651 153.204C309.651 149.374 309.011 145.715 307.712 142.253L301.483 144.589C302.486 147.265 302.997 150.129 302.997 153.204H309.651ZM307.712 142.253C306.382 138.705 304.286 135.527 301.483 132.723L296.778 137.428C298.962 139.612 300.511 141.997 301.483 144.589L307.712 142.253ZM301.575 132.819C298.971 129.998 295.59 127.49 291.525 125.255L288.319 131.084C291.928 133.069 294.686 135.165 296.686 137.332L301.575 132.819ZM291.589 125.291C287.682 123.029 283.125 121.115 277.951 119.523L275.995 125.882C280.797 127.359 284.872 129.09 288.255 131.049L291.589 125.291ZM278.061 119.559C272.872 117.762 266.94 116.284 260.286 115.11L259.13 121.662C265.521 122.79 271.099 124.189 275.885 125.846L278.061 119.559ZM260.372 115.126C250.196 113.053 241.424 110.338 234.024 107.007L231.294 113.075C239.24 116.651 248.502 119.498 259.044 121.646L260.372 115.126ZM234.024 107.007C226.664 103.696 220.587 99.5953 215.732 94.7399L211.027 99.4444C216.531 104.948 223.307 109.481 231.294 113.075L234.024 107.007ZM215.732 94.7399C210.866 89.8744 207.295 84.4153 204.977 78.3511L198.762 80.7272C201.431 87.7078 205.533 93.9507 211.027 99.4444L215.732 94.7399ZM204.988 78.3808C202.651 72.0889 201.455 65.007 201.455 57.0943H194.802C194.802 65.6796 196.1 73.5609 198.751 80.6974L204.988 78.3808ZM201.455 57.0943C201.455 49.5305 203.072 42.5611 206.283 36.1372L200.333 33.1618C196.638 40.55 194.802 48.5439 194.802 57.0943H201.455ZM206.25 36.2022C209.683 29.6977 214.286 24.0994 220.081 19.3905L215.886 14.2268C209.404 19.4935 204.223 25.789 200.366 33.0967L206.25 36.2022ZM220.09 19.3834C226.069 14.4911 233.075 10.7498 241.149 8.18081L239.132 1.84072C230.324 4.64317 222.559 8.76712 215.877 14.234L220.09 19.3834ZM241.214 8.15946C249.277 5.41062 258.023 4.0211 267.477 4.0211V-2.63218C257.364 -2.63218 247.885 -1.14417 239.067 1.86207L241.214 8.15946ZM267.477 4.0211C277.549 4.0211 286.707 5.32661 294.977 7.89948L296.953 1.54655C287.958 -1.252 278.124 -2.63218 267.477 -2.63218V4.0211ZM294.977 7.89948C303.234 10.4683 310.533 14.3073 316.907 19.4064L321.063 14.211C314.009 8.56721 305.961 4.3491 296.953 1.54655L294.977 7.89948ZM316.953 19.4427C323.307 24.3443 328.586 30.4341 332.791 37.7465L338.559 34.43C333.939 26.3955 328.092 19.6322 321.017 14.1747L316.953 19.4427ZM333.338 33.7204L311.469 55.302L316.142 60.0376L338.012 38.4561L333.338 33.7204ZM316.651 55.9456C312.666 49.3708 308.141 43.8219 303.054 39.346L298.659 44.3407C303.165 48.3055 307.272 53.3077 310.961 59.394L316.651 55.9456ZM303.109 39.3951C298.013 34.7063 292.366 31.2061 286.175 28.9364L283.885 35.183C289.205 37.1336 294.109 40.1558 298.604 44.2915L303.109 39.3951ZM286.266 28.971C280.097 26.5036 273.537 25.28 266.614 25.28V31.9333C272.736 31.9333 278.453 33.0117 283.795 35.1484L286.266 28.971ZM266.614 25.28C258.798 25.28 251.826 26.4817 245.775 28.9858L248.319 35.1335C253.394 33.0335 259.466 31.9333 266.614 31.9333V25.28ZM245.775 28.9858C239.745 31.4807 234.838 35.0727 231.178 39.8093L236.442 43.8774C239.305 40.1731 243.221 37.2428 248.319 35.1336L245.775 28.9858ZM231.164 39.8272C227.609 44.4928 225.879 50.0152 225.879 56.231H232.533C232.533 51.3203 233.872 47.251 236.456 43.8594L231.164 39.8272ZM225.879 56.231C225.879 60.6938 226.732 64.8985 228.468 68.8045L234.548 66.1024C233.215 63.1023 232.533 59.8254 232.533 56.231H225.879ZM228.498 68.8699C230.252 72.5974 232.854 75.9294 236.223 78.8774L240.605 73.8703C237.835 71.4469 235.833 68.832 234.518 66.037L228.498 68.8699ZM236.393 79.0164C239.977 81.757 244.594 84.1949 250.147 86.3762L252.579 80.1837C247.389 78.1446 243.373 75.9784 240.435 73.7313L236.393 79.0164ZM250.244 86.4128C255.802 88.3978 262.387 90.162 269.974 91.7183L271.311 85.2007C263.935 83.6876 257.667 81.9988 252.482 80.1471L250.244 86.4128ZM269.933 91.7097C280.307 93.9731 289.489 96.8837 297.498 100.423L300.187 94.3371C291.698 90.5863 282.08 87.55 271.352 85.2093L269.933 91.7097ZM297.558 100.449C305.559 103.798 312.262 107.762 317.719 112.309L321.978 107.198C315.925 102.153 308.624 97.8683 300.127 94.3113L297.558 100.449ZM317.719 112.309C323.159 116.842 327.158 121.849 329.803 127.317L335.792 124.419C332.682 117.992 328.048 112.256 321.978 107.198L317.719 112.309ZM329.841 127.393C332.659 132.853 334.075 138.754 334.075 145.147H340.728C340.728 137.728 339.074 130.776 335.754 124.342L329.841 127.393ZM334.075 145.147C334.075 157.47 331.23 167.959 325.67 176.748L331.292 180.305C337.626 170.294 340.728 158.53 340.728 145.147H334.075ZM325.67 176.748C320.089 185.569 312.152 192.455 301.735 197.39L304.583 203.402C316.035 197.978 324.979 190.284 331.292 180.305L325.67 176.748ZM301.778 197.369C291.375 202.115 278.823 204.551 264.024 204.551V211.204C279.535 211.204 293.074 208.653 304.539 203.423L301.778 197.369ZM365.32 205H361.994V208.327H365.32V205ZM365.32 176.225V172.898H361.994V176.225H365.32ZM397.837 176.225V179.551H401.163V176.225H397.837ZM397.837 32.3474H401.163V29.0208H397.837V32.3474ZM365.32 32.3474H361.994V35.6741H365.32V32.3474ZM365.32 3.57199V0.245358H361.994V3.57199H365.32ZM461.43 3.57199H464.757V0.245358H461.43V3.57199ZM461.43 32.3474V35.6741H464.757V32.3474H461.43ZM428.914 32.3474V29.0208H425.587V32.3474H428.914ZM428.914 176.225H425.587V179.551H428.914V176.225ZM461.43 176.225H464.757V172.898H461.43V176.225ZM461.43 205V208.327H464.757V205H461.43ZM368.647 205V176.225H361.994V205H368.647ZM365.32 179.551H397.837V172.898H365.32V179.551ZM401.163 176.225V32.3474H394.51V176.225H401.163ZM397.837 29.0208H365.32V35.6741H397.837V29.0208ZM368.647 32.3474V3.57199H361.994V32.3474H368.647ZM365.32 6.89864H461.43V0.245358H365.32V6.89864ZM458.104 3.57199V32.3474H464.757V3.57199H458.104ZM461.43 29.0208H428.914V35.6741H461.43V29.0208ZM425.587 32.3474V176.225H432.241V32.3474H425.587ZM428.914 179.551H461.43V172.898H428.914V179.551ZM458.104 176.225V205H464.757V176.225H458.104ZM461.43 201.673H365.32V208.327H461.43V201.673ZM488.634 137.378H485.308V140.704H488.634V137.378ZM488.634 108.027V104.7H485.308V108.027H488.634ZM571.508 108.027H574.834V104.7H571.508V108.027ZM571.508 137.378V140.704H574.834V137.378H571.508ZM491.961 137.378V108.027H485.308V137.378H491.961ZM488.634 111.353H571.508V104.7H488.634V111.353ZM568.181 108.027V137.378H574.834V108.027H568.181ZM571.508 134.051H488.634V140.704H571.508V134.051ZM585.192 205L582.089 203.799L580.337 208.327H585.192V205ZM663.173 3.57199V0.245358H660.894L660.071 2.37098L663.173 3.57199ZM694.826 3.57199L697.931 2.37869L697.111 0.245358H694.826V3.57199ZM772.232 205V208.327H777.074L775.337 203.807L772.232 205ZM739.14 205L736.03 206.179L736.844 208.327H739.14V205ZM693.099 83.5677L696.21 82.3883L696.185 82.3222L696.157 82.2573L693.099 83.5677ZM689.646 73.784L686.457 74.7291L686.473 74.7828L686.491 74.836L689.646 73.784ZM684.179 56.5188L687.335 55.4668L684.179 56.5188ZM678.424 39.2535L675.257 40.2715L675.262 40.2885L675.268 40.3055L678.424 39.2535ZM674.971 28.8944L674.826 25.5709L670.247 25.77L671.856 30.0624L674.971 28.8944ZM681.589 28.6066L684.726 29.7138L686.366 25.0692L681.445 25.2831L681.589 28.6066ZM677.273 40.98L674.129 39.8919L674.11 39.9465L674.094 40.0017L677.273 40.98ZM672.093 56.8065L668.949 55.7221L668.932 55.771L668.916 55.8205L672.093 56.8065ZM666.914 72.633L670.044 73.7598L670.051 73.7406L670.057 73.7212L666.914 72.633ZM662.598 84.7187L665.707 85.9014L665.721 85.8638L665.735 85.8259L662.598 84.7187ZM616.845 205V208.327H619.138L619.954 206.183L616.845 205ZM619.722 154.931L616.617 153.737L614.878 158.257H619.722V154.931ZM631.232 125.004V121.678H628.948L628.127 123.81L631.232 125.004ZM722.738 125.004L725.781 123.659L724.904 121.678H722.738V125.004ZM735.975 154.931V158.257H741.084L739.017 153.585L735.975 154.931ZM588.294 206.201L666.275 4.77302L660.071 2.37098L582.089 203.799L588.294 206.201ZM663.173 6.89864H694.826V0.245358H663.173V6.89864ZM691.721 4.7653L769.127 206.193L775.337 203.807L697.931 2.37869L691.721 4.7653ZM772.232 201.673H739.14V208.327H772.232V201.673ZM742.251 203.821L696.21 82.3883L689.989 84.7471L736.03 206.179L742.251 203.821ZM696.157 82.2573C695.648 81.0689 694.543 77.9546 692.802 72.7321L686.491 74.836C688.203 79.9727 689.4 83.3808 690.042 84.8781L696.157 82.2573ZM692.836 72.839C691.289 67.6164 689.454 61.825 687.335 55.4668L681.023 57.5708C683.124 63.8738 684.935 69.5925 686.457 74.7291L692.836 72.839ZM687.335 55.4668C685.225 49.1362 683.307 43.3811 681.58 38.2016L675.268 40.3055C676.995 45.4851 678.913 51.2402 681.023 57.5708L687.335 55.4668ZM681.591 38.2355C679.871 32.8844 678.695 29.3502 678.086 27.7263L671.856 30.0624C672.398 31.508 673.524 34.8798 675.257 40.2715L681.591 38.2355ZM675.115 32.2179L681.734 31.9301L681.445 25.2831L674.826 25.5709L675.115 32.2179ZM678.452 27.4995C677.298 30.7694 675.857 34.9007 674.129 39.8919L680.417 42.0682C682.142 37.0839 683.578 32.9663 684.726 29.7138L678.452 27.4995ZM674.094 40.0017C672.571 44.9498 670.856 50.1897 668.949 55.7221L675.238 57.891C677.167 52.2969 678.906 46.9858 680.453 41.9584L674.094 40.0017ZM668.916 55.8205C667.199 61.353 665.484 66.5942 663.77 71.5449L670.057 73.7212C671.797 68.6963 673.535 63.3866 675.271 57.7925L668.916 55.8205ZM663.784 71.5062C662.056 76.3059 660.615 80.3415 659.461 83.6115L665.735 85.8259C666.882 82.5735 668.319 78.5519 670.044 73.7598L663.784 71.5062ZM659.488 83.536L613.735 203.817L619.954 206.183L665.707 85.9014L659.488 83.536ZM616.845 201.673H585.192V208.327H616.845V201.673ZM622.827 156.125L634.337 126.199L628.127 123.81L616.617 153.737L622.827 156.125ZM631.232 128.331H722.738V121.678H631.232V128.331ZM719.696 126.35L732.933 156.276L739.017 153.585L725.781 123.659L719.696 126.35ZM735.975 151.604H619.722V158.257H735.975V151.604ZM836.592 200.396L835.288 203.456L836.592 200.396ZM806.09 179.102L803.64 181.352L803.652 181.365L803.663 181.377L806.09 179.102ZM785.948 146.01L782.821 147.147L782.829 147.168L782.837 147.189L785.948 146.01ZM786.523 64.2882L783.451 63.012L783.446 63.024L783.441 63.0361L786.523 64.2882ZM807.817 31.4842L805.416 29.1814L805.416 29.1814L807.817 31.4842ZM839.182 9.61484L837.854 6.56487L839.182 9.61484ZM906.229 6.44954L905.177 9.60546L905.216 9.61845L905.255 9.63047L906.229 6.44954ZM931.551 18.823L929.611 21.5253L929.65 21.5533L929.69 21.5803L931.551 18.823ZM950.255 36.6637L952.655 38.9675L954.567 36.9763L952.962 34.7302L950.255 36.6637ZM929.537 58.2453L927.185 60.5976L929.585 62.9984L931.937 60.5491L929.537 58.2453ZM912.559 44.4331L910.671 47.1716L910.724 47.2086L910.779 47.2435L912.559 44.4331ZM895.294 35.8005L894.242 38.9564L894.257 38.9615L894.273 38.9665L895.294 35.8005ZM851.268 38.3903L852.578 41.4479L852.595 41.4406L852.612 41.4331L851.268 38.3903ZM829.974 53.0657L827.586 50.7499L827.567 50.7689L827.549 50.7881L829.974 53.0657ZM815.874 75.7983L818.963 77.0338L818.967 77.0222L818.972 77.0105L815.874 75.7983ZM815.586 134.212L812.458 135.344L812.473 135.385L812.488 135.425L815.586 134.212ZM829.974 156.945L832.362 154.629L829.974 156.945ZM851.843 171.62L850.584 174.699L850.625 174.717L850.668 174.732L851.843 171.62ZM899.035 173.923L899.936 177.125L899.035 173.923ZM916.3 166.441L918.027 169.285H918.027L916.3 166.441ZM930.976 154.931L933.811 153.191L931.605 149.596L928.623 152.578L930.976 154.931ZM946.514 180.253L949.047 182.41L950.613 180.572L949.35 178.513L946.514 180.253ZM928.386 194.353L926.783 191.438L926.767 191.447L926.751 191.456L928.386 194.353ZM903.063 204.424L903.87 207.652L903.893 207.646L903.917 207.64L903.063 204.424ZM875.151 204.551C861.55 204.551 849.146 202.131 837.897 197.336L835.288 203.456C847.442 208.637 860.744 211.204 875.151 211.204V204.551ZM837.897 197.336C826.616 192.527 816.832 185.696 808.517 176.827L803.663 181.377C812.614 190.925 823.165 198.289 835.288 203.456L837.897 197.336ZM808.54 176.852C800.211 167.783 793.714 157.122 789.058 144.832L782.837 147.189C787.773 160.222 794.704 171.622 803.64 181.352L808.54 176.852ZM789.074 144.874C784.618 132.619 782.368 119.101 782.368 104.286H775.715C775.715 119.781 778.069 134.079 782.821 147.147L789.074 144.874ZM782.368 104.286C782.368 90.2905 784.792 77.3872 789.605 65.5402L783.441 63.0361C778.278 75.7442 775.715 89.5061 775.715 104.286H782.368ZM789.595 65.5643C794.622 53.4616 801.497 42.8784 810.218 33.7869L805.416 29.1814C796.104 38.8899 788.783 50.176 783.451 63.012L789.595 65.5643ZM810.218 33.7869C818.931 24.7032 829.021 17.668 840.51 12.6648L837.854 6.56487C825.555 11.9209 814.736 19.4652 805.416 29.1814L810.218 33.7869ZM840.51 12.6648C851.958 7.67935 864.356 5.17212 877.741 5.17212V-1.48116C863.502 -1.48116 850.193 1.19118 837.854 6.56487L840.51 12.6648ZM877.741 5.17212C887.17 5.17212 896.311 6.65007 905.177 9.60546L907.281 3.29361C897.731 0.110252 887.879 -1.48116 877.741 -1.48116V5.17212ZM905.255 9.63047C914.332 12.4093 922.443 16.3787 929.611 21.5253L933.491 16.1207C925.696 10.5244 916.925 6.24492 907.203 3.2686L905.255 9.63047ZM929.69 21.5803C937.074 26.5648 943.009 32.2428 947.548 38.5973L952.962 34.7302C947.909 27.6562 941.375 21.4403 933.412 16.0657L929.69 21.5803ZM947.855 34.3599L927.137 55.9415L931.937 60.5491L952.655 38.9675L947.855 34.3599ZM931.889 55.893C926.179 50.1825 920.33 45.4171 914.339 41.6227L910.779 47.2435C916.299 50.7389 921.769 55.1816 927.185 60.5976L931.889 55.893ZM914.448 41.6946C908.64 37.6888 902.595 34.6601 896.315 32.6345L894.273 38.9665C899.887 40.7776 905.353 43.504 910.671 47.1716L914.448 41.6946ZM896.346 32.6446C890.259 30.6154 884.053 29.5963 877.741 29.5963V36.2496C883.323 36.2496 888.819 37.1488 894.242 38.9564L896.346 32.6446ZM877.741 29.5963C867.898 29.5963 858.614 31.5075 849.923 35.3474L852.612 41.4331C860.42 37.9833 868.784 36.2496 877.741 36.2496V29.5963ZM849.957 35.3326C841.493 38.9602 834.029 44.1051 827.586 50.7499L832.362 55.3816C838.196 49.3652 844.928 44.7264 852.578 41.4479L849.957 35.3326ZM827.549 50.7881C821.287 57.4547 816.369 65.4029 812.776 74.5861L818.972 77.0105C822.285 68.5448 826.767 61.338 832.398 55.3434L827.549 50.7881ZM812.785 74.5628C809.158 83.6309 807.368 93.5519 807.368 104.286H814.021C814.021 94.3018 815.684 85.2311 818.963 77.0338L812.785 74.5628ZM807.368 104.286C807.368 115.553 809.048 125.918 812.458 135.344L818.714 133.081C815.602 124.475 814.021 114.888 814.021 104.286H807.368ZM812.488 135.425C816.09 144.629 821.117 152.59 827.586 159.261L832.362 154.629C826.553 148.639 821.988 141.444 818.684 133L812.488 135.425ZM827.586 159.261C834.055 165.932 841.733 171.079 850.584 174.699L853.103 168.542C845.072 165.256 838.17 160.619 832.362 154.629L827.586 159.261ZM850.668 174.732C859.719 178.152 869.619 179.839 880.331 179.839V173.186C870.324 173.186 861.233 171.611 853.019 168.509L850.668 174.732ZM880.331 179.839C886.968 179.839 893.506 178.933 899.936 177.125L898.134 170.72C892.286 172.365 886.355 173.186 880.331 173.186V179.839ZM899.936 177.125C906.36 175.318 912.394 172.705 918.027 169.285L914.574 163.597C909.464 166.7 903.987 169.074 898.134 170.72L899.936 177.125ZM918.027 169.285C923.624 165.886 928.726 161.885 933.328 157.283L928.623 152.578C924.401 156.801 919.719 160.473 914.574 163.597L918.027 169.285ZM928.14 156.671L943.679 181.993L949.35 178.513L933.811 153.191L928.14 156.671ZM943.982 178.096C939.894 182.895 934.2 187.359 926.783 191.438L929.989 197.268C937.919 192.906 944.31 187.971 949.047 182.41L943.982 178.096ZM926.751 191.456C919.546 195.52 911.373 198.778 902.21 201.209L903.917 207.64C913.554 205.083 922.263 201.627 930.02 197.251L926.751 191.456ZM902.257 201.197C893.31 203.434 884.277 204.551 875.151 204.551V211.204C884.826 211.204 894.401 210.019 903.87 207.652L902.257 201.197ZM980.098 205H976.772V208.327H980.098V205ZM980.098 3.57199V0.245358H976.772V3.57199H980.098ZM1107 3.57199H1110.32V0.245358H1107V3.57199ZM1107 33.4985V36.8251H1110.32V33.4985H1107ZM1011.18 33.4985V30.1718H1007.85V33.4985H1011.18ZM1011.18 175.074H1007.85V178.4H1011.18V175.074ZM1107 175.074H1110.32V171.747H1107V175.074ZM1107 205V208.327H1110.32V205H1107ZM994.198 116.659H990.872V119.986H994.198V116.659ZM994.198 86.733V83.4064H990.872V86.733H994.198ZM1091.17 86.733H1094.5V83.4064H1091.17V86.733ZM1091.17 116.659V119.986H1094.5V116.659H1091.17ZM983.425 205V3.57199H976.772V205H983.425ZM980.098 6.89864H1107V0.245358H980.098V6.89864ZM1103.67 3.57199V33.4985H1110.32V3.57199H1103.67ZM1107 30.1718H1011.18V36.8251H1107V30.1718ZM1007.85 33.4985V175.074H1014.5V33.4985H1007.85ZM1011.18 178.4H1107V171.747H1011.18V178.4ZM1103.67 175.074V205H1110.32V175.074H1103.67ZM1107 201.673H980.098V208.327H1107V201.673ZM997.525 116.659V86.733H990.872V116.659H997.525ZM994.198 90.0596H1091.17V83.4064H994.198V90.0596ZM1087.84 86.733V116.659H1094.5V86.733H1087.84ZM1091.17 113.333H994.198V119.986H1091.17V113.333Z" fill="white" mask="url(#path-1-outside-1_258_1079)"/>
</g>
</svg>
