<svg width="367" height="193" viewBox="0 0 367 193" fill="none" xmlns="http://www.w3.org/2000/svg">
<g opacity="0.2">
<path d="M18.3635 1L1 16.9353" stroke="#288ED7" stroke-width="0.920792" stroke-linecap="round"/>
<path d="M35.7268 1L18.3633 16.9353" stroke="#288ED7" stroke-width="0.920792" stroke-linecap="round"/>
<path d="M35.7266 1L53.0901 16.9353" stroke="#288ED7" stroke-width="0.920792" stroke-linecap="round"/>
<path d="M70.4534 1L53.0898 16.9353" stroke="#288ED7" stroke-width="0.920792" stroke-linecap="round"/>
<path d="M87.8166 1L70.4531 16.9353" stroke="#288ED7" stroke-width="0.920792" stroke-linecap="round"/>
<path d="M105.18 1L87.8164 16.9353" stroke="#288ED7" stroke-width="0.920792" stroke-linecap="round"/>
<path d="M105.18 1L122.543 16.9353" stroke="#288ED7" stroke-width="0.920792" stroke-linecap="round"/>
<path d="M122.543 1L139.906 16.9353" stroke="#288ED7" stroke-width="0.920792" stroke-linecap="round"/>
<path d="M157.27 1L139.906 16.9353" stroke="#288ED7" stroke-width="0.920792" stroke-linecap="round"/>
<path d="M174.637 1L157.273 16.9353" stroke="#288ED7" stroke-width="0.920792" stroke-linecap="round"/>
<path d="M192 1L174.637 16.9353" stroke="#288ED7" stroke-width="0.920792" stroke-linecap="round"/>
<path d="M209.36 1L191.996 16.9353" stroke="#288ED7" stroke-width="0.920792" stroke-linecap="round"/>
<path d="M209.363 1L226.727 16.9353" stroke="#288ED7" stroke-width="0.920792" stroke-linecap="round"/>
<path d="M226.723 1L244.086 16.9353" stroke="#288ED7" stroke-width="0.920792" stroke-linecap="round"/>
<path d="M244.09 1L261.453 16.9353" stroke="#288ED7" stroke-width="0.920792" stroke-linecap="round"/>
<path d="M278.817 1L261.453 16.9353" stroke="#288ED7" stroke-width="0.920792" stroke-linecap="round"/>
<path d="M296.18 1L278.816 16.9353" stroke="#288ED7" stroke-width="0.920792" stroke-linecap="round"/>
<path d="M313.543 1L296.18 16.9353" stroke="#288ED7" stroke-width="0.920792" stroke-linecap="round"/>
<path d="M313.539 1L330.903 16.9353" stroke="#288ED7" stroke-width="0.920792" stroke-linecap="round"/>
<path d="M330.906 1L348.27 16.9353" stroke="#288ED7" stroke-width="0.920792" stroke-linecap="round"/>
<path d="M365.633 1L348.27 16.9353" stroke="#288ED7" stroke-width="0.920792" stroke-linecap="round"/>
<path opacity="0.92" d="M1 16.9346L18.3635 32.8699" stroke="#288ED7" stroke-width="0.920792" stroke-linecap="round"/>
<path opacity="0.92" d="M35.7268 16.9346L18.3633 32.8699" stroke="#288ED7" stroke-width="0.920792" stroke-linecap="round"/>
<path opacity="0.92" d="M35.7266 16.9346L53.0901 32.8699" stroke="#288ED7" stroke-width="0.920792" stroke-linecap="round"/>
<path opacity="0.92" d="M53.0898 16.9346L70.4534 32.8699" stroke="#288ED7" stroke-width="0.920792" stroke-linecap="round"/>
<path opacity="0.92" d="M87.8166 16.9346L70.4531 32.8699" stroke="#288ED7" stroke-width="0.920792" stroke-linecap="round"/>
<path opacity="0.92" d="M105.18 16.9346L87.8164 32.8699" stroke="#288ED7" stroke-width="0.920792" stroke-linecap="round"/>
<path opacity="0.92" d="M105.18 16.9346L122.543 32.8699" stroke="#288ED7" stroke-width="0.920792" stroke-linecap="round"/>
<path opacity="0.92" d="M139.906 16.9346L122.543 32.8699" stroke="#288ED7" stroke-width="0.920792" stroke-linecap="round"/>
<path opacity="0.92" d="M157.27 16.9346L139.906 32.8699" stroke="#288ED7" stroke-width="0.920792" stroke-linecap="round"/>
<path opacity="0.92" d="M157.273 16.9346L174.637 32.8699" stroke="#288ED7" stroke-width="0.920792" stroke-linecap="round"/>
<path opacity="0.92" d="M174.637 16.9346L192 32.8699" stroke="#288ED7" stroke-width="0.920792" stroke-linecap="round"/>
<path opacity="0.92" d="M191.996 16.9346L209.36 32.8699" stroke="#288ED7" stroke-width="0.920792" stroke-linecap="round"/>
<path opacity="0.92" d="M209.363 16.9346L226.727 32.8699" stroke="#288ED7" stroke-width="0.920792" stroke-linecap="round"/>
<path opacity="0.92" d="M244.086 16.9346L226.723 32.8699" stroke="#288ED7" stroke-width="0.920792" stroke-linecap="round"/>
<path opacity="0.92" d="M244.09 16.9346L261.453 32.8699" stroke="#288ED7" stroke-width="0.920792" stroke-linecap="round"/>
<path opacity="0.92" d="M261.453 16.9346L278.817 32.8699" stroke="#288ED7" stroke-width="0.920792" stroke-linecap="round"/>
<path opacity="0.92" d="M278.816 16.9346L296.18 32.8699" stroke="#288ED7" stroke-width="0.920792" stroke-linecap="round"/>
<path opacity="0.92" d="M313.543 16.9346L296.18 32.8699" stroke="#288ED7" stroke-width="0.920792" stroke-linecap="round"/>
<path opacity="0.92" d="M330.903 16.9346L313.539 32.8699" stroke="#288ED7" stroke-width="0.920792" stroke-linecap="round"/>
<path opacity="0.92" d="M348.27 16.9346L330.906 32.8699" stroke="#288ED7" stroke-width="0.920792" stroke-linecap="round"/>
<path opacity="0.92" d="M365.633 16.9346L348.27 32.8699" stroke="#288ED7" stroke-width="0.920792" stroke-linecap="round"/>
<path opacity="0.84" d="M1 32.8711L18.3635 48.8064" stroke="#288ED7" stroke-width="0.920792" stroke-linecap="round"/>
<path opacity="0.84" d="M18.3633 32.8711L35.7268 48.8064" stroke="#288ED7" stroke-width="0.920792" stroke-linecap="round"/>
<path opacity="0.84" d="M35.7266 32.8711L53.0901 48.8064" stroke="#288ED7" stroke-width="0.920792" stroke-linecap="round"/>
<path opacity="0.84" d="M70.4534 32.8711L53.0898 48.8064" stroke="#288ED7" stroke-width="0.920792" stroke-linecap="round"/>
<path opacity="0.84" d="M70.4531 32.8711L87.8166 48.8064" stroke="#288ED7" stroke-width="0.920792" stroke-linecap="round"/>
<path opacity="0.84" d="M105.18 32.8711L87.8164 48.8064" stroke="#288ED7" stroke-width="0.920792" stroke-linecap="round"/>
<path opacity="0.84" d="M122.543 32.8711L105.18 48.8064" stroke="#288ED7" stroke-width="0.920792" stroke-linecap="round"/>
<path opacity="0.84" d="M139.906 32.8711L122.543 48.8064" stroke="#288ED7" stroke-width="0.920792" stroke-linecap="round"/>
<path opacity="0.84" d="M157.27 32.8711L139.906 48.8064" stroke="#288ED7" stroke-width="0.920792" stroke-linecap="round"/>
<path opacity="0.84" d="M174.637 32.8711L157.273 48.8064" stroke="#288ED7" stroke-width="0.920792" stroke-linecap="round"/>
<path opacity="0.84" d="M192 32.8711L174.637 48.8064" stroke="#288ED7" stroke-width="0.920792" stroke-linecap="round"/>
<path opacity="0.84" d="M191.996 32.8711L209.36 48.8064" stroke="#288ED7" stroke-width="0.920792" stroke-linecap="round"/>
<path opacity="0.84" d="M226.727 32.8711L209.363 48.8064" stroke="#288ED7" stroke-width="0.920792" stroke-linecap="round"/>
<path opacity="0.84" d="M244.086 32.8711L226.723 48.8064" stroke="#288ED7" stroke-width="0.920792" stroke-linecap="round"/>
<path opacity="0.84" d="M244.09 32.8711L261.453 48.8064" stroke="#288ED7" stroke-width="0.920792" stroke-linecap="round"/>
<path opacity="0.84" d="M278.817 32.8711L261.453 48.8064" stroke="#288ED7" stroke-width="0.920792" stroke-linecap="round"/>
<path opacity="0.84" d="M278.816 32.8711L296.18 48.8064" stroke="#288ED7" stroke-width="0.920792" stroke-linecap="round"/>
<path opacity="0.84" d="M296.18 32.8711L313.543 48.8064" stroke="#288ED7" stroke-width="0.920792" stroke-linecap="round"/>
<path opacity="0.84" d="M330.903 32.8711L313.539 48.8064" stroke="#288ED7" stroke-width="0.920792" stroke-linecap="round"/>
<path opacity="0.84" d="M330.906 32.8711L348.27 48.8064" stroke="#288ED7" stroke-width="0.920792" stroke-linecap="round"/>
<path opacity="0.84" d="M348.27 32.8711L365.633 48.8064" stroke="#288ED7" stroke-width="0.920792" stroke-linecap="round"/>
<path opacity="0.76" d="M18.3635 48.8066L1 64.742" stroke="#288ED7" stroke-width="0.920792" stroke-linecap="round"/>
<path opacity="0.76" d="M35.7268 48.8066L18.3633 64.742" stroke="#288ED7" stroke-width="0.920792" stroke-linecap="round"/>
<path opacity="0.76" d="M35.7266 48.8066L53.0901 64.742" stroke="#288ED7" stroke-width="0.920792" stroke-linecap="round"/>
<path opacity="0.76" d="M70.4534 48.8066L53.0898 64.742" stroke="#288ED7" stroke-width="0.920792" stroke-linecap="round"/>
<path opacity="0.76" d="M70.4531 48.8066L87.8166 64.742" stroke="#288ED7" stroke-width="0.920792" stroke-linecap="round"/>
<path opacity="0.76" d="M105.18 48.8066L87.8164 64.742" stroke="#288ED7" stroke-width="0.920792" stroke-linecap="round"/>
<path opacity="0.76" d="M105.18 48.8066L122.543 64.742" stroke="#288ED7" stroke-width="0.920792" stroke-linecap="round"/>
<path opacity="0.76" d="M122.543 48.8066L139.906 64.742" stroke="#288ED7" stroke-width="0.920792" stroke-linecap="round"/>
<path opacity="0.76" d="M139.906 48.8066L157.27 64.742" stroke="#288ED7" stroke-width="0.920792" stroke-linecap="round"/>
<path opacity="0.76" d="M174.637 48.8066L157.273 64.742" stroke="#288ED7" stroke-width="0.920792" stroke-linecap="round"/>
<path opacity="0.76" d="M192 48.8066L174.637 64.742" stroke="#288ED7" stroke-width="0.920792" stroke-linecap="round"/>
<path opacity="0.76" d="M209.36 48.8066L191.996 64.742" stroke="#288ED7" stroke-width="0.920792" stroke-linecap="round"/>
<path opacity="0.76" d="M226.727 48.8066L209.363 64.742" stroke="#288ED7" stroke-width="0.920792" stroke-linecap="round"/>
<path opacity="0.76" d="M226.723 48.8066L244.086 64.742" stroke="#288ED7" stroke-width="0.920792" stroke-linecap="round"/>
<path opacity="0.76" d="M261.453 48.8066L244.09 64.742" stroke="#288ED7" stroke-width="0.920792" stroke-linecap="round"/>
<path opacity="0.76" d="M261.453 48.8066L278.817 64.742" stroke="#288ED7" stroke-width="0.920792" stroke-linecap="round"/>
<path opacity="0.76" d="M296.18 48.8066L278.816 64.742" stroke="#288ED7" stroke-width="0.920792" stroke-linecap="round"/>
<path opacity="0.76" d="M296.18 48.8066L313.543 64.742" stroke="#288ED7" stroke-width="0.920792" stroke-linecap="round"/>
<path opacity="0.76" d="M330.903 48.8066L313.539 64.742" stroke="#288ED7" stroke-width="0.920792" stroke-linecap="round"/>
<path opacity="0.76" d="M330.906 48.8066L348.27 64.742" stroke="#288ED7" stroke-width="0.920792" stroke-linecap="round"/>
<path opacity="0.76" d="M365.633 48.8066L348.27 64.742" stroke="#288ED7" stroke-width="0.920792" stroke-linecap="round"/>
<path opacity="0.68" d="M18.3635 64.7402L1 80.6756" stroke="#5190BD" stroke-width="0.920792" stroke-linecap="round"/>
<path opacity="0.68" d="M35.7268 64.7402L18.3633 80.6756" stroke="#5190BD" stroke-width="0.920792" stroke-linecap="round"/>
<path opacity="0.68" d="M53.0901 64.7402L35.7266 80.6756" stroke="#5190BD" stroke-width="0.920792" stroke-linecap="round"/>
<path opacity="0.68" d="M70.4534 64.7402L53.0898 80.6756" stroke="#5190BD" stroke-width="0.920792" stroke-linecap="round"/>
<path opacity="0.68" d="M70.4531 64.7402L87.8166 80.6756" stroke="#5190BD" stroke-width="0.920792" stroke-linecap="round"/>
<path opacity="0.68" d="M87.8164 64.7402L105.18 80.6756" stroke="#5190BD" stroke-width="0.920792" stroke-linecap="round"/>
<path opacity="0.68" d="M105.18 64.7402L122.543 80.6756" stroke="#5190BD" stroke-width="0.920792" stroke-linecap="round"/>
<path opacity="0.68" d="M139.906 64.7402L122.543 80.6756" stroke="#5190BD" stroke-width="0.920792" stroke-linecap="round"/>
<path opacity="0.68" d="M139.906 64.7402L157.27 80.6756" stroke="#5190BD" stroke-width="0.920792" stroke-linecap="round"/>
<path opacity="0.68" d="M157.273 64.7402L174.637 80.6756" stroke="#5190BD" stroke-width="0.920792" stroke-linecap="round"/>
<path opacity="0.68" d="M192 64.7402L174.637 80.6756" stroke="#5190BD" stroke-width="0.920792" stroke-linecap="round"/>
<path opacity="0.68" d="M191.996 64.7402L209.36 80.6756" stroke="#5190BD" stroke-width="0.920792" stroke-linecap="round"/>
<path opacity="0.68" d="M226.727 64.7402L209.363 80.6756" stroke="#5190BD" stroke-width="0.920792" stroke-linecap="round"/>
<path opacity="0.68" d="M226.723 64.7402L244.086 80.6756" stroke="#5190BD" stroke-width="0.920792" stroke-linecap="round"/>
<path opacity="0.68" d="M261.453 64.7402L244.09 80.6756" stroke="#5190BD" stroke-width="0.920792" stroke-linecap="round"/>
<path opacity="0.68" d="M261.453 64.7402L278.817 80.6756" stroke="#5190BD" stroke-width="0.920792" stroke-linecap="round"/>
<path opacity="0.68" d="M296.18 64.7402L278.816 80.6756" stroke="#5190BD" stroke-width="0.920792" stroke-linecap="round"/>
<path opacity="0.68" d="M313.543 64.7402L296.18 80.6756" stroke="#5190BD" stroke-width="0.920792" stroke-linecap="round"/>
<path opacity="0.68" d="M330.903 64.7402L313.539 80.6756" stroke="#5190BD" stroke-width="0.920792" stroke-linecap="round"/>
<path opacity="0.68" d="M348.27 64.7402L330.906 80.6756" stroke="#5190BD" stroke-width="0.920792" stroke-linecap="round"/>
<path opacity="0.68" d="M365.633 64.7402L348.27 80.6756" stroke="#5190BD" stroke-width="0.920792" stroke-linecap="round"/>
<path opacity="0.6" d="M18.3635 80.6777L1 96.6131" stroke="#5190BD" stroke-width="0.920792" stroke-linecap="round"/>
<path opacity="0.6" d="M18.3633 80.6777L35.7268 96.6131" stroke="#5190BD" stroke-width="0.920792" stroke-linecap="round"/>
<path opacity="0.6" d="M53.0901 80.6777L35.7266 96.6131" stroke="#5190BD" stroke-width="0.920792" stroke-linecap="round"/>
<path opacity="0.6" d="M53.0898 80.6777L70.4534 96.6131" stroke="#5190BD" stroke-width="0.920792" stroke-linecap="round"/>
<path opacity="0.6" d="M70.4531 80.6777L87.8166 96.6131" stroke="#5190BD" stroke-width="0.920792" stroke-linecap="round"/>
<path opacity="0.6" d="M87.8164 80.6777L105.18 96.6131" stroke="#5190BD" stroke-width="0.920792" stroke-linecap="round"/>
<path opacity="0.6" d="M105.18 80.6777L122.543 96.6131" stroke="#5190BD" stroke-width="0.920792" stroke-linecap="round"/>
<path opacity="0.6" d="M122.543 80.6777L139.906 96.6131" stroke="#5190BD" stroke-width="0.920792" stroke-linecap="round"/>
<path opacity="0.6" d="M139.906 80.6777L157.27 96.6131" stroke="#5190BD" stroke-width="0.920792" stroke-linecap="round"/>
<path opacity="0.6" d="M157.273 80.6777L174.637 96.6131" stroke="#5190BD" stroke-width="0.920792" stroke-linecap="round"/>
<path opacity="0.6" d="M174.637 80.6777L192 96.6131" stroke="#5190BD" stroke-width="0.920792" stroke-linecap="round"/>
<path opacity="0.6" d="M209.36 80.6777L191.996 96.6131" stroke="#5190BD" stroke-width="0.920792" stroke-linecap="round"/>
<path opacity="0.6" d="M226.727 80.6777L209.363 96.6131" stroke="#5190BD" stroke-width="0.920792" stroke-linecap="round"/>
<path opacity="0.6" d="M226.723 80.6777L244.086 96.6131" stroke="#5190BD" stroke-width="0.920792" stroke-linecap="round"/>
<path opacity="0.6" d="M261.453 80.6777L244.09 96.6131" stroke="#5190BD" stroke-width="0.920792" stroke-linecap="round"/>
<path opacity="0.6" d="M278.817 80.6777L261.453 96.6131" stroke="#5190BD" stroke-width="0.920792" stroke-linecap="round"/>
<path opacity="0.6" d="M278.816 80.6777L296.18 96.6131" stroke="#5190BD" stroke-width="0.920792" stroke-linecap="round"/>
<path opacity="0.6" d="M313.543 80.6777L296.18 96.6131" stroke="#5190BD" stroke-width="0.920792" stroke-linecap="round"/>
<path opacity="0.6" d="M313.539 80.6777L330.903 96.6131" stroke="#5190BD" stroke-width="0.920792" stroke-linecap="round"/>
<path opacity="0.6" d="M348.27 80.6777L330.906 96.6131" stroke="#5190BD" stroke-width="0.920792" stroke-linecap="round"/>
<path opacity="0.6" d="M365.633 80.6777L348.27 96.6131" stroke="#5190BD" stroke-width="0.920792" stroke-linecap="round"/>
<path opacity="0.52" d="M18.3635 96.6123L1 112.548" stroke="#5DA3D6" stroke-width="0.920792" stroke-linecap="round"/>
<path opacity="0.52" d="M35.7268 96.6123L18.3633 112.548" stroke="#5DA3D6" stroke-width="0.920792" stroke-linecap="round"/>
<path opacity="0.52" d="M53.0901 96.6123L35.7266 112.548" stroke="#5DA3D6" stroke-width="0.920792" stroke-linecap="round"/>
<path opacity="0.52" d="M53.0898 96.6123L70.4534 112.548" stroke="#5DA3D6" stroke-width="0.920792" stroke-linecap="round"/>
<path opacity="0.52" d="M70.4531 96.6123L87.8166 112.548" stroke="#5DA3D6" stroke-width="0.920792" stroke-linecap="round"/>
<path opacity="0.52" d="M105.18 96.6123L87.8164 112.548" stroke="#5DA3D6" stroke-width="0.920792" stroke-linecap="round"/>
<path opacity="0.52" d="M105.18 96.6123L122.543 112.548" stroke="#5DA3D6" stroke-width="0.920792" stroke-linecap="round"/>
<path opacity="0.52" d="M122.543 96.6123L139.906 112.548" stroke="#5DA3D6" stroke-width="0.920792" stroke-linecap="round"/>
<path opacity="0.52" d="M139.906 96.6123L157.27 112.548" stroke="#5DA3D6" stroke-width="0.920792" stroke-linecap="round"/>
<path opacity="0.52" d="M157.273 96.6123L174.637 112.548" stroke="#5DA3D6" stroke-width="0.920792" stroke-linecap="round"/>
<path opacity="0.52" d="M192 96.6123L174.637 112.548" stroke="#5DA3D6" stroke-width="0.920792" stroke-linecap="round"/>
<path opacity="0.52" d="M191.996 96.6123L209.36 112.548" stroke="#5DA3D6" stroke-width="0.920792" stroke-linecap="round"/>
<path opacity="0.52" d="M209.363 96.6123L226.727 112.548" stroke="#5DA3D6" stroke-width="0.920792" stroke-linecap="round"/>
<path opacity="0.52" d="M226.723 96.6123L244.086 112.548" stroke="#5DA3D6" stroke-width="0.920792" stroke-linecap="round"/>
<path opacity="0.52" d="M261.453 96.6123L244.09 112.548" stroke="#5DA3D6" stroke-width="0.920792" stroke-linecap="round"/>
<path opacity="0.52" d="M261.453 96.6123L278.817 112.548" stroke="#5DA3D6" stroke-width="0.920792" stroke-linecap="round"/>
<path opacity="0.52" d="M278.816 96.6123L296.18 112.548" stroke="#5DA3D6" stroke-width="0.920792" stroke-linecap="round"/>
<path opacity="0.52" d="M313.543 96.6123L296.18 112.548" stroke="#5DA3D6" stroke-width="0.920792" stroke-linecap="round"/>
<path opacity="0.52" d="M330.903 96.6123L313.539 112.548" stroke="#5DA3D6" stroke-width="0.920792" stroke-linecap="round"/>
<path opacity="0.52" d="M348.27 96.6123L330.906 112.548" stroke="#5DA3D6" stroke-width="0.920792" stroke-linecap="round"/>
<path opacity="0.52" d="M348.27 96.6123L365.633 112.548" stroke="#5DA3D6" stroke-width="0.920792" stroke-linecap="round"/>
<path opacity="0.43" d="M1 112.548L18.3635 128.483" stroke="#5DA3D6" stroke-width="0.920792" stroke-linecap="round"/>
<path opacity="0.43" d="M35.7268 112.548L18.3633 128.483" stroke="#5DA3D6" stroke-width="0.920792" stroke-linecap="round"/>
<path opacity="0.43" d="M35.7266 112.548L53.0901 128.483" stroke="#5DA3D6" stroke-width="0.920792" stroke-linecap="round"/>
<path opacity="0.43" d="M53.0898 112.548L70.4534 128.483" stroke="#5DA3D6" stroke-width="0.920792" stroke-linecap="round"/>
<path opacity="0.43" d="M87.8166 112.548L70.4531 128.483" stroke="#5DA3D6" stroke-width="0.920792" stroke-linecap="round"/>
<path opacity="0.43" d="M105.18 112.548L87.8164 128.483" stroke="#5DA3D6" stroke-width="0.920792" stroke-linecap="round"/>
<path opacity="0.43" d="M105.18 112.548L122.543 128.483" stroke="#5DA3D6" stroke-width="0.920792" stroke-linecap="round"/>
<path opacity="0.43" d="M139.906 112.548L122.543 128.483" stroke="#5DA3D6" stroke-width="0.920792" stroke-linecap="round"/>
<path opacity="0.43" d="M157.27 112.548L139.906 128.483" stroke="#5DA3D6" stroke-width="0.920792" stroke-linecap="round"/>
<path opacity="0.43" d="M157.273 112.548L174.637 128.483" stroke="#5DA3D6" stroke-width="0.920792" stroke-linecap="round"/>
<path opacity="0.43" d="M192 112.548L174.637 128.483" stroke="#5DA3D6" stroke-width="0.920792" stroke-linecap="round"/>
<path opacity="0.43" d="M209.36 112.548L191.996 128.483" stroke="#5DA3D6" stroke-width="0.920792" stroke-linecap="round"/>
<path opacity="0.43" d="M226.727 112.548L209.363 128.483" stroke="#5DA3D6" stroke-width="0.920792" stroke-linecap="round"/>
<path opacity="0.43" d="M244.086 112.548L226.723 128.483" stroke="#5DA3D6" stroke-width="0.920792" stroke-linecap="round"/>
<path opacity="0.43" d="M244.09 112.548L261.453 128.483" stroke="#5DA3D6" stroke-width="0.920792" stroke-linecap="round"/>
<path opacity="0.43" d="M261.453 112.548L278.817 128.483" stroke="#5DA3D6" stroke-width="0.920792" stroke-linecap="round"/>
<path opacity="0.43" d="M278.816 112.548L296.18 128.483" stroke="#5DA3D6" stroke-width="0.920792" stroke-linecap="round"/>
<path opacity="0.43" d="M296.18 112.548L313.543 128.483" stroke="#5DA3D6" stroke-width="0.920792" stroke-linecap="round"/>
<path opacity="0.43" d="M330.903 112.548L313.539 128.483" stroke="#5DA3D6" stroke-width="0.920792" stroke-linecap="round"/>
<path opacity="0.43" d="M330.906 112.548L348.27 128.483" stroke="#5DA3D6" stroke-width="0.920792" stroke-linecap="round"/>
<path opacity="0.43" d="M348.27 112.548L365.633 128.483" stroke="#5DA3D6" stroke-width="0.920792" stroke-linecap="round"/>
<path opacity="0.35" d="M18.3635 128.482L1 144.418" stroke="#76C0F5" stroke-width="0.920792" stroke-linecap="round"/>
<path opacity="0.35" d="M18.3633 128.482L35.7268 144.418" stroke="#76C0F5" stroke-width="0.920792" stroke-linecap="round"/>
<path opacity="0.35" d="M53.0901 128.482L35.7266 144.418" stroke="#76C0F5" stroke-width="0.920792" stroke-linecap="round"/>
<path opacity="0.35" d="M53.0898 128.482L70.4534 144.418" stroke="#76C0F5" stroke-width="0.920792" stroke-linecap="round"/>
<path opacity="0.35" d="M87.8166 128.482L70.4531 144.418" stroke="#76C0F5" stroke-width="0.920792" stroke-linecap="round"/>
<path opacity="0.35" d="M87.8164 128.482L105.18 144.418" stroke="#76C0F5" stroke-width="0.920792" stroke-linecap="round"/>
<path opacity="0.35" d="M122.543 128.482L105.18 144.418" stroke="#76C0F5" stroke-width="0.920792" stroke-linecap="round"/>
<path opacity="0.35" d="M139.906 128.482L122.543 144.418" stroke="#76C0F5" stroke-width="0.920792" stroke-linecap="round"/>
<path opacity="0.35" d="M139.906 128.482L157.27 144.418" stroke="#76C0F5" stroke-width="0.920792" stroke-linecap="round"/>
<path opacity="0.35" d="M174.637 128.482L157.273 144.418" stroke="#76C0F5" stroke-width="0.920792" stroke-linecap="round"/>
<path opacity="0.35" d="M192 128.482L174.637 144.418" stroke="#76C0F5" stroke-width="0.920792" stroke-linecap="round"/>
<path opacity="0.35" d="M191.996 128.482L209.36 144.418" stroke="#76C0F5" stroke-width="0.920792" stroke-linecap="round"/>
<path opacity="0.35" d="M209.363 128.482L226.727 144.418" stroke="#76C0F5" stroke-width="0.920792" stroke-linecap="round"/>
<path opacity="0.35" d="M244.086 128.482L226.723 144.418" stroke="#76C0F5" stroke-width="0.920792" stroke-linecap="round"/>
<path opacity="0.35" d="M261.453 128.482L244.09 144.418" stroke="#76C0F5" stroke-width="0.920792" stroke-linecap="round"/>
<path opacity="0.35" d="M278.817 128.482L261.453 144.418" stroke="#76C0F5" stroke-width="0.920792" stroke-linecap="round"/>
<path opacity="0.35" d="M296.18 128.482L278.816 144.418" stroke="#76C0F5" stroke-width="0.920792" stroke-linecap="round"/>
<path opacity="0.35" d="M296.18 128.482L313.543 144.418" stroke="#76C0F5" stroke-width="0.920792" stroke-linecap="round"/>
<path opacity="0.35" d="M313.539 128.482L330.903 144.418" stroke="#76C0F5" stroke-width="0.920792" stroke-linecap="round"/>
<path opacity="0.35" d="M330.906 128.482L348.27 144.418" stroke="#76C0F5" stroke-width="0.920792" stroke-linecap="round"/>
<path opacity="0.35" d="M365.633 128.482L348.27 144.418" stroke="#76C0F5" stroke-width="0.920792" stroke-linecap="round"/>
<path opacity="0.27" d="M1 144.418L18.3635 160.353" stroke="#76C0F5" stroke-width="0.920792" stroke-linecap="round"/>
<path opacity="0.27" d="M18.3633 144.418L35.7268 160.353" stroke="#76C0F5" stroke-width="0.920792" stroke-linecap="round"/>
<path opacity="0.27" d="M35.7266 144.418L53.0901 160.353" stroke="#76C0F5" stroke-width="0.920792" stroke-linecap="round"/>
<path opacity="0.27" d="M53.0898 144.418L70.4534 160.353" stroke="#76C0F5" stroke-width="0.920792" stroke-linecap="round"/>
<path opacity="0.27" d="M87.8166 144.418L70.4531 160.353" stroke="#76C0F5" stroke-width="0.920792" stroke-linecap="round"/>
<path opacity="0.27" d="M105.18 144.418L87.8164 160.353" stroke="#76C0F5" stroke-width="0.920792" stroke-linecap="round"/>
<path opacity="0.27" d="M105.18 144.418L122.543 160.353" stroke="#76C0F5" stroke-width="0.920792" stroke-linecap="round"/>
<path opacity="0.27" d="M139.906 144.418L122.543 160.353" stroke="#76C0F5" stroke-width="0.920792" stroke-linecap="round"/>
<path opacity="0.27" d="M157.27 144.418L139.906 160.353" stroke="#76C0F5" stroke-width="0.920792" stroke-linecap="round"/>
<path opacity="0.27" d="M174.637 144.418L157.273 160.353" stroke="#76C0F5" stroke-width="0.920792" stroke-linecap="round"/>
<path opacity="0.27" d="M174.637 144.418L192 160.353" stroke="#76C0F5" stroke-width="0.920792" stroke-linecap="round"/>
<path opacity="0.27" d="M209.36 144.418L191.996 160.353" stroke="#76C0F5" stroke-width="0.920792" stroke-linecap="round"/>
<path opacity="0.27" d="M226.727 144.418L209.363 160.353" stroke="#76C0F5" stroke-width="0.920792" stroke-linecap="round"/>
<path opacity="0.27" d="M226.723 144.418L244.086 160.353" stroke="#76C0F5" stroke-width="0.920792" stroke-linecap="round"/>
<path opacity="0.27" d="M244.09 144.418L261.453 160.353" stroke="#76C0F5" stroke-width="0.920792" stroke-linecap="round"/>
<path opacity="0.27" d="M261.453 144.418L278.817 160.353" stroke="#76C0F5" stroke-width="0.920792" stroke-linecap="round"/>
<path opacity="0.27" d="M296.18 144.418L278.816 160.353" stroke="#76C0F5" stroke-width="0.920792" stroke-linecap="round"/>
<path opacity="0.27" d="M296.18 144.418L313.543 160.353" stroke="#76C0F5" stroke-width="0.920792" stroke-linecap="round"/>
<path opacity="0.27" d="M330.903 144.418L313.539 160.353" stroke="#76C0F5" stroke-width="0.920792" stroke-linecap="round"/>
<path opacity="0.27" d="M330.906 144.418L348.27 160.353" stroke="#76C0F5" stroke-width="0.920792" stroke-linecap="round"/>
<path opacity="0.27" d="M365.633 144.418L348.27 160.353" stroke="#76C0F5" stroke-width="0.920792" stroke-linecap="round"/>
<path opacity="0.19" d="M1 160.354L18.3635 176.289" stroke="#76C0F5" stroke-width="0.920792" stroke-linecap="round"/>
<path opacity="0.19" d="M18.3633 160.354L35.7268 176.289" stroke="#76C0F5" stroke-width="0.920792" stroke-linecap="round"/>
<path opacity="0.19" d="M53.0901 160.354L35.7266 176.289" stroke="#76C0F5" stroke-width="0.920792" stroke-linecap="round"/>
<path opacity="0.19" d="M53.0898 160.354L70.4534 176.289" stroke="#76C0F5" stroke-width="0.920792" stroke-linecap="round"/>
<path opacity="0.19" d="M87.8166 160.354L70.4531 176.289" stroke="#76C0F5" stroke-width="0.920792" stroke-linecap="round"/>
<path opacity="0.19" d="M105.18 160.354L87.8164 176.289" stroke="#76C0F5" stroke-width="0.920792" stroke-linecap="round"/>
<path opacity="0.19" d="M105.18 160.354L122.543 176.289" stroke="#76C0F5" stroke-width="0.920792" stroke-linecap="round"/>
<path opacity="0.19" d="M122.543 160.354L139.906 176.289" stroke="#76C0F5" stroke-width="0.920792" stroke-linecap="round"/>
<path opacity="0.19" d="M157.27 160.354L139.906 176.289" stroke="#76C0F5" stroke-width="0.920792" stroke-linecap="round"/>
<path opacity="0.19" d="M157.273 160.354L174.637 176.289" stroke="#76C0F5" stroke-width="0.920792" stroke-linecap="round"/>
<path opacity="0.19" d="M192 160.354L174.637 176.289" stroke="#76C0F5" stroke-width="0.920792" stroke-linecap="round"/>
<path opacity="0.19" d="M191.996 160.354L209.36 176.289" stroke="#76C0F5" stroke-width="0.920792" stroke-linecap="round"/>
<path opacity="0.19" d="M226.727 160.354L209.363 176.289" stroke="#76C0F5" stroke-width="0.920792" stroke-linecap="round"/>
<path opacity="0.19" d="M226.723 160.354L244.086 176.289" stroke="#76C0F5" stroke-width="0.920792" stroke-linecap="round"/>
<path opacity="0.19" d="M261.453 160.354L244.09 176.289" stroke="#76C0F5" stroke-width="0.920792" stroke-linecap="round"/>
<path opacity="0.19" d="M261.453 160.354L278.817 176.289" stroke="#76C0F5" stroke-width="0.920792" stroke-linecap="round"/>
<path opacity="0.19" d="M278.816 160.354L296.18 176.289" stroke="#76C0F5" stroke-width="0.920792" stroke-linecap="round"/>
<path opacity="0.19" d="M296.18 160.354L313.543 176.289" stroke="#76C0F5" stroke-width="0.920792" stroke-linecap="round"/>
<path opacity="0.19" d="M313.539 160.354L330.903 176.289" stroke="#76C0F5" stroke-width="0.920792" stroke-linecap="round"/>
<path opacity="0.19" d="M348.27 160.354L330.906 176.289" stroke="#76C0F5" stroke-width="0.920792" stroke-linecap="round"/>
<path opacity="0.19" d="M348.27 160.354L365.633 176.289" stroke="#76C0F5" stroke-width="0.920792" stroke-linecap="round"/>
<path opacity="0.11" d="M1 176.288L18.3635 192.223" stroke="#76C0F5" stroke-width="0.920792" stroke-linecap="round"/>
<path opacity="0.11" d="M35.7268 176.288L18.3633 192.223" stroke="#76C0F5" stroke-width="0.920792" stroke-linecap="round"/>
<path opacity="0.11" d="M53.0901 176.288L35.7266 192.223" stroke="#76C0F5" stroke-width="0.920792" stroke-linecap="round"/>
<path opacity="0.11" d="M70.4534 176.288L53.0898 192.223" stroke="#76C0F5" stroke-width="0.920792" stroke-linecap="round"/>
<path opacity="0.11" d="M70.4531 176.288L87.8166 192.223" stroke="#76C0F5" stroke-width="0.920792" stroke-linecap="round"/>
<path opacity="0.11" d="M105.18 176.288L87.8164 192.223" stroke="#76C0F5" stroke-width="0.920792" stroke-linecap="round"/>
<path opacity="0.11" d="M105.18 176.288L122.543 192.223" stroke="#76C0F5" stroke-width="0.920792" stroke-linecap="round"/>
<path opacity="0.11" d="M139.906 176.288L122.543 192.223" stroke="#76C0F5" stroke-width="0.920792" stroke-linecap="round"/>
<path opacity="0.11" d="M139.906 176.288L157.27 192.223" stroke="#76C0F5" stroke-width="0.920792" stroke-linecap="round"/>
<path opacity="0.11" d="M174.637 176.288L157.273 192.223" stroke="#76C0F5" stroke-width="0.920792" stroke-linecap="round"/>
<path opacity="0.11" d="M192 176.288L174.637 192.223" stroke="#76C0F5" stroke-width="0.920792" stroke-linecap="round"/>
<path opacity="0.11" d="M191.996 176.288L209.36 192.223" stroke="#76C0F5" stroke-width="0.920792" stroke-linecap="round"/>
<path opacity="0.11" d="M209.363 176.288L226.727 192.223" stroke="#76C0F5" stroke-width="0.920792" stroke-linecap="round"/>
<path opacity="0.11" d="M244.086 176.288L226.723 192.223" stroke="#76C0F5" stroke-width="0.920792" stroke-linecap="round"/>
<path opacity="0.11" d="M261.453 176.288L244.09 192.223" stroke="#76C0F5" stroke-width="0.920792" stroke-linecap="round"/>
<path opacity="0.11" d="M261.453 176.288L278.817 192.223" stroke="#76C0F5" stroke-width="0.920792" stroke-linecap="round"/>
<path opacity="0.11" d="M296.18 176.288L278.816 192.223" stroke="#76C0F5" stroke-width="0.920792" stroke-linecap="round"/>
<path opacity="0.11" d="M313.543 176.288L296.18 192.223" stroke="#76C0F5" stroke-width="0.920792" stroke-linecap="round"/>
<path opacity="0.11" d="M313.539 176.288L330.903 192.223" stroke="#76C0F5" stroke-width="0.920792" stroke-linecap="round"/>
<path opacity="0.11" d="M330.906 176.288L348.27 192.223" stroke="#76C0F5" stroke-width="0.920792" stroke-linecap="round"/>
<path opacity="0.11" d="M348.27 176.288L365.633 192.223" stroke="#76C0F5" stroke-width="0.920792" stroke-linecap="round"/>
</g>
</svg>
