<svg width="1386" height="707" viewBox="0 0 1386 707" fill="none" xmlns="http://www.w3.org/2000/svg">
<g clip-path="url(#clip0_1_159933)">
<rect width="1386" height="707" rx="35" fill="url(#paint0_linear_1_159933)"/>
<g opacity="0.2">
<path d="M66 -20L0 40.5714" stroke="#288ED7" stroke-width="3.5" stroke-linecap="round"/>
<path d="M132 -20L66 40.5714" stroke="#288ED7" stroke-width="3.5" stroke-linecap="round"/>
<path d="M131.996 -20L197.996 40.5714" stroke="#288ED7" stroke-width="3.5" stroke-linecap="round"/>
<path d="M263.996 -20L197.996 40.5714" stroke="#288ED7" stroke-width="3.5" stroke-linecap="round"/>
<path d="M330.004 -20L264.004 40.5714" stroke="#288ED7" stroke-width="3.5" stroke-linecap="round"/>
<path d="M396.004 -20L330.004 40.5714" stroke="#288ED7" stroke-width="3.5" stroke-linecap="round"/>
<path d="M396 -20L462 40.5714" stroke="#288ED7" stroke-width="3.5" stroke-linecap="round"/>
<path d="M462 -20L528 40.5714" stroke="#288ED7" stroke-width="3.5" stroke-linecap="round"/>
<path d="M594 -20L528 40.5714" stroke="#288ED7" stroke-width="3.5" stroke-linecap="round"/>
<path d="M659.996 -20L593.996 40.5714" stroke="#288ED7" stroke-width="3.5" stroke-linecap="round"/>
<path d="M725.996 -20L659.996 40.5714" stroke="#288ED7" stroke-width="3.5" stroke-linecap="round"/>
<path d="M792.004 -20L726.004 40.5714" stroke="#288ED7" stroke-width="3.5" stroke-linecap="round"/>
<path d="M792.004 -20L858.004 40.5714" stroke="#288ED7" stroke-width="3.5" stroke-linecap="round"/>
<path d="M858 -20L924 40.5714" stroke="#288ED7" stroke-width="3.5" stroke-linecap="round"/>
<path d="M924 -20L990 40.5714" stroke="#288ED7" stroke-width="3.5" stroke-linecap="round"/>
<path d="M1056 -20L990 40.5714" stroke="#288ED7" stroke-width="3.5" stroke-linecap="round"/>
<path d="M1122 -20L1056 40.5714" stroke="#288ED7" stroke-width="3.5" stroke-linecap="round"/>
<path d="M1188 -20L1122 40.5714" stroke="#288ED7" stroke-width="3.5" stroke-linecap="round"/>
<path d="M1188 -20L1254 40.5714" stroke="#288ED7" stroke-width="3.5" stroke-linecap="round"/>
<path d="M1254 -20L1320 40.5714" stroke="#288ED7" stroke-width="3.5" stroke-linecap="round"/>
<path d="M1386 -20L1320 40.5714" stroke="#288ED7" stroke-width="3.5" stroke-linecap="round"/>
<path opacity="0.92" d="M0 40.5723L66 101.144" stroke="#288ED7" stroke-width="3.5" stroke-linecap="round"/>
<path opacity="0.92" d="M132 40.5723L66 101.144" stroke="#288ED7" stroke-width="3.5" stroke-linecap="round"/>
<path opacity="0.92" d="M131.996 40.5723L197.996 101.144" stroke="#288ED7" stroke-width="3.5" stroke-linecap="round"/>
<path opacity="0.92" d="M197.996 40.5723L263.996 101.144" stroke="#288ED7" stroke-width="3.5" stroke-linecap="round"/>
<path opacity="0.92" d="M330.004 40.5723L264.004 101.144" stroke="#288ED7" stroke-width="3.5" stroke-linecap="round"/>
<path opacity="0.92" d="M396.004 40.5723L330.004 101.144" stroke="#288ED7" stroke-width="3.5" stroke-linecap="round"/>
<path opacity="0.92" d="M396 40.5723L462 101.144" stroke="#288ED7" stroke-width="3.5" stroke-linecap="round"/>
<path opacity="0.92" d="M528 40.5723L462 101.144" stroke="#288ED7" stroke-width="3.5" stroke-linecap="round"/>
<path opacity="0.92" d="M594 40.5723L528 101.144" stroke="#288ED7" stroke-width="3.5" stroke-linecap="round"/>
<path opacity="0.92" d="M593.996 40.5723L659.996 101.144" stroke="#288ED7" stroke-width="3.5" stroke-linecap="round"/>
<path opacity="0.92" d="M659.996 40.5723L725.996 101.144" stroke="#288ED7" stroke-width="3.5" stroke-linecap="round"/>
<path opacity="0.92" d="M726.004 40.5723L792.004 101.144" stroke="#288ED7" stroke-width="3.5" stroke-linecap="round"/>
<path opacity="0.92" d="M792.004 40.5723L858.004 101.144" stroke="#288ED7" stroke-width="3.5" stroke-linecap="round"/>
<path opacity="0.92" d="M924 40.5723L858 101.144" stroke="#288ED7" stroke-width="3.5" stroke-linecap="round"/>
<path opacity="0.92" d="M924 40.5723L990 101.144" stroke="#288ED7" stroke-width="3.5" stroke-linecap="round"/>
<path opacity="0.92" d="M990 40.5723L1056 101.144" stroke="#288ED7" stroke-width="3.5" stroke-linecap="round"/>
<path opacity="0.92" d="M1056 40.5723L1122 101.144" stroke="#288ED7" stroke-width="3.5" stroke-linecap="round"/>
<path opacity="0.92" d="M1188 40.5723L1122 101.144" stroke="#288ED7" stroke-width="3.5" stroke-linecap="round"/>
<path opacity="0.92" d="M1254 40.5723L1188 101.144" stroke="#288ED7" stroke-width="3.5" stroke-linecap="round"/>
<path opacity="0.92" d="M1320 40.5723L1254 101.144" stroke="#288ED7" stroke-width="3.5" stroke-linecap="round"/>
<path opacity="0.92" d="M1386 40.5723L1320 101.144" stroke="#288ED7" stroke-width="3.5" stroke-linecap="round"/>
<path opacity="0.84" d="M0 101.143L66 161.714" stroke="#288ED7" stroke-width="3.5" stroke-linecap="round"/>
<path opacity="0.84" d="M66 101.143L132 161.714" stroke="#288ED7" stroke-width="3.5" stroke-linecap="round"/>
<path opacity="0.84" d="M131.996 101.143L197.996 161.714" stroke="#288ED7" stroke-width="3.5" stroke-linecap="round"/>
<path opacity="0.84" d="M263.996 101.143L197.996 161.714" stroke="#288ED7" stroke-width="3.5" stroke-linecap="round"/>
<path opacity="0.84" d="M264.004 101.143L330.004 161.714" stroke="#288ED7" stroke-width="3.5" stroke-linecap="round"/>
<path opacity="0.84" d="M396.004 101.143L330.004 161.714" stroke="#288ED7" stroke-width="3.5" stroke-linecap="round"/>
<path opacity="0.84" d="M462 101.143L396 161.714" stroke="#288ED7" stroke-width="3.5" stroke-linecap="round"/>
<path opacity="0.84" d="M528 101.143L462 161.714" stroke="#288ED7" stroke-width="3.5" stroke-linecap="round"/>
<path opacity="0.84" d="M594 101.143L528 161.714" stroke="#288ED7" stroke-width="3.5" stroke-linecap="round"/>
<path opacity="0.84" d="M659.996 101.143L593.996 161.714" stroke="#288ED7" stroke-width="3.5" stroke-linecap="round"/>
<path opacity="0.84" d="M725.996 101.143L659.996 161.714" stroke="#288ED7" stroke-width="3.5" stroke-linecap="round"/>
<path opacity="0.84" d="M726.004 101.143L792.004 161.714" stroke="#288ED7" stroke-width="3.5" stroke-linecap="round"/>
<path opacity="0.84" d="M858.004 101.143L792.004 161.714" stroke="#288ED7" stroke-width="3.5" stroke-linecap="round"/>
<path opacity="0.84" d="M924 101.143L858 161.714" stroke="#288ED7" stroke-width="3.5" stroke-linecap="round"/>
<path opacity="0.84" d="M924 101.143L990 161.714" stroke="#288ED7" stroke-width="3.5" stroke-linecap="round"/>
<path opacity="0.84" d="M1056 101.143L990 161.714" stroke="#288ED7" stroke-width="3.5" stroke-linecap="round"/>
<path opacity="0.84" d="M1056 101.143L1122 161.714" stroke="#288ED7" stroke-width="3.5" stroke-linecap="round"/>
<path opacity="0.84" d="M1122 101.143L1188 161.714" stroke="#288ED7" stroke-width="3.5" stroke-linecap="round"/>
<path opacity="0.84" d="M1254 101.143L1188 161.714" stroke="#288ED7" stroke-width="3.5" stroke-linecap="round"/>
<path opacity="0.84" d="M1254 101.143L1320 161.714" stroke="#288ED7" stroke-width="3.5" stroke-linecap="round"/>
<path opacity="0.84" d="M1320 101.143L1386 161.714" stroke="#288ED7" stroke-width="3.5" stroke-linecap="round"/>
<path opacity="0.76" d="M66 161.715L0 222.286" stroke="#288ED7" stroke-width="3.5" stroke-linecap="round"/>
<path opacity="0.76" d="M132 161.715L66 222.286" stroke="#288ED7" stroke-width="3.5" stroke-linecap="round"/>
<path opacity="0.76" d="M131.996 161.715L197.996 222.286" stroke="#288ED7" stroke-width="3.5" stroke-linecap="round"/>
<path opacity="0.76" d="M263.996 161.715L197.996 222.286" stroke="#288ED7" stroke-width="3.5" stroke-linecap="round"/>
<path opacity="0.76" d="M264.004 161.715L330.004 222.286" stroke="#288ED7" stroke-width="3.5" stroke-linecap="round"/>
<path opacity="0.76" d="M396.004 161.715L330.004 222.286" stroke="#288ED7" stroke-width="3.5" stroke-linecap="round"/>
<path opacity="0.76" d="M396 161.715L462 222.286" stroke="#288ED7" stroke-width="3.5" stroke-linecap="round"/>
<path opacity="0.76" d="M462 161.715L528 222.286" stroke="#288ED7" stroke-width="3.5" stroke-linecap="round"/>
<path opacity="0.76" d="M528 161.715L594 222.286" stroke="#288ED7" stroke-width="3.5" stroke-linecap="round"/>
<path opacity="0.76" d="M659.996 161.715L593.996 222.286" stroke="#288ED7" stroke-width="3.5" stroke-linecap="round"/>
<path opacity="0.76" d="M725.996 161.715L659.996 222.286" stroke="#288ED7" stroke-width="3.5" stroke-linecap="round"/>
<path opacity="0.76" d="M792.004 161.715L726.004 222.286" stroke="#288ED7" stroke-width="3.5" stroke-linecap="round"/>
<path opacity="0.76" d="M858.004 161.715L792.004 222.286" stroke="#288ED7" stroke-width="3.5" stroke-linecap="round"/>
<path opacity="0.76" d="M858 161.715L924 222.286" stroke="#288ED7" stroke-width="3.5" stroke-linecap="round"/>
<path opacity="0.76" d="M990 161.715L924 222.286" stroke="#288ED7" stroke-width="3.5" stroke-linecap="round"/>
<path opacity="0.76" d="M990 161.715L1056 222.286" stroke="#288ED7" stroke-width="3.5" stroke-linecap="round"/>
<path opacity="0.76" d="M1122 161.715L1056 222.286" stroke="#288ED7" stroke-width="3.5" stroke-linecap="round"/>
<path opacity="0.76" d="M1122 161.715L1188 222.286" stroke="#288ED7" stroke-width="3.5" stroke-linecap="round"/>
<path opacity="0.76" d="M1254 161.715L1188 222.286" stroke="#288ED7" stroke-width="3.5" stroke-linecap="round"/>
<path opacity="0.76" d="M1254 161.715L1320 222.286" stroke="#288ED7" stroke-width="3.5" stroke-linecap="round"/>
<path opacity="0.76" d="M1386 161.715L1320 222.286" stroke="#288ED7" stroke-width="3.5" stroke-linecap="round"/>
<path opacity="0.68" d="M66 222.285L0 282.857" stroke="#5190BD" stroke-width="3.5" stroke-linecap="round"/>
<path opacity="0.68" d="M132 222.285L66 282.857" stroke="#5190BD" stroke-width="3.5" stroke-linecap="round"/>
<path opacity="0.68" d="M197.996 222.285L131.996 282.857" stroke="#5190BD" stroke-width="3.5" stroke-linecap="round"/>
<path opacity="0.68" d="M263.996 222.285L197.996 282.857" stroke="#5190BD" stroke-width="3.5" stroke-linecap="round"/>
<path opacity="0.68" d="M264.004 222.285L330.004 282.857" stroke="#5190BD" stroke-width="3.5" stroke-linecap="round"/>
<path opacity="0.68" d="M330.004 222.285L396.004 282.857" stroke="#5190BD" stroke-width="3.5" stroke-linecap="round"/>
<path opacity="0.68" d="M396 222.285L462 282.857" stroke="#5190BD" stroke-width="3.5" stroke-linecap="round"/>
<path opacity="0.68" d="M528 222.285L462 282.857" stroke="#5190BD" stroke-width="3.5" stroke-linecap="round"/>
<path opacity="0.68" d="M528 222.285L594 282.857" stroke="#5190BD" stroke-width="3.5" stroke-linecap="round"/>
<path opacity="0.68" d="M593.996 222.285L659.996 282.857" stroke="#5190BD" stroke-width="3.5" stroke-linecap="round"/>
<path opacity="0.68" d="M725.996 222.285L659.996 282.857" stroke="#5190BD" stroke-width="3.5" stroke-linecap="round"/>
<path opacity="0.68" d="M726.004 222.285L792.004 282.857" stroke="#5190BD" stroke-width="3.5" stroke-linecap="round"/>
<path opacity="0.68" d="M858.004 222.285L792.004 282.857" stroke="#5190BD" stroke-width="3.5" stroke-linecap="round"/>
<path opacity="0.68" d="M858 222.285L924 282.857" stroke="#5190BD" stroke-width="3.5" stroke-linecap="round"/>
<path opacity="0.68" d="M990 222.285L924 282.857" stroke="#5190BD" stroke-width="3.5" stroke-linecap="round"/>
<path opacity="0.68" d="M990 222.285L1056 282.857" stroke="#5190BD" stroke-width="3.5" stroke-linecap="round"/>
<path opacity="0.68" d="M1122 222.285L1056 282.857" stroke="#5190BD" stroke-width="3.5" stroke-linecap="round"/>
<path opacity="0.68" d="M1188 222.285L1122 282.857" stroke="#5190BD" stroke-width="3.5" stroke-linecap="round"/>
<path opacity="0.68" d="M1254 222.285L1188 282.857" stroke="#5190BD" stroke-width="3.5" stroke-linecap="round"/>
<path opacity="0.68" d="M1320 222.285L1254 282.857" stroke="#5190BD" stroke-width="3.5" stroke-linecap="round"/>
<path opacity="0.68" d="M1386 222.285L1320 282.857" stroke="#5190BD" stroke-width="3.5" stroke-linecap="round"/>
<path opacity="0.6" d="M66 282.857L0 343.429" stroke="#5190BD" stroke-width="3.5" stroke-linecap="round"/>
<path opacity="0.6" d="M66 282.857L132 343.429" stroke="#5190BD" stroke-width="3.5" stroke-linecap="round"/>
<path opacity="0.6" d="M197.996 282.857L131.996 343.429" stroke="#5190BD" stroke-width="3.5" stroke-linecap="round"/>
<path opacity="0.6" d="M197.996 282.857L263.996 343.429" stroke="#5190BD" stroke-width="3.5" stroke-linecap="round"/>
<path opacity="0.6" d="M264.004 282.857L330.004 343.429" stroke="#5190BD" stroke-width="3.5" stroke-linecap="round"/>
<path opacity="0.6" d="M330.004 282.857L396.004 343.429" stroke="#5190BD" stroke-width="3.5" stroke-linecap="round"/>
<path opacity="0.6" d="M396 282.857L462 343.429" stroke="#5190BD" stroke-width="3.5" stroke-linecap="round"/>
<path opacity="0.6" d="M462 282.857L528 343.429" stroke="#5190BD" stroke-width="3.5" stroke-linecap="round"/>
<path opacity="0.6" d="M528 282.857L594 343.429" stroke="#5190BD" stroke-width="3.5" stroke-linecap="round"/>
<path opacity="0.6" d="M593.996 282.857L659.996 343.429" stroke="#5190BD" stroke-width="3.5" stroke-linecap="round"/>
<path opacity="0.6" d="M659.996 282.857L725.996 343.429" stroke="#5190BD" stroke-width="3.5" stroke-linecap="round"/>
<path opacity="0.6" d="M792.004 282.857L726.004 343.429" stroke="#5190BD" stroke-width="3.5" stroke-linecap="round"/>
<path opacity="0.6" d="M858.004 282.857L792.004 343.429" stroke="#5190BD" stroke-width="3.5" stroke-linecap="round"/>
<path opacity="0.6" d="M858 282.857L924 343.429" stroke="#5190BD" stroke-width="3.5" stroke-linecap="round"/>
<path opacity="0.6" d="M990 282.857L924 343.429" stroke="#5190BD" stroke-width="3.5" stroke-linecap="round"/>
<path opacity="0.6" d="M1056 282.857L990 343.429" stroke="#5190BD" stroke-width="3.5" stroke-linecap="round"/>
<path opacity="0.6" d="M1056 282.857L1122 343.429" stroke="#5190BD" stroke-width="3.5" stroke-linecap="round"/>
<path opacity="0.6" d="M1188 282.857L1122 343.429" stroke="#5190BD" stroke-width="3.5" stroke-linecap="round"/>
<path opacity="0.6" d="M1188 282.857L1254 343.429" stroke="#5190BD" stroke-width="3.5" stroke-linecap="round"/>
<path opacity="0.6" d="M1320 282.857L1254 343.429" stroke="#5190BD" stroke-width="3.5" stroke-linecap="round"/>
<path opacity="0.6" d="M1386 282.857L1320 343.429" stroke="#5190BD" stroke-width="3.5" stroke-linecap="round"/>
<path opacity="0.52" d="M66 343.428L0 403.999" stroke="#5DA3D6" stroke-width="3.5" stroke-linecap="round"/>
<path opacity="0.52" d="M132 343.428L66 403.999" stroke="#5DA3D6" stroke-width="3.5" stroke-linecap="round"/>
<path opacity="0.52" d="M197.996 343.428L131.996 403.999" stroke="#5DA3D6" stroke-width="3.5" stroke-linecap="round"/>
<path opacity="0.52" d="M197.996 343.428L263.996 403.999" stroke="#5DA3D6" stroke-width="3.5" stroke-linecap="round"/>
<path opacity="0.52" d="M264.004 343.428L330.004 403.999" stroke="#5DA3D6" stroke-width="3.5" stroke-linecap="round"/>
<path opacity="0.52" d="M396.004 343.428L330.004 403.999" stroke="#5DA3D6" stroke-width="3.5" stroke-linecap="round"/>
<path opacity="0.52" d="M396 343.428L462 403.999" stroke="#5DA3D6" stroke-width="3.5" stroke-linecap="round"/>
<path opacity="0.52" d="M462 343.428L528 403.999" stroke="#5DA3D6" stroke-width="3.5" stroke-linecap="round"/>
<path opacity="0.52" d="M528 343.428L594 403.999" stroke="#5DA3D6" stroke-width="3.5" stroke-linecap="round"/>
<path opacity="0.52" d="M593.996 343.428L659.996 403.999" stroke="#5DA3D6" stroke-width="3.5" stroke-linecap="round"/>
<path opacity="0.52" d="M725.996 343.428L659.996 403.999" stroke="#5DA3D6" stroke-width="3.5" stroke-linecap="round"/>
<path opacity="0.52" d="M726.004 343.428L792.004 403.999" stroke="#5DA3D6" stroke-width="3.5" stroke-linecap="round"/>
<path opacity="0.52" d="M792.004 343.428L858.004 403.999" stroke="#5DA3D6" stroke-width="3.5" stroke-linecap="round"/>
<path opacity="0.52" d="M858 343.428L924 403.999" stroke="#5DA3D6" stroke-width="3.5" stroke-linecap="round"/>
<path opacity="0.52" d="M990 343.428L924 403.999" stroke="#5DA3D6" stroke-width="3.5" stroke-linecap="round"/>
<path opacity="0.52" d="M990 343.428L1056 403.999" stroke="#5DA3D6" stroke-width="3.5" stroke-linecap="round"/>
<path opacity="0.52" d="M1056 343.428L1122 403.999" stroke="#5DA3D6" stroke-width="3.5" stroke-linecap="round"/>
<path opacity="0.52" d="M1188 343.428L1122 403.999" stroke="#5DA3D6" stroke-width="3.5" stroke-linecap="round"/>
<path opacity="0.52" d="M1254 343.428L1188 403.999" stroke="#5DA3D6" stroke-width="3.5" stroke-linecap="round"/>
<path opacity="0.52" d="M1320 343.428L1254 403.999" stroke="#5DA3D6" stroke-width="3.5" stroke-linecap="round"/>
<path opacity="0.52" d="M1320 343.428L1386 403.999" stroke="#5DA3D6" stroke-width="3.5" stroke-linecap="round"/>
<path opacity="0.43" d="M0 404L66 464.571" stroke="#5DA3D6" stroke-width="3.5" stroke-linecap="round"/>
<path opacity="0.43" d="M132 404L66 464.571" stroke="#5DA3D6" stroke-width="3.5" stroke-linecap="round"/>
<path opacity="0.43" d="M131.996 404L197.996 464.571" stroke="#5DA3D6" stroke-width="3.5" stroke-linecap="round"/>
<path opacity="0.43" d="M197.996 404L263.996 464.571" stroke="#5DA3D6" stroke-width="3.5" stroke-linecap="round"/>
<path opacity="0.43" d="M330.004 404L264.004 464.571" stroke="#5DA3D6" stroke-width="3.5" stroke-linecap="round"/>
<path opacity="0.43" d="M396.004 404L330.004 464.571" stroke="#5DA3D6" stroke-width="3.5" stroke-linecap="round"/>
<path opacity="0.43" d="M396 404L462 464.571" stroke="#5DA3D6" stroke-width="3.5" stroke-linecap="round"/>
<path opacity="0.43" d="M528 404L462 464.571" stroke="#5DA3D6" stroke-width="3.5" stroke-linecap="round"/>
<path opacity="0.43" d="M594 404L528 464.571" stroke="#5DA3D6" stroke-width="3.5" stroke-linecap="round"/>
<path opacity="0.43" d="M593.996 404L659.996 464.571" stroke="#5DA3D6" stroke-width="3.5" stroke-linecap="round"/>
<path opacity="0.43" d="M725.996 404L659.996 464.571" stroke="#5DA3D6" stroke-width="3.5" stroke-linecap="round"/>
<path opacity="0.43" d="M792.004 404L726.004 464.571" stroke="#5DA3D6" stroke-width="3.5" stroke-linecap="round"/>
<path opacity="0.43" d="M858.004 404L792.004 464.571" stroke="#5DA3D6" stroke-width="3.5" stroke-linecap="round"/>
<path opacity="0.43" d="M924 404L858 464.571" stroke="#5DA3D6" stroke-width="3.5" stroke-linecap="round"/>
<path opacity="0.43" d="M924 404L990 464.571" stroke="#5DA3D6" stroke-width="3.5" stroke-linecap="round"/>
<path opacity="0.43" d="M990 404L1056 464.571" stroke="#5DA3D6" stroke-width="3.5" stroke-linecap="round"/>
<path opacity="0.43" d="M1056 404L1122 464.571" stroke="#5DA3D6" stroke-width="3.5" stroke-linecap="round"/>
<path opacity="0.43" d="M1122 404L1188 464.571" stroke="#5DA3D6" stroke-width="3.5" stroke-linecap="round"/>
<path opacity="0.43" d="M1254 404L1188 464.571" stroke="#5DA3D6" stroke-width="3.5" stroke-linecap="round"/>
<path opacity="0.43" d="M1254 404L1320 464.571" stroke="#5DA3D6" stroke-width="3.5" stroke-linecap="round"/>
<path opacity="0.43" d="M1320 404L1386 464.571" stroke="#5DA3D6" stroke-width="3.5" stroke-linecap="round"/>
<path opacity="0.35" d="M66 464.572L0 525.144" stroke="#76C0F5" stroke-width="3.5" stroke-linecap="round"/>
<path opacity="0.35" d="M66 464.572L132 525.144" stroke="#76C0F5" stroke-width="3.5" stroke-linecap="round"/>
<path opacity="0.35" d="M197.996 464.572L131.996 525.144" stroke="#76C0F5" stroke-width="3.5" stroke-linecap="round"/>
<path opacity="0.35" d="M197.996 464.572L263.996 525.144" stroke="#76C0F5" stroke-width="3.5" stroke-linecap="round"/>
<path opacity="0.35" d="M330.004 464.572L264.004 525.144" stroke="#76C0F5" stroke-width="3.5" stroke-linecap="round"/>
<path opacity="0.35" d="M330.004 464.572L396.004 525.144" stroke="#76C0F5" stroke-width="3.5" stroke-linecap="round"/>
<path opacity="0.35" d="M462 464.572L396 525.144" stroke="#76C0F5" stroke-width="3.5" stroke-linecap="round"/>
<path opacity="0.35" d="M528 464.572L462 525.144" stroke="#76C0F5" stroke-width="3.5" stroke-linecap="round"/>
<path opacity="0.35" d="M528 464.572L594 525.144" stroke="#76C0F5" stroke-width="3.5" stroke-linecap="round"/>
<path opacity="0.35" d="M659.996 464.572L593.996 525.144" stroke="#76C0F5" stroke-width="3.5" stroke-linecap="round"/>
<path opacity="0.35" d="M725.996 464.572L659.996 525.144" stroke="#76C0F5" stroke-width="3.5" stroke-linecap="round"/>
<path opacity="0.35" d="M726.004 464.572L792.004 525.144" stroke="#76C0F5" stroke-width="3.5" stroke-linecap="round"/>
<path opacity="0.35" d="M792.004 464.572L858.004 525.144" stroke="#76C0F5" stroke-width="3.5" stroke-linecap="round"/>
<path opacity="0.35" d="M924 464.572L858 525.144" stroke="#76C0F5" stroke-width="3.5" stroke-linecap="round"/>
<path opacity="0.35" d="M990 464.572L924 525.144" stroke="#76C0F5" stroke-width="3.5" stroke-linecap="round"/>
<path opacity="0.35" d="M1056 464.572L990 525.144" stroke="#76C0F5" stroke-width="3.5" stroke-linecap="round"/>
<path opacity="0.35" d="M1122 464.572L1056 525.144" stroke="#76C0F5" stroke-width="3.5" stroke-linecap="round"/>
<path opacity="0.35" d="M1122 464.572L1188 525.144" stroke="#76C0F5" stroke-width="3.5" stroke-linecap="round"/>
<path opacity="0.35" d="M1188 464.572L1254 525.144" stroke="#76C0F5" stroke-width="3.5" stroke-linecap="round"/>
<path opacity="0.35" d="M1254 464.572L1320 525.144" stroke="#76C0F5" stroke-width="3.5" stroke-linecap="round"/>
<path opacity="0.35" d="M1386 464.572L1320 525.144" stroke="#76C0F5" stroke-width="3.5" stroke-linecap="round"/>
<path opacity="0.27" d="M0 525.143L66 585.714" stroke="#76C0F5" stroke-width="3.5" stroke-linecap="round"/>
<path opacity="0.27" d="M66 525.143L132 585.714" stroke="#76C0F5" stroke-width="3.5" stroke-linecap="round"/>
<path opacity="0.27" d="M131.996 525.143L197.996 585.714" stroke="#76C0F5" stroke-width="3.5" stroke-linecap="round"/>
<path opacity="0.27" d="M197.996 525.143L263.996 585.714" stroke="#76C0F5" stroke-width="3.5" stroke-linecap="round"/>
<path opacity="0.27" d="M330.004 525.143L264.004 585.714" stroke="#76C0F5" stroke-width="3.5" stroke-linecap="round"/>
<path opacity="0.27" d="M396.004 525.143L330.004 585.714" stroke="#76C0F5" stroke-width="3.5" stroke-linecap="round"/>
<path opacity="0.27" d="M396 525.143L462 585.714" stroke="#76C0F5" stroke-width="3.5" stroke-linecap="round"/>
<path opacity="0.27" d="M528 525.143L462 585.714" stroke="#76C0F5" stroke-width="3.5" stroke-linecap="round"/>
<path opacity="0.27" d="M594 525.143L528 585.714" stroke="#76C0F5" stroke-width="3.5" stroke-linecap="round"/>
<path opacity="0.27" d="M659.996 525.143L593.996 585.714" stroke="#76C0F5" stroke-width="3.5" stroke-linecap="round"/>
<path opacity="0.27" d="M659.996 525.143L725.996 585.714" stroke="#76C0F5" stroke-width="3.5" stroke-linecap="round"/>
<path opacity="0.27" d="M792.004 525.143L726.004 585.714" stroke="#76C0F5" stroke-width="3.5" stroke-linecap="round"/>
<path opacity="0.27" d="M858.004 525.143L792.004 585.714" stroke="#76C0F5" stroke-width="3.5" stroke-linecap="round"/>
<path opacity="0.27" d="M858 525.143L924 585.714" stroke="#76C0F5" stroke-width="3.5" stroke-linecap="round"/>
<path opacity="0.27" d="M924 525.143L990 585.714" stroke="#76C0F5" stroke-width="3.5" stroke-linecap="round"/>
<path opacity="0.27" d="M990 525.143L1056 585.714" stroke="#76C0F5" stroke-width="3.5" stroke-linecap="round"/>
<path opacity="0.27" d="M1122 525.143L1056 585.714" stroke="#76C0F5" stroke-width="3.5" stroke-linecap="round"/>
<path opacity="0.27" d="M1122 525.143L1188 585.714" stroke="#76C0F5" stroke-width="3.5" stroke-linecap="round"/>
<path opacity="0.27" d="M1254 525.143L1188 585.714" stroke="#76C0F5" stroke-width="3.5" stroke-linecap="round"/>
<path opacity="0.27" d="M1254 525.143L1320 585.714" stroke="#76C0F5" stroke-width="3.5" stroke-linecap="round"/>
<path opacity="0.27" d="M1386 525.143L1320 585.714" stroke="#76C0F5" stroke-width="3.5" stroke-linecap="round"/>
<path opacity="0.19" d="M0 585.715L66 646.286" stroke="#76C0F5" stroke-width="3.5" stroke-linecap="round"/>
<path opacity="0.19" d="M66 585.715L132 646.286" stroke="#76C0F5" stroke-width="3.5" stroke-linecap="round"/>
<path opacity="0.19" d="M197.996 585.715L131.996 646.286" stroke="#76C0F5" stroke-width="3.5" stroke-linecap="round"/>
<path opacity="0.19" d="M197.996 585.715L263.996 646.286" stroke="#76C0F5" stroke-width="3.5" stroke-linecap="round"/>
<path opacity="0.19" d="M330.004 585.715L264.004 646.286" stroke="#76C0F5" stroke-width="3.5" stroke-linecap="round"/>
<path opacity="0.19" d="M396.004 585.715L330.004 646.286" stroke="#76C0F5" stroke-width="3.5" stroke-linecap="round"/>
<path opacity="0.19" d="M396 585.715L462 646.286" stroke="#76C0F5" stroke-width="3.5" stroke-linecap="round"/>
<path opacity="0.19" d="M462 585.715L528 646.286" stroke="#76C0F5" stroke-width="3.5" stroke-linecap="round"/>
<path opacity="0.19" d="M594 585.715L528 646.286" stroke="#76C0F5" stroke-width="3.5" stroke-linecap="round"/>
<path opacity="0.19" d="M593.996 585.715L659.996 646.286" stroke="#76C0F5" stroke-width="3.5" stroke-linecap="round"/>
<path opacity="0.19" d="M725.996 585.715L659.996 646.286" stroke="#76C0F5" stroke-width="3.5" stroke-linecap="round"/>
<path opacity="0.19" d="M726.004 585.715L792.004 646.286" stroke="#76C0F5" stroke-width="3.5" stroke-linecap="round"/>
<path opacity="0.19" d="M858.004 585.715L792.004 646.286" stroke="#76C0F5" stroke-width="3.5" stroke-linecap="round"/>
<path opacity="0.19" d="M858 585.715L924 646.286" stroke="#76C0F5" stroke-width="3.5" stroke-linecap="round"/>
<path opacity="0.19" d="M990 585.715L924 646.286" stroke="#76C0F5" stroke-width="3.5" stroke-linecap="round"/>
<path opacity="0.19" d="M990 585.715L1056 646.286" stroke="#76C0F5" stroke-width="3.5" stroke-linecap="round"/>
<path opacity="0.19" d="M1056 585.715L1122 646.286" stroke="#76C0F5" stroke-width="3.5" stroke-linecap="round"/>
<path opacity="0.19" d="M1122 585.715L1188 646.286" stroke="#76C0F5" stroke-width="3.5" stroke-linecap="round"/>
<path opacity="0.19" d="M1188 585.715L1254 646.286" stroke="#76C0F5" stroke-width="3.5" stroke-linecap="round"/>
<path opacity="0.19" d="M1320 585.715L1254 646.286" stroke="#76C0F5" stroke-width="3.5" stroke-linecap="round"/>
<path opacity="0.19" d="M1320 585.715L1386 646.286" stroke="#76C0F5" stroke-width="3.5" stroke-linecap="round"/>
<path opacity="0.11" d="M0 646.285L66 706.857" stroke="#76C0F5" stroke-width="3.5" stroke-linecap="round"/>
<path opacity="0.11" d="M132 646.285L66 706.857" stroke="#76C0F5" stroke-width="3.5" stroke-linecap="round"/>
<path opacity="0.11" d="M197.996 646.285L131.996 706.857" stroke="#76C0F5" stroke-width="3.5" stroke-linecap="round"/>
<path opacity="0.11" d="M263.996 646.285L197.996 706.857" stroke="#76C0F5" stroke-width="3.5" stroke-linecap="round"/>
<path opacity="0.11" d="M264.004 646.285L330.004 706.857" stroke="#76C0F5" stroke-width="3.5" stroke-linecap="round"/>
<path opacity="0.11" d="M396.004 646.285L330.004 706.857" stroke="#76C0F5" stroke-width="3.5" stroke-linecap="round"/>
<path opacity="0.11" d="M396 646.285L462 706.857" stroke="#76C0F5" stroke-width="3.5" stroke-linecap="round"/>
<path opacity="0.11" d="M528 646.285L462 706.857" stroke="#76C0F5" stroke-width="3.5" stroke-linecap="round"/>
<path opacity="0.11" d="M528 646.285L594 706.857" stroke="#76C0F5" stroke-width="3.5" stroke-linecap="round"/>
<path opacity="0.11" d="M659.996 646.285L593.996 706.857" stroke="#76C0F5" stroke-width="3.5" stroke-linecap="round"/>
<path opacity="0.11" d="M725.996 646.285L659.996 706.857" stroke="#76C0F5" stroke-width="3.5" stroke-linecap="round"/>
<path opacity="0.11" d="M726.004 646.285L792.004 706.857" stroke="#76C0F5" stroke-width="3.5" stroke-linecap="round"/>
<path opacity="0.11" d="M792.004 646.285L858.004 706.857" stroke="#76C0F5" stroke-width="3.5" stroke-linecap="round"/>
<path opacity="0.11" d="M924 646.285L858 706.857" stroke="#76C0F5" stroke-width="3.5" stroke-linecap="round"/>
<path opacity="0.11" d="M990 646.285L924 706.857" stroke="#76C0F5" stroke-width="3.5" stroke-linecap="round"/>
<path opacity="0.11" d="M990 646.285L1056 706.857" stroke="#76C0F5" stroke-width="3.5" stroke-linecap="round"/>
<path opacity="0.11" d="M1122 646.285L1056 706.857" stroke="#76C0F5" stroke-width="3.5" stroke-linecap="round"/>
<path opacity="0.11" d="M1188 646.285L1122 706.857" stroke="#76C0F5" stroke-width="3.5" stroke-linecap="round"/>
<path opacity="0.11" d="M1188 646.285L1254 706.857" stroke="#76C0F5" stroke-width="3.5" stroke-linecap="round"/>
<path opacity="0.11" d="M1254 646.285L1320 706.857" stroke="#76C0F5" stroke-width="3.5" stroke-linecap="round"/>
<path opacity="0.11" d="M1320 646.285L1386 706.857" stroke="#76C0F5" stroke-width="3.5" stroke-linecap="round"/>
</g>
</g>
<defs>
<linearGradient id="paint0_linear_1_159933" x1="693" y1="1.29431e-07" x2="697.431" y2="1767.05" gradientUnits="userSpaceOnUse">
<stop offset="0.0339996" stop-color="white"/>
<stop offset="1" stop-color="#0062F4" stop-opacity="0.01"/>
</linearGradient>
<clipPath id="clip0_1_159933">
<rect width="1386" height="707" rx="35" fill="white"/>
</clipPath>
</defs>
</svg>
