<svg width="777" height="859" viewBox="0 0 777 859" fill="none" xmlns="http://www.w3.org/2000/svg">
<g opacity="0.2" clip-path="url(#clip0_1_162281)">
<path d="M-100.797 165.677L10.2372 148.13" stroke="#288ED7" stroke-width="3.5" stroke-linecap="round"/>
<path d="M-7.31114 37.0952L10.2359 148.129" stroke="#288ED7" stroke-width="3.5" stroke-linecap="round"/>
<path d="M39.4389 -27.1958L56.9859 83.8383" stroke="#A9DBFF" stroke-width="3.5" stroke-linecap="round"/>
<path d="M86.181 -91.4868L103.728 19.5473" stroke="#288ED7" stroke-width="3.5" stroke-linecap="round"/>
<path opacity="0.92" d="M-83.25 276.71L27.7841 259.163" stroke="#288ED7" stroke-width="3.5" stroke-linecap="round"/>
<path opacity="0.92" d="M10.2357 148.128L27.7827 259.162" stroke="#288ED7" stroke-width="3.5" stroke-linecap="round"/>
<path opacity="0.92" d="M56.9857 83.8393L74.5327 194.873" stroke="#A9DBFF" stroke-width="3.5" stroke-linecap="round"/>
<path opacity="0.92" d="M56.9844 83.8389L81 80.0225" stroke="#A9DBFF" stroke-width="3.5" stroke-linecap="round"/>
<path opacity="0.92" d="M103.727 19.5479L214.761 2.00085" stroke="#288ED7" stroke-width="3.5" stroke-linecap="round"/>
<path opacity="0.92" d="M150.469 -44.7432L261.503 -62.2902" stroke="#288ED7" stroke-width="3.5" stroke-linecap="round"/>
<path opacity="0.84" d="M-112.445 452.034L-1.41122 434.487" stroke="#288ED7" stroke-width="3.5" stroke-linecap="round"/>
<path opacity="0.84" d="M-18.9596 323.455L-1.41258 434.489" stroke="#288ED7" stroke-width="3.5" stroke-linecap="round"/>
<path opacity="0.84" d="M27.7826 259.164L45.3296 370.198" stroke="#288ED7" stroke-width="3.5" stroke-linecap="round"/>
<path opacity="0.84" d="M74.5326 194.874L92.0796 305.908" stroke="#A9DBFF" stroke-width="3.5" stroke-linecap="round"/>
<path opacity="0.84" d="M129.499 187.022L138.826 241.615" stroke="#F2FAFF" stroke-width="3.5" stroke-linecap="round"/>
<path opacity="0.84" d="M214.759 2.00144L232.306 113.036" stroke="#288ED7" stroke-width="3.5" stroke-linecap="round"/>
<path opacity="0.84" d="M214.758 2.00098L325.792 -15.546" stroke="#288ED7" stroke-width="3.5" stroke-linecap="round"/>
<path opacity="0.76" d="M-48.1549 498.779L-30.6079 609.813" stroke="#288ED7" stroke-width="3.5" stroke-linecap="round"/>
<path opacity="0.76" d="M-48.1562 498.778L62.8778 481.231" stroke="#288ED7" stroke-width="3.5" stroke-linecap="round"/>
<path opacity="0.76" d="M45.3295 370.197L62.8765 481.231" stroke="#288ED7" stroke-width="3.5" stroke-linecap="round"/>
<path opacity="0.76" d="M45.3359 370.198L156.37 352.651" stroke="#288ED7" stroke-width="3.5" stroke-linecap="round"/>
<path opacity="0.76" d="M92.0781 305.907L203.112 288.36" stroke="#288ED7" stroke-width="3.5" stroke-linecap="round"/>
<path opacity="0.76" d="M138.82 241.617L249.854 224.07" stroke="#A9DBFF" stroke-width="3.5" stroke-linecap="round"/>
<path opacity="0.76" d="M232.306 113.035L249.853 224.069" stroke="#C7E8FF" stroke-width="3.5" stroke-linecap="round"/>
<path opacity="0.76" d="M279.048 48.7436L296.595 159.778" stroke="#288ED7" stroke-width="3.5" stroke-linecap="round"/>
<path opacity="0.76" d="M325.79 -15.5454L343.337 95.4887" stroke="#288ED7" stroke-width="3.5" stroke-linecap="round"/>
<path opacity="0.76" d="M372.54 -79.8364L390.087 31.1976" stroke="#288ED7" stroke-width="3.5" stroke-linecap="round"/>
<path opacity="0.68" d="M-30.608 609.812L-13.061 720.846" stroke="#288ED7" stroke-width="3.5" stroke-linecap="round"/>
<path opacity="0.68" d="M16.1342 545.521L33.6812 656.555" stroke="#288ED7" stroke-width="3.5" stroke-linecap="round"/>
<path opacity="0.68" d="M16.1328 545.522L127.167 527.975" stroke="#288ED7" stroke-width="3.5" stroke-linecap="round"/>
<path opacity="0.68" d="M62.8828 481.231L173.917 463.684" stroke="#288ED7" stroke-width="3.5" stroke-linecap="round"/>
<path opacity="0.68" d="M109.625 416.94L220.659 399.393" stroke="#288ED7" stroke-width="3.5" stroke-linecap="round"/>
<path opacity="0.68" d="M203.111 288.359L220.658 399.393" stroke="#288ED7" stroke-width="3.5" stroke-linecap="round"/>
<path opacity="0.68" d="M203.109 288.36L314.143 270.813" stroke="#A9DBFF" stroke-width="3.5" stroke-linecap="round"/>
<path opacity="0.68" d="M249.852 224.069L360.886 206.522" stroke="#C7E8FF" stroke-width="3.5" stroke-linecap="round"/>
<path opacity="0.68" d="M343.345 95.4878L360.892 206.522" stroke="#288ED7" stroke-width="3.5" stroke-linecap="round"/>
<path opacity="0.68" d="M343.344 95.4883L454.378 77.9413" stroke="#288ED7" stroke-width="3.5" stroke-linecap="round"/>
<path opacity="0.68" d="M436.829 -33.0923L454.376 77.9418" stroke="#288ED7" stroke-width="3.5" stroke-linecap="round"/>
<path opacity="0.68" d="M436.828 -33.0928L547.862 -50.6398" stroke="#288ED7" stroke-width="3.5" stroke-linecap="round"/>
<path opacity="0.6" d="M-59.8033 785.136L-42.2563 896.17" stroke="#288ED7" stroke-width="3.5" stroke-linecap="round"/>
<path opacity="0.6" d="M-59.8047 785.138L51.2294 767.591" stroke="#288ED7" stroke-width="3.5" stroke-linecap="round"/>
<path opacity="0.6" d="M33.681 656.556L51.228 767.59" stroke="#288ED7" stroke-width="3.5" stroke-linecap="round"/>
<path opacity="0.6" d="M33.6797 656.556L144.714 639.009" stroke="#288ED7" stroke-width="3.5" stroke-linecap="round"/>
<path opacity="0.6" d="M80.4297 592.265L191.464 574.718" stroke="#288ED7" stroke-width="3.5" stroke-linecap="round"/>
<path opacity="0.6" d="M127.172 527.976L238.206 510.429" stroke="#288ED7" stroke-width="3.5" stroke-linecap="round"/>
<path opacity="0.6" d="M173.914 463.685L284.948 446.138" stroke="#288ED7" stroke-width="3.5" stroke-linecap="round"/>
<path opacity="0.6" d="M220.656 399.394L331.69 381.847" stroke="#A9DBFF" stroke-width="3.5" stroke-linecap="round"/>
<path opacity="0.6" d="M267.398 335.103L378.433 317.556" stroke="#A9DBFF" stroke-width="3.5" stroke-linecap="round"/>
<path opacity="0.6" d="M314.148 270.813L425.183 253.266" stroke="#A9DBFF" stroke-width="3.5" stroke-linecap="round"/>
<path opacity="0.6" d="M360.891 206.522L471.925 188.975" stroke="#288ED7" stroke-width="3.5" stroke-linecap="round"/>
<path opacity="0.6" d="M454.376 77.9409L471.923 188.975" stroke="#288ED7" stroke-width="3.5" stroke-linecap="round"/>
<path opacity="0.6" d="M501.119 13.6499L518.666 124.684" stroke="#288ED7" stroke-width="3.5" stroke-linecap="round"/>
<path opacity="0.6" d="M501.117 13.6514L612.151 -3.89564" stroke="#288ED7" stroke-width="3.5" stroke-linecap="round"/>
<path opacity="0.52" d="M4.48573 831.88L22.0327 942.914" stroke="#288ED7" stroke-width="3.5" stroke-linecap="round"/>
<path opacity="0.52" d="M51.2279 767.589L68.7749 878.623" stroke="#288ED7" stroke-width="3.5" stroke-linecap="round"/>
<path opacity="0.52" d="M97.9701 703.3L115.517 814.334" stroke="#288ED7" stroke-width="3.5" stroke-linecap="round"/>
<path opacity="0.52" d="M97.9766 703.3L209.011 685.753" stroke="#288ED7" stroke-width="3.5" stroke-linecap="round"/>
<path opacity="0.52" d="M144.719 639.009L255.753 621.462" stroke="#288ED7" stroke-width="3.5" stroke-linecap="round"/>
<path opacity="0.52" d="M238.204 510.427L255.751 621.461" stroke="#288ED7" stroke-width="3.5" stroke-linecap="round"/>
<path opacity="0.52" d="M238.203 510.429L349.237 492.882" stroke="#288ED7" stroke-width="3.5" stroke-linecap="round"/>
<path opacity="0.52" d="M284.945 446.138L395.979 428.591" stroke="#288ED7" stroke-width="3.5" stroke-linecap="round"/>
<path opacity="0.52" d="M331.695 381.847L442.729 364.3" stroke="#A9DBFF" stroke-width="3.5" stroke-linecap="round"/>
<path opacity="0.52" d="M378.438 317.556L489.472 300.009" stroke="#A9DBFF" stroke-width="3.5" stroke-linecap="round"/>
<path opacity="0.52" d="M471.923 188.976L489.47 300.01" stroke="#288ED7" stroke-width="3.5" stroke-linecap="round"/>
<path opacity="0.52" d="M471.922 188.976L582.956 171.429" stroke="#288ED7" stroke-width="3.5" stroke-linecap="round"/>
<path opacity="0.52" d="M518.664 124.685L629.698 107.138" stroke="#288ED7" stroke-width="3.5" stroke-linecap="round"/>
<path opacity="0.52" d="M565.406 60.3936L676.44 42.8466" stroke="#288ED7" stroke-width="3.5" stroke-linecap="round"/>
<path opacity="0.52" d="M658.9 -68.188L676.447 42.8461" stroke="#288ED7" stroke-width="3.5" stroke-linecap="round"/>
<path opacity="0.43" d="M115.525 814.333L133.072 925.368" stroke="#288ED7" stroke-width="3.5" stroke-linecap="round"/>
<path opacity="0.43" d="M115.523 814.333L226.558 796.786" stroke="#288ED7" stroke-width="3.5" stroke-linecap="round"/>
<path opacity="0.43" d="M162.266 750.044L273.3 732.497" stroke="#288ED7" stroke-width="3.5" stroke-linecap="round"/>
<path opacity="0.43" d="M255.751 621.462L273.298 732.496" stroke="#288ED7" stroke-width="3.5" stroke-linecap="round"/>
<path opacity="0.43" d="M302.494 557.171L320.041 668.205" stroke="#288ED7" stroke-width="3.5" stroke-linecap="round"/>
<path opacity="0.43" d="M302.492 557.171L413.526 539.624" stroke="#288ED7" stroke-width="3.5" stroke-linecap="round"/>
<path opacity="0.43" d="M395.986 428.591L413.533 539.625" stroke="#A9DBFF" stroke-width="3.5" stroke-linecap="round"/>
<path opacity="0.43" d="M442.728 364.3L460.275 475.334" stroke="#A9DBFF" stroke-width="3.5" stroke-linecap="round"/>
<path opacity="0.43" d="M442.727 364.3L553.761 346.753" stroke="#A9DBFF" stroke-width="3.5" stroke-linecap="round"/>
<path opacity="0.43" d="M536.212 235.718L553.759 346.752" stroke="#288ED7" stroke-width="3.5" stroke-linecap="round"/>
<path opacity="0.43" d="M582.954 171.427L600.501 282.461" stroke="#288ED7" stroke-width="3.5" stroke-linecap="round"/>
<path opacity="0.43" d="M629.697 107.138L647.244 218.172" stroke="#288ED7" stroke-width="3.5" stroke-linecap="round"/>
<path opacity="0.43" d="M676.447 42.8471L693.994 153.881" stroke="#288ED7" stroke-width="3.5" stroke-linecap="round"/>
<path opacity="0.43" d="M676.445 42.8467L787.479 25.2997" stroke="#288ED7" stroke-width="3.5" stroke-linecap="round"/>
<path opacity="0.43" d="M723.188 -21.4443L834.222 -38.9913" stroke="#288ED7" stroke-width="3.5" stroke-linecap="round"/>
<path opacity="0.35" d="M133.07 925.368L244.104 907.821" stroke="#288ED7" stroke-width="3.5" stroke-linecap="round"/>
<path opacity="0.35" d="M226.556 796.787L244.103 907.821" stroke="#288ED7" stroke-width="3.5" stroke-linecap="round"/>
<path opacity="0.35" d="M226.555 796.786L337.589 779.239" stroke="#288ED7" stroke-width="3.5" stroke-linecap="round"/>
<path opacity="0.35" d="M320.04 668.207L337.587 779.241" stroke="#288ED7" stroke-width="3.5" stroke-linecap="round"/>
<path opacity="0.35" d="M320.039 668.206L431.073 650.659" stroke="#288ED7" stroke-width="3.5" stroke-linecap="round"/>
<path opacity="0.35" d="M413.533 539.624L431.08 650.659" stroke="#288ED7" stroke-width="3.5" stroke-linecap="round"/>
<path opacity="0.35" d="M460.275 475.333L477.822 586.368" stroke="#A9DBFF" stroke-width="3.5" stroke-linecap="round"/>
<path opacity="0.35" d="M460.273 475.333L571.308 457.786" stroke="#288ED7" stroke-width="3.5" stroke-linecap="round"/>
<path opacity="0.35" d="M553.759 346.753L571.306 457.787" stroke="#288ED7" stroke-width="3.5" stroke-linecap="round"/>
<path opacity="0.35" d="M600.501 282.462L618.048 393.496" stroke="#288ED7" stroke-width="3.5" stroke-linecap="round"/>
<path opacity="0.35" d="M600.5 282.462L711.534 264.915" stroke="#288ED7" stroke-width="3.5" stroke-linecap="round"/>
<path opacity="0.35" d="M647.25 218.171L758.284 200.624" stroke="#288ED7" stroke-width="3.5" stroke-linecap="round"/>
<path opacity="0.35" d="M740.736 89.5913L758.283 200.625" stroke="#288ED7" stroke-width="3.5" stroke-linecap="round"/>
<path opacity="0.35" d="M787.478 25.3003L805.025 136.334" stroke="#288ED7" stroke-width="3.5" stroke-linecap="round"/>
<path opacity="0.27" d="M244.102 907.821L355.136 890.274" stroke="#288ED7" stroke-width="3.5" stroke-linecap="round"/>
<path opacity="0.27" d="M290.844 843.53L401.878 825.983" stroke="#288ED7" stroke-width="3.5" stroke-linecap="round"/>
<path opacity="0.27" d="M384.329 714.949L401.876 825.983" stroke="#288ED7" stroke-width="3.5" stroke-linecap="round"/>
<path opacity="0.27" d="M431.079 650.658L448.626 761.692" stroke="#288ED7" stroke-width="3.5" stroke-linecap="round"/>
<path opacity="0.27" d="M431.078 650.659L542.112 633.112" stroke="#288ED7" stroke-width="3.5" stroke-linecap="round"/>
<path opacity="0.27" d="M524.564 522.078L542.111 633.112" stroke="#A9DBFF" stroke-width="3.5" stroke-linecap="round"/>
<path opacity="0.27" d="M571.306 457.787L588.853 568.821" stroke="#288ED7" stroke-width="3.5" stroke-linecap="round"/>
<path opacity="0.27" d="M618.048 393.496L635.595 504.53" stroke="#288ED7" stroke-width="3.5" stroke-linecap="round"/>
<path opacity="0.27" d="M618.047 393.497L729.081 375.95" stroke="#288ED7" stroke-width="3.5" stroke-linecap="round"/>
<path opacity="0.27" d="M711.54 264.916L729.087 375.95" stroke="#288ED7" stroke-width="3.5" stroke-linecap="round"/>
<path opacity="0.27" d="M758.283 200.624L775.83 311.659" stroke="#288ED7" stroke-width="3.5" stroke-linecap="round"/>
<path opacity="0.27" d="M758.281 200.624L869.315 183.077" stroke="#288ED7" stroke-width="3.5" stroke-linecap="round"/>
<path opacity="0.19" d="M355.133 890.274L466.167 872.727" stroke="#288ED7" stroke-width="3.5" stroke-linecap="round"/>
<path opacity="0.19" d="M448.626 761.693L466.173 872.727" stroke="#288ED7" stroke-width="3.5" stroke-linecap="round"/>
<path opacity="0.19" d="M495.369 697.402L512.916 808.436" stroke="#288ED7" stroke-width="3.5" stroke-linecap="round"/>
<path opacity="0.19" d="M495.367 697.401L606.401 679.854" stroke="#288ED7" stroke-width="3.5" stroke-linecap="round"/>
<path opacity="0.19" d="M542.109 633.112L653.143 615.565" stroke="#288ED7" stroke-width="3.5" stroke-linecap="round"/>
<path opacity="0.19" d="M635.595 504.531L653.142 615.565" stroke="#288ED7" stroke-width="3.5" stroke-linecap="round"/>
<path opacity="0.19" d="M635.594 504.53L746.628 486.983" stroke="#288ED7" stroke-width="3.5" stroke-linecap="round"/>
<path opacity="0.19" d="M729.087 375.949L746.634 486.983" stroke="#288ED7" stroke-width="3.5" stroke-linecap="round"/>
<path opacity="0.19" d="M729.086 375.95L840.12 358.403" stroke="#288ED7" stroke-width="3.5" stroke-linecap="round"/>
<path opacity="0.19" d="M822.572 247.369L840.119 358.403" stroke="#288ED7" stroke-width="3.5" stroke-linecap="round"/>
<path opacity="0.11" d="M466.172 872.728L577.206 855.181" stroke="#288ED7" stroke-width="3.5" stroke-linecap="round"/>
<path opacity="0.11" d="M559.658 744.146L577.205 855.18" stroke="#288ED7" stroke-width="3.5" stroke-linecap="round"/>
<path opacity="0.11" d="M559.656 744.146L670.69 726.599" stroke="#288ED7" stroke-width="3.5" stroke-linecap="round"/>
<path opacity="0.11" d="M653.142 615.564L670.689 726.598" stroke="#288ED7" stroke-width="3.5" stroke-linecap="round"/>
<path opacity="0.11" d="M653.141 615.565L764.175 598.018" stroke="#288ED7" stroke-width="3.5" stroke-linecap="round"/>
<path opacity="0.11" d="M746.634 486.984L764.181 598.018" stroke="#288ED7" stroke-width="3.5" stroke-linecap="round"/>
<path opacity="0.11" d="M793.376 422.693L810.923 533.727" stroke="#288ED7" stroke-width="3.5" stroke-linecap="round"/>
</g>
<defs>
<clipPath id="clip0_1_162281">
<rect width="761.249" height="935.145" fill="white" transform="translate(-428 615.71) rotate(-53.9803)"/>
</clipPath>
</defs>
</svg>
