<svg width="24" height="24" viewBox="0 0 24 24" fill="none" xmlns="http://www.w3.org/2000/svg">
<rect width="24" height="24" fill="black"/>
<g id="CSI/bootcamp webpage">
<path d="M-15338 -4563C-15338 -4564.1 -15337.1 -4565 -15336 -4565H13811C13812.1 -4565 13813 -4564.1 13813 -4563V10537C13813 10538.1 13812.1 10539 13811 10539H-15336C-15337.1 10539 -15338 10538.1 -15338 10537V-4563Z" fill="#444444"/>
<path d="M-15336 -4564H13811V-4566H-15336V-4564ZM13812 -4563V10537H13814V-4563H13812ZM13811 10538H-15336V10540H13811V10538ZM-15337 10537V-4563H-15339V10537H-15337ZM-15336 10538C-15336.6 10538 -15337 10537.6 -15337 10537H-15339C-15339 10538.7 -15337.7 10540 -15336 10540V10538ZM13812 10537C13812 10537.6 13811.6 10538 13811 10538V10540C13812.7 10540 13814 10538.7 13814 10537H13812ZM13811 -4564C13811.6 -4564 13812 -4563.55 13812 -4563H13814C13814 -4564.66 13812.7 -4566 13811 -4566V-4564ZM-15336 -4566C-15337.7 -4566 -15339 -4564.66 -15339 -4563H-15337C-15337 -4563.55 -15336.6 -4564 -15336 -4564V-4566Z" fill="white" fill-opacity="0.1"/>
<g id="Bootcamp" clip-path="url(#clip0_0_1)">
<rect width="1440" height="4572" transform="translate(-1067 -4149)" fill="white"/>
<g id="Frame 150">
<rect width="1440" height="570" transform="translate(-1067 -147)" fill="#002567"/>
<g id="Frame 162">
<g id="mdi:instagram">
<path id="Vector" d="M7.8 2H16.2C19.4 2 22 4.6 22 7.8V16.2C22 17.7383 21.3889 19.2135 20.3012 20.3012C19.2135 21.3889 17.7383 22 16.2 22H7.8C4.6 22 2 19.4 2 16.2V7.8C2 6.26174 2.61107 4.78649 3.69878 3.69878C4.78649 2.61107 6.26174 2 7.8 2ZM7.6 4C6.64522 4 5.72955 4.37928 5.05442 5.05442C4.37928 5.72955 4 6.64522 4 7.6V16.4C4 18.39 5.61 20 7.6 20H16.4C17.3548 20 18.2705 19.6207 18.9456 18.9456C19.6207 18.2705 20 17.3548 20 16.4V7.6C20 5.61 18.39 4 16.4 4H7.6ZM17.25 5.5C17.5815 5.5 17.8995 5.6317 18.1339 5.86612C18.3683 6.10054 18.5 6.41848 18.5 6.75C18.5 7.08152 18.3683 7.39946 18.1339 7.63388C17.8995 7.8683 17.5815 8 17.25 8C16.9185 8 16.6005 7.8683 16.3661 7.63388C16.1317 7.39946 16 7.08152 16 6.75C16 6.41848 16.1317 6.10054 16.3661 5.86612C16.6005 5.6317 16.9185 5.5 17.25 5.5ZM12 7C13.3261 7 14.5979 7.52678 15.5355 8.46447C16.4732 9.40215 17 10.6739 17 12C17 13.3261 16.4732 14.5979 15.5355 15.5355C14.5979 16.4732 13.3261 17 12 17C10.6739 17 9.40215 16.4732 8.46447 15.5355C7.52678 14.5979 7 13.3261 7 12C7 10.6739 7.52678 9.40215 8.46447 8.46447C9.40215 7.52678 10.6739 7 12 7ZM12 9C11.2044 9 10.4413 9.31607 9.87868 9.87868C9.31607 10.4413 9 11.2044 9 12C9 12.7956 9.31607 13.5587 9.87868 14.1213C10.4413 14.6839 11.2044 15 12 15C12.7956 15 13.5587 14.6839 14.1213 14.1213C14.6839 13.5587 15 12.7956 15 12C15 11.2044 14.6839 10.4413 14.1213 9.87868C13.5587 9.31607 12.7956 9 12 9Z" fill="white"/>
</g>
</g>
</g>
</g>
</g>
<defs>
<clipPath id="clip0_0_1">
<rect width="1440" height="4572" fill="white" transform="translate(-1067 -4149)"/>
</clipPath>
</defs>
</svg>
