<svg width="24" height="24" viewBox="0 0 24 24" fill="none" xmlns="http://www.w3.org/2000/svg">
<rect width="24" height="24" fill="black"/>
<g id="CSI/bootcamp webpage">
<path d="M-15403 -4563C-15403 -4564.1 -15402.1 -4565 -15401 -4565H13746C13747.1 -4565 13748 -4564.1 13748 -4563V10537C13748 10538.1 13747.1 10539 13746 10539H-15401C-15402.1 10539 -15403 10538.1 -15403 10537V-4563Z" fill="#444444"/>
<path d="M-15401 -4564H13746V-4566H-15401V-4564ZM13747 -4563V10537H13749V-4563H13747ZM13746 10538H-15401V10540H13746V10538ZM-15402 10537V-4563H-15404V10537H-15402ZM-15401 10538C-15401.6 10538 -15402 10537.6 -15402 10537H-15404C-15404 10538.7 -15402.7 10540 -15401 10540V10538ZM13747 10537C13747 10537.6 13746.6 10538 13746 10538V10540C13747.7 10540 13749 10538.7 13749 10537H13747ZM13746 -4564C13746.6 -4564 13747 -4563.55 13747 -4563H13749C13749 -4564.66 13747.7 -4566 13746 -4566V-4564ZM-15401 -4566C-15402.7 -4566 -15404 -4564.66 -15404 -4563H-15402C-15402 -4563.55 -15401.6 -4564 -15401 -4564V-4566Z" fill="white" fill-opacity="0.1"/>
<g id="Bootcamp" clip-path="url(#clip0_0_1)">
<rect width="1440" height="4572" transform="translate(-1132 -4149)" fill="white"/>
<g id="Frame 150">
<rect width="1440" height="570" transform="translate(-1132 -147)" fill="#002567"/>
<g id="Frame 162">
<g id="mdi:linkedin">
<path id="Vector" d="M19 3C19.5304 3 20.0391 3.21071 20.4142 3.58579C20.7893 3.96086 21 4.46957 21 5V19C21 19.5304 20.7893 20.0391 20.4142 20.4142C20.0391 20.7893 19.5304 21 19 21H5C4.46957 21 3.96086 20.7893 3.58579 20.4142C3.21071 20.0391 3 19.5304 3 19V5C3 4.46957 3.21071 3.96086 3.58579 3.58579C3.96086 3.21071 4.46957 3 5 3H19ZM18.5 18.5V13.2C18.5 12.3354 18.1565 11.5062 17.5452 10.8948C16.9338 10.2835 16.1046 9.94 15.24 9.94C14.39 9.94 13.4 10.46 12.92 11.24V10.13H10.13V18.5H12.92V13.57C12.92 12.8 13.54 12.17 14.31 12.17C14.6813 12.17 15.0374 12.3175 15.2999 12.5801C15.5625 12.8426 15.71 13.1987 15.71 13.57V18.5H18.5ZM6.88 8.56C7.32556 8.56 7.75288 8.383 8.06794 8.06794C8.383 7.75288 8.56 7.32556 8.56 6.88C8.56 5.95 7.81 5.19 6.88 5.19C6.43178 5.19 6.00193 5.36805 5.68499 5.68499C5.36805 6.00193 5.19 6.43178 5.19 6.88C5.19 7.81 5.95 8.56 6.88 8.56ZM8.27 18.5V10.13H5.5V18.5H8.27Z" fill="white"/>
</g>
</g>
</g>
</g>
</g>
<defs>
<clipPath id="clip0_0_1">
<rect width="1440" height="4572" fill="white" transform="translate(-1132 -4149)"/>
</clipPath>
</defs>
</svg>
