<svg width="18" height="18" viewBox="0 0 18 18" fill="none" xmlns="http://www.w3.org/2000/svg">
<path fill-rule="evenodd" clip-rule="evenodd" d="M15.3747 2.61579C13.7052 0.943435 11.4311 0 9.06139 0H9.03423C4.09491 3.51897e-05 0.0750059 4.00092 0.0750059 8.91903L0.0750413 8.91956C0.075337 10.4844 0.489289 12.0217 1.27535 13.3771L0 18L4.75189 16.7589C6.06528 17.4712 7.53694 17.845 9.03271 17.8463H9.03282H9.03469C13.9853 17.8463 18 13.8512 18 8.92501C18 6.55939 17.0543 4.28958 15.3742 2.61772L15.3747 2.61579ZM9.03731 16.3439C7.70223 16.3439 6.38996 15.9843 5.24306 15.3066L4.97005 15.1446L2.15013 15.8797L2.90009 13.1446L2.72384 12.8639C1.976 11.6813 1.57753 10.3097 1.57753 8.91185C1.57753 4.81679 4.91485 1.49588 9.03006 1.49588C11.0108 1.49588 12.9115 2.28085 14.309 3.67693C15.7069 5.06866 16.4923 6.9558 16.4925 8.92353C16.4925 13.021 13.1541 16.3439 9.03632 16.3439H9.03731ZM13.1247 10.787C12.8997 10.6743 11.7995 10.137 11.5955 10.0623C11.3915 9.9877 11.2415 9.94966 11.0893 10.1751C10.937 10.4004 10.5103 10.8997 10.3798 11.0497C10.2493 11.1997 10.1181 11.2191 9.89604 11.1064C9.67403 10.9937 8.94879 10.7586 8.09607 9.99893C7.60488 9.54823 7.18295 9.02811 6.84382 8.45526C6.71255 8.23135 6.82953 8.11121 6.94354 8.00227C7.05756 7.89332 7.16856 7.74253 7.27879 7.61194C7.37197 7.49948 7.44774 7.37379 7.5036 7.23904C7.53338 7.17762 7.54733 7.10978 7.5442 7.04165C7.54106 6.97352 7.52093 6.90724 7.48563 6.84879C7.42488 6.73688 6.97484 5.63978 6.79484 5.19276C6.61484 4.74575 6.42812 4.81965 6.29013 4.80916C6.15215 4.79871 6.01037 4.80247 5.86262 4.80247C5.74873 4.80513 5.63662 4.83124 5.53337 4.87915C5.43012 4.92706 5.33797 4.99574 5.26272 5.08086C5.0609 5.30248 4.48119 5.84352 4.48119 6.9406C4.48119 8.03767 5.28291 9.09593 5.3954 9.24664C5.50793 9.3974 6.97484 11.6475 9.22484 12.6125C9.75879 12.8408 10.1758 12.9782 10.4998 13.0841C10.789 13.1708 11.0895 13.2149 11.3915 13.215C11.565 13.215 11.7388 13.2003 11.9096 13.1715C12.3401 13.1087 13.2341 12.6334 13.4223 12.1132C13.6105 11.593 13.6098 11.143 13.5535 11.0542C13.4973 10.9654 13.3518 10.9005 13.1261 10.7863L13.1247 10.787Z" fill="white"/>
</svg>
