<svg width="507" height="414" viewBox="0 0 507 414" fill="none" xmlns="http://www.w3.org/2000/svg">
<path d="M455.304 152.132C458.106 162.525 455.466 174.056 447.9 186.141C440.333 198.227 427.93 210.705 411.558 222.827C378.824 247.066 330.538 269.657 274.457 284.775C218.377 299.893 165.279 304.632 124.797 300.131C104.55 297.879 87.556 293.327 74.939 286.681C62.3249 280.037 54.2469 271.395 51.4451 261.002C48.6434 250.609 51.2833 239.078 58.8488 226.994C66.4161 214.907 78.8195 202.43 95.1912 190.307C127.925 166.068 176.211 143.477 232.292 128.359C288.372 113.241 341.47 108.502 381.952 113.004C402.199 115.255 419.193 119.807 431.81 126.453C444.424 133.097 452.502 141.739 455.304 152.132Z" stroke="#E94A47" stroke-width="3.60568"/>
<ellipse cx="244.404" cy="206.203" rx="203.391" ry="74.9944" transform="rotate(5.19406 244.404 206.203)" fill="#E94A47"/>
<path d="M175.78 161.37L167.095 163.883L168.273 157.571L178.788 154.277L183.966 155.243L177.524 189.764L170.718 188.494L175.78 161.37ZM195.143 193.46C192.973 193.055 191.143 192.289 189.652 191.16C188.162 190.031 187.094 188.641 186.45 186.99C185.844 185.312 185.723 183.503 186.085 181.563L192.841 182.824C192.626 183.975 192.829 184.982 193.451 185.847C194.078 186.678 195.016 187.211 196.266 187.444L200.507 188.235C201.92 188.499 203.134 188.283 204.149 187.588C205.169 186.86 205.814 185.773 206.084 184.326L206.83 180.331C205.873 180.901 204.776 181.309 203.54 181.555C202.303 181.8 201.159 181.825 200.107 181.628L196.802 181.012C194.567 180.595 192.674 179.799 191.124 178.625C189.613 177.425 188.528 175.946 187.869 174.19C187.243 172.44 187.123 170.53 187.51 168.458L187.878 166.486C188.264 164.415 189.114 162.685 190.428 161.297C191.748 159.876 193.428 158.897 195.467 158.359C197.507 157.821 199.743 157.779 202.176 158.233L205.628 158.877C207.963 159.313 209.935 160.14 211.544 161.359C213.187 162.584 214.351 164.095 215.037 165.89C215.722 167.685 215.869 169.634 215.476 171.738L212.89 185.596C212.491 187.733 211.662 189.535 210.401 191C209.147 192.434 207.563 193.448 205.649 194.043C203.741 194.606 201.652 194.675 199.384 194.252L195.143 193.46ZM201.273 175.926C202.752 176.202 204.131 176.017 205.408 175.371C206.718 174.731 207.683 173.754 208.302 172.441L208.744 170.074C208.996 168.726 208.738 167.555 207.971 166.561C207.21 165.535 206.073 164.88 204.561 164.598L201.109 163.954C199.465 163.647 198.05 163.842 196.866 164.54C195.681 165.237 194.953 166.309 194.683 167.756L194.315 169.729C194.051 171.142 194.231 172.367 194.855 173.401C195.517 174.41 196.506 175.036 197.821 175.282L201.273 175.926ZM242.82 202.358C239.204 201.683 236.563 200.153 234.899 197.767C233.241 195.348 232.75 192.33 233.425 188.714L240.132 189.966C239.813 191.675 239.988 193.103 240.659 194.249C241.369 195.368 242.496 196.072 244.042 196.36L249.516 197.382C250.962 197.652 252.185 197.573 253.183 197.147C254.22 196.694 254.834 195.958 255.024 194.939L255.337 193.263C255.637 191.652 254.641 190.428 252.347 189.592L243.559 186.369C240.692 185.324 238.614 183.967 237.327 182.297C236.078 180.602 235.657 178.669 236.062 176.499L236.577 173.737C236.902 171.995 237.648 170.552 238.814 169.408C240.019 168.238 241.544 167.451 243.388 167.047C245.266 166.649 247.339 166.662 249.607 167.085L255.18 168.125C257.317 168.524 259.124 169.32 260.603 170.515C262.081 171.709 263.113 173.195 263.7 174.971C264.326 176.721 264.443 178.648 264.05 180.752L257.344 179.501C257.601 178.12 257.429 176.948 256.826 175.985C256.229 174.989 255.306 174.375 254.057 174.141L248.484 173.101C247.103 172.844 245.93 172.931 244.965 173.363C244.033 173.802 243.475 174.514 243.291 175.5L243.042 176.832C242.735 178.476 243.679 179.707 245.874 180.524L254.604 183.787C257.498 184.871 259.608 186.235 260.935 187.877C262.267 189.487 262.737 191.344 262.345 193.448L261.737 196.702C261.412 198.445 260.631 199.898 259.393 201.062C258.188 202.232 256.643 203.033 254.76 203.464C252.882 203.862 250.793 203.846 248.491 203.416L242.82 202.358ZM270.671 207.147C269.257 206.884 268.186 206.241 267.458 205.221C266.73 204.2 266.495 203 266.752 201.619L272.33 171.734L298.664 176.648L297.56 182.566L278.031 178.922L276.54 186.911L294.589 190.279L293.485 196.197L275.435 192.829L273.797 201.607L293.326 205.251L292.222 211.169L270.671 207.147ZM304.283 177.697L322.48 181.093C324.486 181.467 326.187 182.193 327.585 183.271C328.99 184.315 329.984 185.64 330.569 187.247C331.16 188.82 331.284 190.527 330.94 192.368L330.084 196.954C329.728 198.861 328.968 200.472 327.805 201.785C326.647 203.066 325.186 203.968 323.421 204.489C321.696 204.983 319.781 205.034 317.677 204.642L306.68 202.589L304.646 213.488L297.84 212.218L304.283 177.697ZM318.683 198.705C319.834 198.92 320.838 198.733 321.697 198.145C322.561 197.524 323.107 196.605 323.334 195.388L324.079 191.394C324.294 190.243 324.134 189.278 323.599 188.497C323.103 187.69 322.329 187.189 321.277 186.992L309.984 184.885L307.784 196.671L318.683 198.705ZM147.139 224.175C145.067 223.788 143.3 223.05 141.836 221.961C140.412 220.844 139.393 219.463 138.782 217.818C138.203 216.179 138.095 214.39 138.457 212.45L139.534 206.68C139.896 204.74 140.658 203.114 141.822 201.8C142.992 200.453 144.443 199.516 146.174 198.989C147.939 198.467 149.857 198.4 151.928 198.787L156.366 199.615C158.438 200.001 160.185 200.753 161.61 201.869C163.068 202.992 164.099 204.392 164.705 206.07C165.316 207.715 165.441 209.508 165.079 211.448L164.002 217.218C163.64 219.157 162.877 220.784 161.714 222.098C160.55 223.412 159.086 224.329 157.321 224.85C155.596 225.345 153.681 225.396 151.577 225.003L147.139 224.175ZM152.555 219.215C153.772 219.442 154.818 219.212 155.695 218.525C156.578 217.805 157.145 216.771 157.397 215.423L158.289 210.64C158.541 209.292 158.382 208.139 157.812 207.182C157.248 206.193 156.374 205.587 155.191 205.366L150.95 204.575C149.766 204.354 148.733 204.604 147.85 205.323C146.973 206.01 146.409 207.028 146.158 208.376L145.265 213.159C145.013 214.507 145.169 215.676 145.733 216.666C146.303 217.623 147.163 218.209 148.314 218.423L152.555 219.215ZM172.554 203.044L178.768 204.204L178.216 207.163C179.13 206.279 180.217 205.648 181.478 205.271C182.745 204.861 183.954 204.763 185.105 204.978L188.064 205.53C190.694 206.021 192.645 207.236 193.916 209.174C195.22 211.119 195.621 213.439 195.118 216.135L192.127 232.163L185.42 230.911L188.365 215.13C188.555 214.111 188.429 213.237 187.987 212.508C187.577 211.785 186.945 211.344 186.09 211.184L183.131 210.632C181.981 210.417 180.865 210.651 179.785 211.334C178.744 211.99 177.95 212.965 177.402 214.258L174.669 228.904L167.962 227.653L172.554 203.044ZM205.571 234.671C203.368 234.26 202.193 232.714 202.047 230.033L200.941 208.342L207.895 209.64L207.985 225.834L208.084 225.852L216.266 211.814L218.88 212.302C219.636 212.443 220.214 212.721 220.613 213.136C221.012 213.551 221.278 214.128 221.412 214.867L223.569 228.742L223.668 228.761L229.544 213.68L236.498 214.978L227.741 234.828C226.67 237.282 225.017 238.301 222.782 237.883L219.724 237.313L217.158 220.708L208.579 235.233L205.571 234.671ZM243.584 242.174C241.019 241.695 239.068 240.668 237.729 239.091C236.39 237.514 235.917 235.674 236.31 233.57L236.65 231.745C237.037 229.674 238.168 228.167 240.045 227.224C241.929 226.249 244.218 226.013 246.914 226.516L249.922 227.077C250.777 227.237 251.676 227.524 252.62 227.938C253.563 228.352 254.409 228.833 255.157 229.381L255.636 226.817C255.789 225.995 255.632 225.285 255.165 224.688C254.738 224.063 254.08 223.668 253.192 223.503L248.951 222.711C248.03 222.539 247.251 222.615 246.612 222.938C245.973 223.261 245.587 223.784 245.452 224.508L238.942 223.293C239.39 220.893 240.62 219.132 242.632 218.011C244.684 216.863 247.14 216.555 250 217.089L254.241 217.881C257.134 218.421 259.325 219.629 260.812 221.505C262.305 223.349 262.815 225.537 262.343 228.068L259.241 244.688L253.027 243.528L253.579 240.569C252.6 241.441 251.477 242.082 250.21 242.492C248.948 242.869 247.759 242.953 246.641 242.745L243.584 242.174ZM248.091 237.708C249.308 237.935 250.451 237.825 251.521 237.378C252.591 236.931 253.438 236.222 254.062 235.25L254.218 234.411C253.766 233.919 253.084 233.468 252.174 233.06C251.296 232.658 250.331 232.359 249.279 232.163L246.173 231.583C245.383 231.436 244.706 231.513 244.139 231.816C243.572 232.118 243.227 232.598 243.105 233.256L242.865 234.538C242.749 235.163 242.917 235.721 243.369 236.214C243.854 236.713 244.541 237.045 245.428 237.211L248.091 237.708ZM270.244 221.275L276.458 222.435L275.869 225.591C276.671 224.754 277.703 224.147 278.964 223.77C280.264 223.367 281.555 223.284 282.838 223.524L286.191 224.15L285.105 229.969L281.752 229.343C280.009 229.018 278.497 229.28 277.216 230.13C275.935 230.979 275.141 232.226 274.834 233.87L272.358 247.136L265.651 245.884L270.244 221.275ZM293.45 251.48C290.524 250.934 288.323 249.605 286.846 247.492C285.402 245.385 284.95 242.885 285.49 239.992L286.539 234.37C286.913 232.365 287.669 230.685 288.806 229.333C289.949 227.947 291.37 226.987 293.068 226.454C294.773 225.887 296.645 225.794 298.683 226.175L301.396 226.681C302.349 226.859 303.279 227.253 304.186 227.865C305.098 228.444 305.819 229.139 306.348 229.953L308.547 218.166L315.254 219.418L308.812 253.939L302.598 252.779L303.205 249.524C302.345 250.487 301.292 251.209 300.045 251.69C298.805 252.139 297.576 252.25 296.36 252.023L293.45 251.48ZM298.176 246.391C299.524 246.643 300.731 246.375 301.797 245.587C302.901 244.772 303.67 243.572 304.102 241.986L304.903 237.695C304.912 236.37 304.592 235.256 303.944 234.352C303.336 233.422 302.505 232.859 301.453 232.662L298.445 232.101C297.13 231.856 295.978 232.1 294.991 232.834C294.036 233.575 293.424 234.668 293.154 236.115L292.289 240.751C292.043 242.066 292.205 243.202 292.775 244.159C293.351 245.083 294.215 245.652 295.365 245.867L298.176 246.391ZM324.15 257.21C321.158 256.651 318.905 255.414 317.392 253.499C315.878 251.583 315.36 249.343 315.839 246.779L322.447 248.012C322.282 248.9 322.442 249.678 322.93 250.348C323.456 250.99 324.213 251.403 325.199 251.588L329.638 252.416C331.61 252.784 332.698 252.426 332.9 251.341L333.057 250.502C333.118 250.174 333.009 249.847 332.729 249.523C332.456 249.165 332.049 248.885 331.508 248.682L323.253 245.611C321.308 244.908 319.846 243.903 318.865 242.597C317.923 241.265 317.59 239.859 317.866 238.379L318.169 236.752C318.562 234.648 319.724 233.163 321.654 232.299C323.618 231.44 326.145 231.3 329.235 231.876L333.082 232.594C335.843 233.11 337.924 234.264 339.325 236.056C340.765 237.822 341.261 239.904 340.813 242.304L334.204 241.071C334.339 240.348 334.2 239.727 333.787 239.207C333.406 238.694 332.821 238.363 332.032 238.216L328.284 237.517C326.147 237.118 324.987 237.412 324.803 238.398L324.656 239.187C324.588 239.549 324.661 239.886 324.875 240.198C325.128 240.483 325.508 240.724 326.016 240.921L334.688 244.223C336.5 244.902 337.881 245.891 338.829 247.191C339.783 248.457 340.135 249.765 339.883 251.113L339.552 252.888C339.153 255.025 337.949 256.553 335.941 257.471C333.965 258.395 331.514 258.584 328.588 258.038L324.15 257.21Z" fill="white"/>
</svg>
