<svg width="260" height="212" viewBox="0 0 260 212" fill="none" xmlns="http://www.w3.org/2000/svg">
<path d="M233.049 77.8689C234.483 83.1886 233.132 89.0907 229.26 95.2759C225.386 101.462 219.038 107.849 210.658 114.054C193.903 126.46 169.188 138.023 140.484 145.761C111.779 153.499 84.6014 155.925 63.881 153.621C53.5179 152.469 44.8195 150.138 38.3616 146.737C31.9051 143.336 27.7704 138.913 26.3363 133.593C24.9023 128.274 26.2535 122.371 30.1259 116.186C33.9992 110 40.3477 103.613 48.7275 97.4083C65.4823 85.0019 90.1971 73.4387 118.902 65.7007C147.606 57.9627 174.784 55.537 195.505 57.8411C205.868 58.9934 214.566 61.3236 221.024 64.7251C227.481 68.1259 231.615 72.5491 233.049 77.8689Z" stroke="#E94A47" stroke-width="1.84555"/>
<ellipse cx="125.093" cy="105.543" rx="104.105" ry="38.3854" transform="rotate(5.19406 125.093 105.543)" fill="#E94A47"/>
<path d="M89.7265 83.1117L85.281 84.3979L85.884 81.1669L91.2661 79.4809L93.9165 79.9755L90.619 97.6448L87.1356 96.9948L89.7265 83.1117ZM99.6372 99.5368C98.4256 99.3107 97.3932 98.9178 96.5398 98.358C95.6897 97.7814 95.0697 97.091 94.68 96.2869C94.3102 95.4691 94.2116 94.5974 94.3843 93.6719L94.6058 92.4855C94.7251 91.846 95.0869 91.2605 95.6911 90.729C96.2953 90.1974 97.0274 89.8203 97.8874 89.5977L97.8921 89.5725C97.3386 89.0861 96.9217 88.5207 96.6414 87.8763C96.378 87.235 96.2996 86.6283 96.4064 86.0562L96.6137 84.9455C96.7801 84.0537 97.1617 83.3151 97.7586 82.7299C98.3753 82.1311 99.1558 81.7282 100.1 81.5213C101.064 81.3007 102.118 81.2972 103.263 81.5107L105.433 81.9158C106.578 82.1294 107.551 82.5113 108.354 83.0617C109.177 83.5984 109.759 84.2556 110.102 85.0335C110.464 85.7977 110.562 86.6257 110.396 87.5176L110.189 88.6283C110.085 89.1836 109.785 89.7196 109.288 90.2364C108.811 90.7394 108.226 91.118 107.535 91.372L107.53 91.3972C108.252 91.915 108.798 92.5308 109.17 93.2445C109.542 93.9582 109.668 94.6348 109.549 95.2743L109.328 96.4606C109.155 97.3862 108.74 98.1621 108.083 98.7883C107.447 99.4009 106.628 99.8227 105.627 100.054C104.629 100.268 103.524 100.262 102.313 100.036L99.6372 99.5368ZM104.058 89.2865C104.748 89.4152 105.333 89.359 105.813 89.1178C106.31 88.8797 106.608 88.4998 106.705 87.9782L106.903 86.918C106.991 86.4468 106.843 86.0274 106.459 85.6597C106.091 85.2951 105.563 85.0484 104.873 84.9196L102.702 84.5145C102.012 84.3857 101.422 84.4236 100.931 84.628C100.457 84.8356 100.176 85.1749 100.088 85.6461L99.8898 86.7063C99.7924 87.2279 99.9243 87.6879 100.285 88.0861C100.663 88.4875 101.197 88.7526 101.887 88.8814L104.058 89.2865ZM102.873 97.0324C103.664 97.18 104.335 97.1311 104.886 96.8856C105.44 96.6233 105.77 96.206 105.877 95.6339L106.051 94.6999C106.161 94.1109 105.98 93.5895 105.508 93.1356C105.052 92.6849 104.386 92.3779 103.511 92.2146L101.341 91.8094C100.466 91.6461 99.7258 91.6909 99.1213 91.9438C98.5337 92.1998 98.1849 92.6223 98.075 93.2113L97.9007 94.1453C97.7939 94.7174 97.9516 95.2257 98.3736 95.6702C98.7988 96.0978 99.4069 96.3854 100.198 96.533L102.873 97.0324ZM124.312 104.142C122.461 103.796 121.109 103.013 120.258 101.792C119.409 100.554 119.157 99.0091 119.503 97.158L122.936 97.7987C122.772 98.6737 122.862 99.4045 123.206 99.991C123.569 100.564 124.146 100.924 124.937 101.072L127.739 101.595C128.479 101.733 129.105 101.693 129.616 101.475C130.147 101.243 130.461 100.866 130.558 100.344L130.718 99.4862C130.872 98.6616 130.362 98.0353 129.188 97.6073L124.69 95.958C123.222 95.4229 122.159 94.7282 121.5 93.8738C120.861 93.0058 120.645 92.0164 120.852 90.9058L121.116 89.4922C121.283 88.6003 121.664 87.8618 122.261 87.2766C122.878 86.6777 123.658 86.2748 124.603 86.0679C125.564 85.8642 126.625 85.8706 127.786 86.0873L130.638 86.6196C131.732 86.8238 132.657 87.2315 133.414 87.8429C134.17 88.4543 134.699 89.2147 134.999 90.124C135.32 91.0197 135.379 92.006 135.178 93.083L131.746 92.4424C131.877 91.7356 131.789 91.1357 131.481 90.6428C131.175 90.133 130.703 89.8185 130.063 89.6992L127.211 89.1668C126.504 89.0349 125.904 89.0796 125.41 89.3009C124.933 89.5253 124.647 89.8899 124.553 90.3947L124.425 91.0762C124.268 91.9176 124.752 92.5477 125.875 92.9663L130.344 94.6361C131.825 95.1911 132.905 95.889 133.584 96.7297C134.266 97.5535 134.506 98.504 134.305 99.581L133.994 101.247C133.828 102.139 133.428 102.883 132.794 103.478C132.178 104.077 131.387 104.487 130.423 104.708C129.462 104.911 128.393 104.903 127.215 104.683L124.312 104.142ZM138.567 106.593C137.843 106.458 137.295 106.129 136.923 105.607C136.55 105.085 136.429 104.47 136.561 103.763L139.416 88.4668L152.895 90.9823L152.33 94.0114L142.334 92.1459L141.571 96.2351L150.81 97.9593L150.244 100.988L141.006 99.2642L140.167 103.757L150.163 105.623L149.598 108.652L138.567 106.593ZM155.771 91.519L165.085 93.2573C166.112 93.4489 166.983 93.8204 167.698 94.3719C168.417 94.9065 168.926 95.5849 169.226 96.407C169.528 97.2122 169.591 98.086 169.415 99.0284L168.977 101.376C168.795 102.352 168.406 103.176 167.811 103.849C167.218 104.504 166.47 104.966 165.567 105.232C164.684 105.485 163.704 105.512 162.627 105.311L156.998 104.26L155.957 109.838L152.474 109.188L155.771 91.519ZM163.142 102.272C163.731 102.382 164.245 102.286 164.684 101.985C165.127 101.667 165.406 101.197 165.522 100.574L165.904 98.5298C166.014 97.9408 165.932 97.4466 165.658 97.0473C165.404 96.6342 165.008 96.3774 164.47 96.2769L158.689 95.1982L157.563 101.231L163.142 102.272ZM75.1953 115.321C74.1351 115.123 73.2304 114.745 72.4812 114.187C71.752 113.616 71.2308 112.909 70.9178 112.067C70.6216 111.228 70.5662 110.312 70.7514 109.319L71.3026 106.366C71.4879 105.373 71.8784 104.541 72.4741 103.868C73.0729 103.179 73.8154 102.699 74.7017 102.429C75.6047 102.162 76.5864 102.128 77.6465 102.326L79.9183 102.75C80.9785 102.948 81.8732 103.332 82.6024 103.904C83.3485 104.478 83.8764 105.195 84.1863 106.054C84.4994 106.896 84.5632 107.813 84.3779 108.806L83.8268 111.76C83.6415 112.752 83.251 113.585 82.6553 114.258C82.0596 114.93 81.3103 115.4 80.4072 115.666C79.5241 115.92 78.544 115.946 77.467 115.745L75.1953 115.321ZM77.9677 112.782C78.5903 112.898 79.126 112.78 79.5747 112.429C80.0266 112.06 80.3169 111.531 80.4457 110.841L80.9026 108.393C81.0314 107.703 80.9499 107.113 80.6582 106.623C80.3697 106.117 79.9225 105.807 79.3167 105.694L77.1459 105.289C76.5401 105.175 76.0112 105.303 75.5593 105.672C75.1106 106.023 74.8219 106.544 74.6931 107.234L74.2362 109.682C74.1074 110.372 74.1873 110.971 74.4759 111.477C74.7676 111.967 75.2079 112.267 75.7969 112.377L77.9677 112.782ZM88.2042 104.505L91.3846 105.099L91.102 106.613C91.5696 106.161 92.1261 105.838 92.7716 105.645C93.4203 105.435 94.0391 105.385 94.6281 105.495L96.1426 105.778C97.4888 106.029 98.4873 106.651 99.138 107.643C99.8055 108.638 100.011 109.826 99.753 111.205L98.222 119.409L94.7891 118.768L96.2966 110.691C96.3939 110.169 96.3294 109.722 96.103 109.349C95.8934 108.979 95.5699 108.753 95.1323 108.671L93.6178 108.389C93.0289 108.279 92.4579 108.399 91.9051 108.748C91.3722 109.084 90.9657 109.583 90.6855 110.245L89.2864 117.741L85.8535 117.101L88.2042 104.505ZM105.103 120.693C103.976 120.483 103.375 119.692 103.3 118.319L102.734 107.217L106.293 107.881L106.339 116.17L106.39 116.179L110.578 108.994L111.916 109.244C112.303 109.316 112.598 109.458 112.803 109.67C113.007 109.883 113.143 110.178 113.212 110.557L114.316 117.658L114.366 117.668L117.374 109.949L120.933 110.613L116.451 120.774C115.903 122.03 115.057 122.551 113.913 122.337L112.348 122.045L111.034 113.546L106.643 120.981L105.103 120.693ZM124.56 124.533C123.247 124.288 122.249 123.762 121.563 122.955C120.878 122.148 120.636 121.206 120.837 120.129L121.011 119.195C121.209 118.135 121.788 117.364 122.749 116.881C123.713 116.382 124.885 116.261 126.265 116.519L127.804 116.806C128.242 116.888 128.702 117.035 129.185 117.247C129.668 117.459 130.101 117.705 130.484 117.985L130.729 116.673C130.807 116.252 130.727 115.889 130.488 115.583C130.269 115.264 129.932 115.061 129.478 114.977L127.307 114.571C126.836 114.484 126.437 114.522 126.11 114.688C125.783 114.853 125.585 115.121 125.516 115.491L122.184 114.869C122.413 113.641 123.043 112.74 124.073 112.166C125.123 111.578 126.38 111.421 127.844 111.694L130.015 112.099C131.496 112.375 132.617 112.994 133.378 113.954C134.142 114.898 134.404 116.018 134.162 117.313L132.574 125.82L129.394 125.226L129.676 123.712C129.175 124.158 128.6 124.486 127.952 124.696C127.306 124.889 126.697 124.932 126.125 124.825L124.56 124.533ZM126.867 122.247C127.49 122.364 128.075 122.307 128.623 122.079C129.171 121.85 129.604 121.487 129.923 120.989L130.003 120.56C129.772 120.308 129.423 120.077 128.957 119.868C128.508 119.663 128.014 119.51 127.475 119.409L125.885 119.112C125.481 119.037 125.134 119.077 124.844 119.232C124.554 119.386 124.378 119.632 124.315 119.969L124.192 120.625C124.133 120.945 124.219 121.231 124.45 121.483C124.699 121.738 125.05 121.908 125.504 121.993L126.867 122.247ZM138.206 113.837L141.386 114.43L141.085 116.046C141.496 115.617 142.024 115.307 142.669 115.114C143.335 114.907 143.996 114.865 144.652 114.987L146.368 115.308L145.813 118.286L144.096 117.966C143.204 117.799 142.43 117.934 141.775 118.369C141.119 118.803 140.712 119.442 140.555 120.283L139.288 127.073L135.855 126.432L138.206 113.837ZM150.084 129.297C148.586 129.017 147.459 128.337 146.704 127.255C145.964 126.177 145.733 124.897 146.009 123.417L146.546 120.539C146.738 119.512 147.125 118.653 147.707 117.961C148.292 117.251 149.019 116.76 149.889 116.487C150.761 116.197 151.719 116.15 152.762 116.344L154.151 116.603C154.639 116.694 155.115 116.896 155.579 117.209C156.046 117.506 156.415 117.862 156.685 118.278L157.811 112.245L161.244 112.886L157.947 130.555L154.766 129.962L155.077 128.296C154.637 128.788 154.098 129.158 153.46 129.404C152.825 129.634 152.196 129.691 151.573 129.575L150.084 129.297ZM152.503 126.692C153.193 126.821 153.811 126.684 154.356 126.28C154.921 125.863 155.315 125.249 155.536 124.437L155.946 122.241C155.951 121.563 155.787 120.992 155.455 120.53C155.144 120.054 154.719 119.765 154.18 119.665L152.64 119.378C151.967 119.252 151.378 119.377 150.872 119.753C150.384 120.132 150.07 120.692 149.932 121.432L149.489 123.805C149.364 124.478 149.447 125.059 149.739 125.549C150.033 126.022 150.475 126.314 151.064 126.423L152.503 126.692ZM165.797 132.229C164.266 131.943 163.113 131.31 162.338 130.33C161.563 129.349 161.299 128.203 161.544 126.89L164.926 127.522C164.841 127.976 164.924 128.374 165.173 128.717C165.443 129.046 165.83 129.257 166.335 129.352L168.606 129.776C169.616 129.964 170.173 129.781 170.276 129.225L170.356 128.796C170.388 128.628 170.332 128.461 170.189 128.295C170.049 128.112 169.84 127.968 169.564 127.865L165.338 126.292C164.343 125.933 163.594 125.418 163.092 124.75C162.61 124.068 162.44 123.348 162.581 122.591L162.736 121.758C162.937 120.681 163.532 119.921 164.52 119.479C165.525 119.039 166.818 118.967 168.4 119.263L170.369 119.63C171.783 119.894 172.848 120.484 173.565 121.402C174.302 122.306 174.555 123.372 174.326 124.6L170.944 123.969C171.013 123.599 170.942 123.281 170.73 123.015C170.535 122.752 170.236 122.583 169.832 122.508L167.914 122.15C166.82 121.945 166.226 122.096 166.132 122.601L166.056 123.005C166.022 123.19 166.059 123.362 166.169 123.522C166.298 123.668 166.493 123.791 166.753 123.892L171.191 125.582C172.119 125.93 172.826 126.436 173.311 127.101C173.799 127.75 173.979 128.419 173.85 129.109L173.681 130.017C173.477 131.111 172.861 131.893 171.833 132.363C170.821 132.836 169.567 132.933 168.069 132.653L165.797 132.229Z" fill="white"/>
</svg>
