<svg width="260" height="212" viewBox="0 0 260 212" fill="none" xmlns="http://www.w3.org/2000/svg">
<path d="M233.049 77.8689C234.483 83.1886 233.132 89.0907 229.26 95.2759C225.386 101.462 219.038 107.849 210.658 114.054C193.903 126.46 169.188 138.023 140.484 145.761C111.779 153.499 84.6014 155.925 63.881 153.621C53.5179 152.469 44.8195 150.138 38.3616 146.737C31.9051 143.336 27.7704 138.913 26.3363 133.593C24.9023 128.274 26.2535 122.371 30.1259 116.186C33.9992 110 40.3477 103.613 48.7275 97.4083C65.4823 85.0019 90.1971 73.4387 118.902 65.7007C147.606 57.9627 174.784 55.537 195.505 57.8411C205.868 58.9934 214.566 61.3236 221.024 64.7251C227.481 68.1259 231.615 72.5491 233.049 77.8689Z" stroke="#E94A47" stroke-width="1.84555"/>
<ellipse cx="125.093" cy="105.543" rx="104.105" ry="38.3854" transform="rotate(5.19406 125.093 105.543)" fill="#E94A47"/>
<path d="M89.8621 83.137L85.4165 84.4232L86.0195 81.1922L91.4017 79.5062L94.0521 80.0008L90.7545 97.6701L87.2712 97.0201L89.8621 83.137ZM99.7728 99.5621C98.6622 99.3549 97.7254 98.9624 96.9625 98.3846C96.1996 97.8069 95.6532 97.0955 95.3234 96.2503C95.0135 95.3914 94.9512 94.4655 95.1365 93.4727L98.5946 94.118C98.4847 94.707 98.5887 95.2227 98.9067 95.6652C99.2278 96.0908 99.7081 96.3633 100.348 96.4826L102.518 96.8877C103.242 97.0228 103.863 96.9124 104.383 96.5565C104.905 96.1838 105.235 95.6272 105.373 94.8868L105.755 92.8422C105.265 93.1339 104.704 93.3426 104.071 93.4683C103.438 93.5939 102.852 93.6065 102.314 93.506L100.622 93.1904C99.478 92.9769 98.5092 92.5697 97.7158 91.9688C96.9424 91.3543 96.387 90.5976 96.0497 89.6988C95.7293 88.8031 95.668 87.8252 95.8659 86.7651L96.0543 85.7554C96.2521 84.6952 96.6873 83.81 97.3597 83.0996C98.0352 82.3724 98.895 81.8711 99.939 81.5957C100.983 81.3204 102.128 81.2989 103.373 81.5313L105.14 81.8611C106.335 82.084 107.344 82.5075 108.168 83.1314C109.009 83.7585 109.604 84.5314 109.955 85.4502C110.306 86.369 110.381 87.3669 110.18 88.4439L108.857 95.5369C108.653 96.6307 108.228 97.5528 107.583 98.3031C106.941 99.0366 106.13 99.5557 105.15 99.8604C104.174 100.148 103.105 100.184 101.944 99.9673L99.7728 99.5621ZM102.91 90.5874C103.668 90.7287 104.373 90.634 105.027 90.3032C105.698 89.9756 106.192 89.4757 106.509 88.8035L106.735 87.5919C106.863 86.9019 106.731 86.3026 106.339 85.794C105.949 85.2685 105.367 84.9336 104.593 84.7891L102.826 84.4594C101.985 84.3023 101.261 84.4023 100.655 84.7593C100.048 85.1163 99.6759 85.665 99.5377 86.4055L99.3493 87.4152C99.2142 88.1388 99.3062 88.7654 99.6253 89.2951C99.9644 89.8112 100.47 90.132 101.144 90.2576L102.91 90.5874ZM124.176 104.116C122.325 103.771 120.974 102.988 120.122 101.766C119.273 100.528 119.022 98.9838 119.367 97.1327L122.8 97.7734C122.637 98.6484 122.727 99.3792 123.07 99.9657C123.433 100.539 124.011 100.899 124.801 101.046L127.603 101.569C128.344 101.707 128.969 101.667 129.48 101.449C130.011 101.218 130.325 100.841 130.423 100.319L130.583 99.4609C130.737 98.6363 130.227 98.01 129.053 97.582L124.554 95.9327C123.087 95.3976 122.024 94.7029 121.365 93.8485C120.726 92.9805 120.51 91.9911 120.717 90.8805L120.981 89.4669C121.147 88.575 121.529 87.8365 122.126 87.2513C122.742 86.6524 123.523 86.2495 124.467 86.0426C125.428 85.8389 126.489 85.8453 127.65 86.062L130.502 86.5943C131.596 86.7985 132.521 87.2062 133.278 87.8176C134.035 88.429 134.563 89.1894 134.864 90.0987C135.184 90.9944 135.244 91.9807 135.043 93.0577L131.61 92.4171C131.742 91.7103 131.654 91.1104 131.345 90.6175C131.04 90.1077 130.567 89.7932 129.928 89.6739L127.075 89.1415C126.369 89.0096 125.768 89.0543 125.274 89.2756C124.797 89.5 124.511 89.8646 124.417 90.3694L124.29 91.0509C124.133 91.8923 124.616 92.5224 125.739 92.941L130.208 94.6108C131.689 95.1658 132.769 95.8637 133.448 96.7044C134.13 97.5282 134.371 98.4787 134.17 99.5557L133.859 101.222C133.692 102.114 133.292 102.857 132.659 103.453C132.042 104.052 131.252 104.462 130.287 104.682C129.326 104.886 128.257 104.878 127.079 104.658L124.176 104.116ZM138.431 106.568C137.708 106.433 137.16 106.104 136.787 105.582C136.414 105.059 136.294 104.445 136.426 103.738L139.281 88.4415L152.76 90.957L152.194 93.9861L142.199 92.1206L141.435 96.2098L150.674 97.934L150.109 100.963L140.87 99.2389L140.032 103.732L150.027 105.597L149.462 108.626L138.431 106.568ZM155.636 91.4937L164.95 93.232C165.976 93.4236 166.847 93.7951 167.563 94.3466C168.282 94.8812 168.791 95.5596 169.09 96.3817C169.392 97.1869 169.456 98.0607 169.28 99.0031L168.842 101.351C168.66 102.327 168.271 103.151 167.675 103.823C167.082 104.479 166.335 104.94 165.432 105.207C164.548 105.46 163.568 105.486 162.491 105.285L156.862 104.235L155.821 109.813L152.338 109.163L155.636 91.4937ZM163.006 102.247C163.595 102.357 164.109 102.261 164.549 101.96C164.991 101.642 165.27 101.172 165.387 100.549L165.768 98.5045C165.878 97.9155 165.796 97.4213 165.522 97.022C165.269 96.6089 164.873 96.3521 164.334 96.2516L158.554 95.1729L157.428 101.206L163.006 102.247ZM75.1953 115.321C74.1351 115.123 73.2304 114.745 72.4812 114.187C71.752 113.616 71.2308 112.909 70.9178 112.067C70.6216 111.228 70.5662 110.312 70.7514 109.319L71.3026 106.366C71.4879 105.373 71.8784 104.541 72.4741 103.868C73.0729 103.179 73.8154 102.699 74.7017 102.429C75.6047 102.162 76.5864 102.128 77.6465 102.326L79.9183 102.75C80.9785 102.948 81.8732 103.332 82.6024 103.904C83.3485 104.478 83.8764 105.195 84.1863 106.054C84.4994 106.896 84.5632 107.813 84.3779 108.806L83.8268 111.76C83.6415 112.752 83.251 113.585 82.6553 114.258C82.0596 114.93 81.3103 115.4 80.4072 115.666C79.5241 115.92 78.544 115.946 77.467 115.745L75.1953 115.321ZM77.9677 112.782C78.5903 112.898 79.126 112.78 79.5747 112.429C80.0266 112.06 80.3169 111.531 80.4457 110.841L80.9026 108.393C81.0314 107.703 80.9499 107.113 80.6582 106.623C80.3697 106.117 79.9225 105.807 79.3167 105.694L77.1459 105.289C76.5401 105.175 76.0112 105.303 75.5593 105.672C75.1106 106.023 74.8219 106.544 74.6931 107.234L74.2362 109.682C74.1074 110.372 74.1873 110.971 74.4759 111.477C74.7676 111.967 75.2079 112.267 75.7969 112.377L77.9677 112.782ZM88.2042 104.505L91.3846 105.099L91.102 106.613C91.5696 106.161 92.1261 105.838 92.7716 105.645C93.4203 105.435 94.0391 105.385 94.6281 105.495L96.1426 105.778C97.4888 106.029 98.4873 106.651 99.138 107.643C99.8055 108.638 100.011 109.826 99.753 111.205L98.222 119.409L94.7891 118.768L96.2966 110.691C96.3939 110.169 96.3294 109.722 96.103 109.349C95.8934 108.979 95.5699 108.753 95.1323 108.671L93.6178 108.389C93.0289 108.279 92.4579 108.399 91.9051 108.748C91.3722 109.084 90.9657 109.583 90.6855 110.245L89.2864 117.741L85.8535 117.101L88.2042 104.505ZM105.103 120.693C103.976 120.483 103.375 119.692 103.3 118.319L102.734 107.217L106.293 107.881L106.339 116.17L106.39 116.179L110.578 108.994L111.916 109.244C112.303 109.316 112.598 109.458 112.803 109.67C113.007 109.883 113.143 110.178 113.212 110.557L114.316 117.658L114.366 117.668L117.374 109.949L120.933 110.613L116.451 120.774C115.903 122.03 115.057 122.551 113.913 122.337L112.348 122.045L111.034 113.546L106.643 120.981L105.103 120.693ZM124.56 124.533C123.247 124.288 122.249 123.762 121.563 122.955C120.878 122.148 120.636 121.206 120.837 120.129L121.011 119.195C121.209 118.135 121.788 117.364 122.749 116.881C123.713 116.382 124.885 116.261 126.265 116.519L127.804 116.806C128.242 116.888 128.702 117.035 129.185 117.247C129.668 117.459 130.101 117.705 130.484 117.985L130.729 116.673C130.807 116.252 130.727 115.889 130.488 115.583C130.269 115.264 129.932 115.061 129.478 114.977L127.307 114.571C126.836 114.484 126.437 114.522 126.11 114.688C125.783 114.853 125.585 115.121 125.516 115.491L122.184 114.869C122.413 113.641 123.043 112.74 124.073 112.166C125.123 111.578 126.38 111.421 127.844 111.694L130.015 112.099C131.496 112.375 132.617 112.994 133.378 113.954C134.142 114.898 134.404 116.018 134.162 117.313L132.574 125.82L129.394 125.226L129.676 123.712C129.175 124.158 128.6 124.486 127.952 124.696C127.306 124.889 126.697 124.932 126.125 124.825L124.56 124.533ZM126.867 122.247C127.49 122.364 128.075 122.307 128.623 122.079C129.171 121.85 129.604 121.487 129.923 120.989L130.003 120.56C129.772 120.308 129.423 120.077 128.957 119.868C128.508 119.663 128.014 119.51 127.475 119.409L125.885 119.112C125.481 119.037 125.134 119.077 124.844 119.232C124.554 119.386 124.378 119.632 124.315 119.969L124.192 120.625C124.133 120.945 124.219 121.231 124.45 121.483C124.699 121.738 125.05 121.908 125.504 121.993L126.867 122.247ZM138.206 113.837L141.386 114.43L141.085 116.046C141.496 115.617 142.024 115.307 142.669 115.114C143.335 114.907 143.996 114.865 144.652 114.987L146.368 115.308L145.813 118.286L144.096 117.966C143.204 117.799 142.43 117.934 141.775 118.369C141.119 118.803 140.712 119.442 140.555 120.283L139.288 127.073L135.855 126.432L138.206 113.837ZM150.084 129.297C148.586 129.017 147.459 128.337 146.704 127.255C145.964 126.177 145.733 124.897 146.009 123.417L146.546 120.539C146.738 119.512 147.125 118.653 147.707 117.961C148.292 117.251 149.019 116.76 149.889 116.487C150.761 116.197 151.719 116.15 152.762 116.344L154.151 116.603C154.639 116.694 155.115 116.896 155.579 117.209C156.046 117.506 156.415 117.862 156.685 118.278L157.811 112.245L161.244 112.886L157.947 130.555L154.766 129.962L155.077 128.296C154.637 128.788 154.098 129.158 153.46 129.404C152.825 129.634 152.196 129.691 151.573 129.575L150.084 129.297ZM152.503 126.692C153.193 126.821 153.811 126.684 154.356 126.28C154.921 125.863 155.315 125.249 155.536 124.437L155.946 122.241C155.951 121.563 155.787 120.992 155.455 120.53C155.144 120.054 154.719 119.765 154.18 119.665L152.64 119.378C151.967 119.252 151.378 119.377 150.872 119.753C150.384 120.132 150.07 120.692 149.932 121.432L149.489 123.805C149.364 124.478 149.447 125.059 149.739 125.549C150.033 126.022 150.475 126.314 151.064 126.423L152.503 126.692ZM165.797 132.229C164.266 131.943 163.113 131.31 162.338 130.33C161.563 129.349 161.299 128.203 161.544 126.89L164.926 127.522C164.841 127.976 164.924 128.374 165.173 128.717C165.443 129.046 165.83 129.257 166.335 129.352L168.606 129.776C169.616 129.964 170.173 129.781 170.276 129.225L170.356 128.796C170.388 128.628 170.332 128.461 170.189 128.295C170.049 128.112 169.84 127.968 169.564 127.865L165.338 126.292C164.343 125.933 163.594 125.418 163.092 124.75C162.61 124.068 162.44 123.348 162.581 122.591L162.736 121.758C162.937 120.681 163.532 119.921 164.52 119.479C165.525 119.039 166.818 118.967 168.4 119.263L170.369 119.63C171.783 119.894 172.848 120.484 173.565 121.402C174.302 122.306 174.555 123.372 174.326 124.6L170.944 123.969C171.013 123.599 170.942 123.281 170.73 123.015C170.535 122.752 170.236 122.583 169.832 122.508L167.914 122.15C166.82 121.945 166.226 122.096 166.132 122.601L166.056 123.005C166.022 123.19 166.059 123.362 166.169 123.522C166.298 123.668 166.493 123.791 166.753 123.892L171.191 125.582C172.119 125.93 172.826 126.436 173.311 127.101C173.799 127.75 173.979 128.419 173.85 129.109L173.681 130.017C173.477 131.111 172.861 131.893 171.833 132.363C170.821 132.836 169.567 132.933 168.069 132.653L165.797 132.229Z" fill="white"/>
</svg>
