<svg xmlns="http://www.w3.org/2000/svg" width="175" height="406" viewBox="0 0 175 406" fill="none">
<path d="M56.5633 171.326C52.5699 168.202 48.2715 165.032 43.6308 164.09C41.4248 163.703 39.1457 164.003 36.813 164.977C34.4747 165.947 32.2111 167.543 30.0126 169.771C26.0141 173.65 22.3244 178.385 18.9382 183.973C17.7391 182.435 16.4554 181.099 15.0733 179.98C13.4561 178.442 11.6735 177.469 9.71181 177.076C7.71099 176.938 6.25793 179.766 4.81092 182.31C3.0857 185.293 1.42795 188.348 -0.176141 191.492C-1.7664 194.62 -3.31403 197.828 -4.80103 201.088C-6.03579 203.786 -7.81117 207.014 -8.02728 210.345C-8.23787 213.681 -6.46538 215.598 -5.16157 217.226C-3.45981 219.326 -1.6347 221.144 0.316598 222.652C0.789215 223.045 1.29318 222.917 1.82298 222.263C1.11251 224.304 0.417224 226.343 -0.261534 228.396C-2.42116 234.839 -3.99459 241.455 -4.98465 248.272C-5.98182 254.476 -6.03989 260.337 -5.15054 265.831C-4.08831 271.85 -2.31228 276.984 0.167862 281.24C2.62181 285.488 5.69268 288.264 8.6954 291.312L9.12528 291.682C9.06308 291.73 8.99673 291.788 8.93173 291.862C6.26558 294.697 5.32754 300.289 6.08579 304.33C7.01075 309.236 10.1376 310.892 12.7579 312.53L17.3756 315.441C18.7898 316.343 20.2914 317.781 21.9225 317.831C24.6673 317.904 26.8216 313.518 28.3087 309.494C28.4252 309.19 28.51 308.874 28.5617 308.53C29.6039 309.139 30.6517 309.696 31.723 310.23C35.9647 311.981 40.4212 312.563 45.0882 311.986C51.4359 311.558 57.9482 306.617 63.6944 299.545C63.5548 300.405 63.6667 301.049 64.0399 301.471C65.953 304.187 68.0773 306.867 70.756 307.59C72.0016 307.899 73.2965 307.717 74.6309 307.05C75.9653 306.384 77.2218 305.289 78.4006 303.768C80.9047 300.476 83.1503 296.731 85.147 292.526C87.0285 288.64 89.1699 283.811 89.2299 279.091C89.2805 275.732 88.1018 273.607 87.017 271.447L83.1631 263.873C83.071 263.693 82.9567 263.551 82.8203 263.448C85.0471 257.957 86.8494 252.215 88.2174 246.229C89.0484 242.462 89.5372 238.688 89.692 234.944C89.7339 227.426 88.6715 220.816 86.5018 215.141C84.2146 208.816 81.5566 203.038 78.5373 197.798C77.0491 195.161 75.5 192.644 73.8802 190.254C75.038 188.08 76.0885 185.784 77.0357 183.357C77.6515 181.754 78.5553 179.649 78.4056 177.805C78.1078 176.193 77.5388 174.982 76.7012 174.203L76.2195 173.528C76.2195 173.528 76.2195 173.528 76.2569 173.431C79.1449 167.154 82.1829 161.079 85.3751 155.194C85.6037 155.477 85.8768 155.569 86.2012 155.488C87.9202 155.08 89.4409 153.68 90.7579 151.283C91.388 150.139 91.8279 148.861 92.0873 147.441C92.3426 146.031 92.3796 144.694 92.1929 143.423C92.0229 142.109 91.6288 141.092 91.0147 140.361C90.4006 139.63 89.6807 139.327 88.8442 139.442C87.9232 139.701 87.0622 140.358 86.2446 141.397C85.4325 142.442 84.7884 143.718 84.3177 145.23C83.7249 147.04 83.5131 148.832 83.6961 150.59C83.7219 150.829 83.7559 151.046 83.8052 151.261C80.3971 157.479 77.1623 163.932 74.1011 170.622C73.584 169.657 72.9352 168.998 72.1686 168.625C70.508 168.117 68.7446 170.836 67.4447 172.96C66.3416 174.648 65.4161 176.56 64.6627 178.693C62.0747 175.959 59.369 173.513 56.5633 171.326ZM8.08821 205.706C6.21101 210.229 4.46888 214.841 2.77905 219.526C2.81938 218.638 2.6204 218.049 2.17658 217.753C0.722755 216.63 -0.663145 215.349 -1.97416 213.874C-2.63933 213.142 -3.27403 212.35 -3.88793 211.504C-4.29127 210.969 -5.03945 210.339 -4.87169 209.215C-4.53807 207.945 -4.09286 206.787 -3.52776 205.717C-2.93872 204.393 -2.35384 203.081 -1.74275 201.776C-0.531599 199.158 0.730508 196.598 2.03119 194.072C3.32636 191.54 4.64617 189.117 5.96576 186.808C6.64568 185.592 7.33246 184.396 8.0233 183.247C8.71414 182.098 8.84775 182.228 9.58151 182.456C12.1643 183.543 14.4655 185.381 16.492 187.992C13.4314 193.572 10.6338 199.48 8.08821 205.706ZM22.0336 312.405C19.7199 311.306 17.5483 309.55 15.3166 308.16C13.3951 306.937 11.0867 306.015 9.68103 303.507C8.76647 301.839 8.2948 298.045 10.1036 296.086C10.7065 295.51 11.0227 294.687 11.0523 293.617C13.7808 296.443 16.519 299.264 19.375 301.797C21.5575 303.677 23.8009 305.437 26.1096 306.95C26.0472 307.113 25.9889 307.264 25.9307 307.416C24.9545 309.862 23.7489 313.191 22.0336 312.405ZM80.5894 268.893C80.6726 268.676 80.7642 268.438 80.8516 268.21L84.3082 274.966C85.2624 276.855 86.5798 278.581 85.9926 281.809C85.1034 286.434 82.4726 290.972 80.4648 294.518C78.4528 298.075 76.033 301.987 73.3037 302.447C70.58 302.911 68.2672 299.938 66.449 297.377C66.2563 297.096 66.0137 296.944 65.7309 296.917C67.1186 295.042 68.4555 293.051 69.7375 290.955C73.7788 284.159 77.3947 276.808 80.5894 268.893ZM80.0057 209.385C82.4958 214.226 84.4381 219.749 85.8394 225.973C86.4341 228.951 86.7054 232.14 86.6479 235.535C86.3703 242.865 84.4438 250.114 82.0019 256.948C79.3809 264.305 76.4156 271.337 73.1197 278.026C67.0517 290.328 59.4448 301.232 50.7661 305.301C46.5835 307.291 42.3666 307.002 38.4053 306.545C33.996 305.802 29.9022 303.933 26.1128 300.927C19.0566 295.828 12.5823 288.794 6.17508 282.062C1.24296 276.876 -3.09064 266.828 -2.75021 255.459C-2.40489 242.969 2.01324 230.341 6.16815 218.972C9.85906 208.486 14.2262 198.74 19.2556 189.753C19.756 189.348 20.1256 188.73 20.3632 187.882C21.7379 185.621 23.169 183.481 24.6564 181.461C28.3161 176.498 32.5009 171.886 36.765 169.895C41.4268 167.727 45.6428 169.947 49.4955 172.329C55.5978 176.131 61.2286 181.141 66.374 187.376C71.5249 193.616 76.0749 200.924 80.0293 209.305L80.0057 209.385ZM87.7071 145.209C87.6905 145.252 87.678 145.285 87.6613 145.328L87.7071 145.209ZM87.1409 146.148C87.1534 146.116 87.1659 146.084 87.1783 146.051C87.2574 145.845 87.3944 145.66 87.5065 145.483L87.5772 145.299C87.692 145.153 87.8165 145.001 87.9437 144.88L87.9937 144.75L88.2064 144.616C88.2438 144.576 88.2838 144.567 88.3239 144.558L88.4329 144.523L88.7195 144.77L88.8832 145.069C88.9381 145.232 88.9888 145.405 89.0257 145.596C89.0516 145.776 89.0775 145.957 89.084 146.15C89.0216 146.313 89.0557 146.53 89.0429 146.735C88.9929 146.865 88.9056 147.092 88.9066 147.281C88.9131 147.474 88.9066 147.281 88.8567 147.411C88.8067 147.541 88.6986 147.822 88.6237 148.017L88.5363 148.245C88.4572 148.45 88.312 148.599 88.2054 148.781L88.0726 148.955C87.9329 149.109 87.7932 149.262 87.6481 149.411C87.5955 149.452 87.5388 149.504 87.4822 149.556L87.2804 149.7C87.2061 149.607 87.1289 149.54 87.0434 149.496L86.9057 149.377L86.7723 149.132L86.694 148.935L86.6268 148.69L86.5835 148.249C86.5933 148.185 86.5934 148.127 86.5893 148.081C86.5893 148.081 86.5507 148.048 86.5882 147.95C86.6256 147.853 86.6506 147.788 86.6219 147.633C86.5987 147.483 86.6219 147.633 86.625 147.492L86.6624 147.394C86.7123 147.264 86.7237 147.101 86.7529 146.967C86.782 146.892 86.807 146.827 86.8361 146.751C86.9069 146.567 86.9776 146.383 87.0483 146.198C87.0608 146.166 87.0733 146.133 87.0858 146.101C87.0923 146.294 87.0369 146.419 87.1574 146.163L87.1409 146.148ZM67.222 180.509C67.2719 180.379 67.326 180.239 67.3759 180.109L68.0208 178.43C68.1831 178.007 68.4322 177.645 68.6399 177.277C69.0983 176.446 69.5814 175.666 70.0893 174.936C70.16 174.752 70.3024 174.629 70.4021 174.484L70.4395 174.387L70.7563 173.982C70.831 173.902 70.896 173.829 70.9693 173.733L71.074 173.824L71.7732 174.83L73.5157 177.282C74.0318 178.001 74.5368 178.768 75.0668 179.469C74.8838 179.946 74.7048 180.412 74.5218 180.888C73.6771 183.087 72.7292 185.153 71.6794 187.103C70.1571 185.013 68.5738 183.044 66.9475 181.167C67.0349 180.939 67.1236 180.727 67.222 180.509ZM35.3372 218.904C35.3857 219.523 35.3748 220.162 35.2949 220.829C35.2191 221.484 35.0813 222.129 34.8813 222.764C34.6814 223.399 34.4305 223.976 34.1342 224.499C33.8337 225.033 33.5058 225.486 33.1449 225.853C32.813 226.201 32.4647 226.477 32.1041 226.671C31.6317 226.927 31.1719 227.036 30.7193 226.992C29.9687 226.922 29.3845 226.419 28.9668 225.482C28.4554 224.407 28.2385 223.081 28.3312 221.503C28.3808 220.84 28.5531 220.238 28.8535 219.704C28.8913 219.434 28.9401 219.174 29.0041 218.912C29.292 217.761 29.745 216.811 30.3592 216.071C30.7078 215.622 31.0811 215.281 31.4762 215.073C32.0688 214.791 32.6361 214.746 33.1697 214.961C33.7034 215.176 34.1442 215.613 34.4963 216.263C34.9351 216.972 35.2108 217.859 35.3164 218.959L35.3372 218.904ZM54.7496 254.183C54.7541 254.706 54.8568 255.126 55.0577 255.444C55.2641 255.766 55.4996 256.012 55.756 256.204C56.1226 256.433 56.5199 256.545 56.9367 256.529C57.5454 256.491 58.1463 256.187 58.7284 255.608C59.3326 254.989 59.8186 254.183 60.1945 253.166C60.7936 251.606 60.9912 250.061 60.7871 248.53C60.6862 247.895 60.5286 247.313 60.306 246.804C60.0325 246.179 59.6718 245.724 59.2335 245.433C58.1391 244.692 56.5167 244.447 55.4213 246.401C55.1457 246.927 54.9073 247.472 54.7088 248.065C54.4703 248.667 54.2939 249.279 54.1725 249.938C53.9805 250.782 53.9347 251.607 54.0382 252.388C54.1415 253.169 54.3736 253.787 54.733 254.227L54.7496 254.183ZM57.6589 250.506L57.8352 250.657C57.8352 250.657 57.8352 250.657 57.7853 250.787L57.7062 250.993L57.4307 250.756C57.4162 250.412 57.3588 250.103 57.2682 249.823L57.5138 249.89L57.6589 250.506ZM39.4973 255.602C40.502 255.545 41.5102 255.174 42.5175 254.5C42.9251 254.26 43.2949 254.29 43.6159 254.581C43.9424 254.877 44.1265 255.352 44.1832 256.007C44.2399 256.661 44.1489 257.318 43.9048 257.973C43.6607 258.627 43.3382 259.085 42.9347 259.371C41.3567 260.405 39.7964 260.877 38.2578 260.777C36.797 260.397 35.525 259.489 34.4361 258.046C33.1425 256.831 32.1286 255.135 31.3751 252.972C31.0515 251.886 30.9448 250.655 31.0509 249.291C31.1625 247.931 31.4727 246.627 31.9829 245.394C32.2436 244.754 32.5812 244.295 32.9971 244.034C33.4075 243.767 33.7856 243.776 34.1246 244.039C34.4566 244.34 34.6517 244.825 34.7042 245.49C34.7623 246.16 34.6672 246.828 34.4189 247.493C33.8951 248.628 34.0336 249.814 34.5244 250.77C35.1874 251.947 35.9431 252.958 36.7764 253.806C37.5473 254.816 38.4474 255.433 39.4806 255.646L39.4973 255.602ZM42.3617 182.631C40.3046 182.315 38.1883 182.668 36.0156 183.665C33.8442 184.678 31.7545 186.279 29.752 188.475C26.272 192.569 23.0599 197.284 20.1283 202.586C14.3669 212.542 8.75399 224.977 6.6759 237.891C4.71124 249.936 6.62924 260.239 10.4506 268.202C13.2198 273.615 16.4266 278.194 20.0739 281.914C26.8161 289.568 34.469 294.432 43.0256 296.484C49.6762 297.846 56.5653 292.898 62.6679 284.879C65.4969 281.333 68.0316 277.218 70.2583 272.548C72.4946 267.872 74.3106 262.878 75.7104 257.553C76.6267 253.946 77.3403 250.293 77.8469 246.607C79.2756 235.555 77.0991 225.449 74.1362 217.447C71.9822 211.482 69.3188 206.347 66.1391 202.022C59.4685 193.017 51.903 183.572 42.3451 182.675L42.3617 182.631ZM75.3187 240.032C75.3474 242.363 75.2007 244.731 74.8843 247.139C74.1411 252.568 72.8628 257.824 71.0578 262.886C69.2582 267.952 67.0456 272.49 64.4255 276.504C59.6736 283.928 53.6579 290.479 47.8045 291.491C43.9088 292.142 40.059 290.382 36.6231 288.69C32.9419 286.816 29.4551 284.36 26.1583 281.332C22.2537 277.939 18.6831 273.81 15.4561 268.939C11.902 263.354 8.83453 255.911 8.83044 246.45C8.83275 234.357 13.8032 221.571 18.8593 211.656C21.0257 207.468 23.3241 203.508 25.7601 199.783C29.1 194.602 32.7762 189.711 36.9631 188.359C41.1596 187.002 45.3191 188.452 48.8906 190.707C52.9125 193.394 56.6113 196.884 59.9912 201.165C63.5853 205.271 66.7391 210.18 69.4608 215.869C72.4816 222.479 75.1186 230.604 75.2979 240.086L75.3187 240.032ZM101.746 331.768C101.298 330.127 100.075 329.607 99.1235 329.162C98.0962 328.724 97.0214 328.562 95.8923 328.713C95.3981 328.778 94.9038 328.9 94.3997 329.085C94.3873 329.06 94.3763 329.051 94.3556 329.047C94.6136 328.376 94.9542 327.775 95.165 327.265C95.793 325.745 96.1645 324.147 96.263 322.459C96.2983 322.043 96.3032 321.629 96.2833 321.222C96.2592 320.827 96.2061 320.449 96.124 320.09C96.0418 319.731 95.932 319.406 95.8001 319.119C95.6627 318.828 95.503 318.575 95.3226 318.376C95.1409 318.162 94.9438 318.007 94.7301 317.895C94.5109 317.778 94.2861 317.714 94.0501 317.698C93.81 317.693 93.5684 317.73 93.3212 317.82C93.074 317.909 92.8254 318.041 92.5863 318.224C91.5757 319.156 90.6447 320.3 89.7851 321.678C88.905 322.938 88.0854 324.308 87.3097 325.773C85.6602 328.864 84.2889 332.224 83.1849 335.842C81.7372 335.849 80.2736 336.261 78.7871 337.056C73.0553 339.469 67.6673 343.967 62.6244 350.564C61.2678 349.856 59.8197 350.036 58.29 351.096C56.6925 352.2 55.312 353.922 54.1427 356.259C53.7816 355.328 53.3264 354.489 52.9593 353.726C50.7831 349.328 48.2897 345.508 45.475 342.275C42.2971 338.442 38.842 335.234 35.3773 332.033C35.5574 328.757 35.5981 325.519 35.5006 322.336C35.4912 318.58 35.0368 315.161 34.1359 312.064C33.27 309.487 30.4503 312.55 31.3189 315.158C32.945 320.033 32.6673 327.42 32.2983 333.517C32.1293 336.745 31.7684 339.995 31.2144 343.251C30.3812 347.406 29.326 351.47 28.0377 355.435C25.4434 364.04 22.3187 372.174 18.6552 379.859C16.6987 383.997 14.61 387.964 12.4745 391.862C10.8957 394.769 8.81135 399.373 6.56698 400.308C5.36674 400.817 4.31984 399.8 3.37159 399.156L-0.612871 396.371C-3.16533 394.576 -5.76457 392.711 -8.3141 390.832C-13.376 387.148 -18.3922 383.345 -23.3681 379.418C-25.8568 377.476 -28.3968 375.648 -30.7923 373.31C-31.8849 372.412 -32.8584 371.241 -33.7058 369.819C-34.5073 368.163 -33.3186 365.05 -32.7682 362.987C-30.0043 353.042 -26.7195 343.46 -22.9137 334.241C-19.1531 324.852 -15.3618 315.289 -10.504 307.264C-6.63863 300.849 -1.85351 294.808 3.12643 293.722C3.5475 293.638 3.92212 293.312 4.25443 292.733C4.5881 292.17 4.77702 291.526 4.82669 290.804C4.87636 290.083 4.76982 289.501 4.51124 289.048C4.2485 288.605 3.90658 288.426 3.49101 288.515C0.151179 289.284 -3.04776 291.444 -6.10032 294.998C-6.2598 294.688 -6.47474 294.503 -6.73962 294.448C-10.974 293.899 -15.3081 294.316 -19.7463 295.711C-23.8237 296.797 -27.8806 298.707 -31.9128 301.432C-33.8543 302.801 -35.7523 304.438 -37.6038 306.317C-37.6304 305.833 -37.6944 305.389 -37.793 304.958C-36.1507 298.429 -34.4477 291.896 -32.9048 285.34C-31.5886 279.756 -30.4772 273.693 -30.9099 268.289C-27.9309 264.239 -25.5608 258.871 -23.2712 253.751C-22.4278 252.185 -21.9995 250.478 -21.9876 248.615C-22.0188 247.607 -22.2367 246.8 -22.6358 246.196C-23.0349 245.593 -23.5339 245.307 -24.1316 245.355C-25.0843 245.601 -26.0155 246.153 -26.921 247.002C-27.4159 247.412 -27.879 247.835 -28.3532 248.305C-28.8022 245.655 -29.2346 242.962 -29.7624 240.402C-29.8988 239.535 -30.1818 238.859 -30.6046 238.394C-31.0274 237.928 -31.5225 237.747 -32.0857 237.838C-32.6531 237.94 -33.1934 238.297 -33.7052 238.922C-34.2212 239.559 -34.6174 240.342 -34.8979 241.283C-35.3482 242.913 -35.6232 244.564 -35.7188 246.226C-35.8401 247.592 -35.9586 248.932 -36.03 250.225C-36.2565 253.202 -36.4624 256.239 -36.5479 259.135C-36.655 261.724 -36.6681 264.279 -36.5819 266.804C-36.874 267.316 -37.1483 267.859 -37.4102 268.426C-39.2771 272.598 -40.8077 277.003 -42.0116 281.645C-43.9932 288.789 -45.3898 296.034 -46.1808 303.382L-46.2182 303.479C-48.1953 305.38 -48.8473 310.037 -49.1445 313.197C-49.2815 314.852 -49.3136 316.483 -49.2324 318.066C-49.2232 319.761 -48.9029 321.161 -48.2868 322.269C-47.8409 322.941 -47.2924 323.327 -46.6509 323.433C-46.0093 323.539 -45.3534 323.34 -44.6873 322.847C-43.6466 322.028 -42.7087 320.905 -41.8642 319.47C-41.52 319.911 -41.1523 320.328 -40.7693 320.687C-38.8967 322.171 -36.853 322.98 -34.6369 323.131C-30.3544 323.764 -25.9921 323.789 -21.5402 323.199L-22.2805 324.954C-26.6319 335.117 -30.4954 345.671 -33.8725 356.6C-34.6615 359.265 -35.4312 361.975 -36.1084 364.693C-36.8193 366.964 -37.0637 369.204 -36.8485 371.393C-36.3844 373.393 -35.6103 374.911 -34.5276 375.93C-33.2621 377.41 -31.9204 378.71 -30.5066 379.841C-25.0792 384.388 -19.5034 388.529 -13.9303 392.696C-8.35867 396.848 -2.86718 401.075 2.84765 404.701C3.91975 405.538 5.10618 405.753 6.41664 405.34C7.72711 404.926 8.95308 403.95 10.1001 402.416C12.5398 398.91 14.7759 395.056 16.8016 390.833C21.1906 382.634 25.0329 373.835 28.3242 364.446C29.2762 361.663 30.1952 358.85 31.0438 355.992L31.1651 356.097C34.1452 359.414 37.4069 361.979 40.9267 363.815C42.6583 364.73 44.4345 365.453 46.2648 365.978C47.6921 366.559 49.1878 366.694 50.7617 366.378C50.8361 367.884 51.1041 369.211 51.5656 370.358C52.0271 371.505 52.641 372.351 53.4045 372.922C53.9365 373.294 54.5102 373.5 55.1298 373.53C55.7493 373.559 56.3789 373.409 57.0185 373.081C57.6581 372.753 58.269 372.27 58.8609 371.627C59.457 370.972 59.9925 370.208 60.4759 369.313C61.1959 368.031 61.8086 366.627 62.3097 365.112C62.6499 365.449 63.0377 365.451 63.4689 365.131C66.958 362.789 70.4952 360.531 73.9461 357.983C77.2873 355.759 80.4383 352.693 83.4032 348.774C83.8073 348.2 84.1921 347.58 84.5522 346.91C84.645 347.451 84.8513 347.831 85.1545 348.034C85.4633 348.243 85.8028 348.218 86.1593 347.977L93.9494 343.07C95.2109 342.268 96.475 341.556 97.7257 340.687C98.8365 340.029 99.8294 338.953 100.703 337.443C101.184 336.631 101.517 335.707 101.708 334.675C101.899 333.643 101.911 332.674 101.746 331.768ZM-24.6039 250.613L-24.503 250.541C-24.5157 250.689 -24.5821 250.747 -24.6039 250.613ZM-32.8081 249.037C-32.6965 247.677 -32.5849 246.317 -32.4526 244.961L-32.3724 244.179L-32.11 245.501L-31.6786 248.006L-30.667 253.794C-30.4969 254.344 -30.2243 254.665 -29.8477 254.774C-29.4712 254.882 -29.0914 254.733 -28.7083 254.328C-28.0416 253.49 -27.346 252.748 -26.6326 252.094C-26.5193 251.99 -25.9375 251.583 -25.4234 251.219C-25.802 252.205 -26.2688 253.114 -26.6971 254.057C-28.283 257.823 -30.1043 261.227 -32.1608 264.27C-32.5507 263.891 -32.9962 263.752 -33.4918 263.859C-33.5212 258.989 -33.291 254.056 -32.8067 249.053L-32.8081 249.037ZM-39.1421 282.863C-38.4348 280.316 -37.6406 277.828 -36.7555 275.391C-36.1097 273.251 -35.2573 271.319 -34.2121 269.61L-34.0019 269.387C-33.9748 269.641 -33.8514 270.065 -33.8257 270.361C-33.7221 271.733 -33.7372 273.147 -33.8614 274.597C-34.1321 277.593 -34.629 280.567 -35.3426 283.513C-36.726 289.616 -38.308 295.663 -39.8431 301.721C-39.9879 301.639 -40.1409 301.58 -40.294 301.52C-41.1258 301.336 -41.9844 301.433 -42.8739 301.82C-42.1137 295.411 -40.8666 289.09 -39.1421 282.863ZM-44.3343 317.212C-44.6083 317.581 -44.8987 317.879 -45.2165 318.095L-45.309 318.145L-45.5244 318.19L-45.6886 318.179L-45.7878 318.093L-45.8413 317.889L-45.8589 317.744C-46.1468 315.304 -46.0302 312.767 -45.5063 310.104C-45.3973 309.42 -45.247 308.742 -45.0429 308.096L-44.7831 307.916C-44.0411 307.417 -43.2965 307.064 -42.5522 306.825L-42.0566 306.719L-41.7833 306.695L-41.6329 306.724L-41.2619 306.827C-41.142 306.916 -41.0207 307.02 -40.9092 307.131L-40.7934 307.231L-40.5928 307.663C-40.5421 307.894 -40.4877 308.287 -40.5131 307.876L-40.4998 308.147C-40.4998 308.147 -40.4998 308.147 -40.5098 308.326C-40.5369 308.778 -40.5005 309.199 -40.3921 309.566C-41.4278 310.62 -42.2585 312.038 -42.8857 313.804C-43.0343 314.324 -43.1223 314.84 -43.1384 315.359C-43.2297 315.482 -43.3169 315.595 -43.4014 315.738C-43.7141 316.189 -44.2387 317.02 -44.3951 317.217L-44.3343 317.212ZM-33.4126 317.958C-34.5978 317.816 -35.7482 317.546 -36.8666 317.116C-37.4362 316.899 -37.9738 316.58 -38.492 316.191C-38.9219 315.821 -39.3412 314.984 -39.785 314.688C-39.7226 314.525 -39.5872 314.44 -39.4779 314.289C-38.9854 313.676 -38.4694 313.039 -37.9577 312.471C-36.937 311.303 -35.8833 310.221 -34.8119 309.227C-30.4948 305.436 -26.1013 302.878 -21.6177 301.537C-17.4761 300.074 -13.4023 299.418 -9.39496 299.584C-13.0143 305.072 -16.2482 311.123 -19.0996 317.762C-23.9922 318.622 -28.7852 318.687 -33.4775 317.974L-33.4126 317.958ZM93.4746 322.824C93.4371 322.922 93.4246 322.954 93.3571 322.882C93.2938 322.798 93.4305 322.786 93.4152 322.845L93.4746 322.824ZM51.4772 360.983C50.691 361.445 49.9415 361.505 49.2411 361.19C47.3042 360.79 45.4244 360.165 43.5919 359.321C39.7698 357.528 36.2585 354.848 33.0719 351.267C32.908 351.082 32.7302 350.972 32.5177 350.933C33.6367 346.722 34.4549 342.454 34.9779 338.132C40.8507 343.582 46.7145 349.398 50.8418 358.36C51.0906 358.877 51.3005 359.534 51.5715 360.012C51.8328 360.497 51.9485 360.596 51.4896 360.951L51.4772 360.983ZM59.0856 365.218C59.069 365.261 59.0524 365.304 59.0357 365.348C58.9276 365.572 58.8085 365.786 58.6839 365.996C58.5205 366.288 58.3558 366.564 58.1703 366.837L58.0913 367.042C57.9765 367.188 57.8616 367.335 57.7455 367.465L57.4509 367.774C57.4177 367.803 57.3804 367.843 57.3389 367.893L57.1952 368C57.0901 368.083 56.9837 368.15 56.8718 368.212L56.7116 368.304C56.6564 368.314 56.6067 368.329 56.5583 368.36L56.3236 368.417L56.0503 368.441C55.8668 368.384 55.6861 368.358 55.5068 368.29L55.2698 368.086C55.1072 367.974 54.9474 367.837 54.8014 367.682L54.5151 367.262L54.3749 366.997L54.2481 366.888C54.1616 366.655 54.0834 366.4 54.0136 366.124C53.9861 366.043 53.967 365.94 53.9534 365.841C53.9301 365.749 53.9123 365.662 53.9042 365.568C53.8798 365.346 53.8706 365.121 53.8613 364.897C54.1666 364.771 54.45 364.51 54.7019 364.122C54.9538 363.734 55.1341 363.283 55.2413 362.756C55.3152 362.373 55.3849 362 55.4698 361.627C55.5602 361.258 55.6046 361.123 55.6227 361.038C55.824 360.418 56.057 359.812 56.3134 359.24C56.3439 359.179 56.3689 359.114 56.3842 359.055C56.4549 358.871 56.5656 358.736 56.65 358.593C56.7871 358.35 56.9297 358.113 57.0792 357.896L57.2508 357.64C57.2924 357.531 57.4361 357.425 57.4209 357.426C57.6243 357.183 57.8289 356.956 58.0405 356.749C58.1373 356.63 58.2465 356.537 58.3502 356.439L58.8753 356.084C58.9817 356.017 59.0949 355.971 59.2 355.888L59.3381 355.834C59.5259 355.765 59.7303 355.711 59.9305 355.667L60.259 355.633L60.3086 355.676C60.4893 355.702 60.6673 355.754 60.8355 355.812L61.1937 356.121L61.3258 356.35C61.3258 356.35 61.3598 356.625 61.3809 356.398L61.3888 356.606C61.3888 356.606 61.3472 356.715 61.3593 356.855L61.3052 356.996C61.1142 358.028 60.8735 359.074 60.6259 360.101C60.2664 361.896 59.7511 363.6 59.0856 365.218ZM81.159 346.005C78.6582 348.982 76.0425 351.399 73.3203 353.234C70.1969 355.56 67.041 357.569 63.8974 359.662C64.4032 357.848 64.6205 356.061 64.5577 354.277L64.5101 353.904C69.4945 347.574 74.7908 343.43 80.3989 341.472C81.1087 341.247 83.0386 340.214 83.216 341.967C83.3154 343.408 81.7303 345.3 81.159 346.005ZM96.6052 336.233C93.0985 338.43 89.5917 340.627 86.0766 342.846C86.1714 342.351 86.2358 341.859 86.2699 341.369C86.3361 339.956 86.1313 338.77 85.6556 337.813C87.0611 333.142 88.9527 329.02 91.3153 325.447C91.8386 324.601 92.3961 323.856 92.9853 323.181C93.0587 323.086 93.1333 323.006 93.208 322.926C93.2075 323.214 93.2068 323.56 93.2026 323.57C93.1677 323.814 93.1175 324.059 93.0467 324.301C92.636 325.447 92.1868 326.559 91.6934 327.633C90.8155 329.918 89.9891 333.387 91.4455 334.599C92.1127 335 92.8263 334.938 93.5919 334.415C94.2577 334.095 94.9136 333.896 95.5706 333.828C96.1421 333.772 96.6968 333.818 97.2306 333.975C97.6884 334.139 98.1268 334.372 98.5458 334.676C97.9193 335.39 97.2682 335.939 96.5803 336.298L96.6052 336.233ZM5.66079 337.669C4.87475 338.073 4.10911 338.653 3.36797 339.398C3.38689 337.439 3.17917 335.631 2.74619 333.99C2.54214 333.165 2.20931 332.561 1.74637 332.162C1.28894 331.768 0.767529 331.636 0.188993 331.786C-0.404821 331.996 -0.96737 332.448 -1.48345 333.142C-2.0037 333.847 -2.40415 334.699 -2.69034 335.692C-3.57607 339.182 -3.77699 342.512 -3.28895 345.671C-3.11813 347.289 -2.73432 348.657 -2.1348 349.808C-1.53664 350.943 -0.790139 351.731 0.114347 352.164C0.226027 352.217 0.339184 352.228 0.459296 352.202C0.593601 352.692 0.811022 353.024 1.11706 353.201C1.4231 353.378 1.7488 353.37 2.09834 353.167C3.89679 352.324 5.62581 350.973 7.27855 349.096C8.95491 347.138 10.3647 343.869 10.1029 340.732C9.84528 337.583 7.62208 336.821 5.63582 337.734L5.66079 337.669ZM-0.157596 336.966C-0.158503 336.72 -0.196168 336.933 -0.157596 336.966V336.966ZM-0.236833 337.993C-0.208836 337.787 -0.165647 337.579 -0.107291 337.37C-0.0456447 337.61 0.0435493 337.874 0.0734697 338.102C0.32495 340.121 0.315383 342.246 0.0489473 344.467C0.02376 344.647 0.0275983 344.809 0.0369368 344.976C-0.0549584 344.68 -0.127519 344.373 -0.186245 344.048C-0.502829 342.161 -0.519684 340.143 -0.231321 337.998L-0.236833 337.993ZM7.00642 343.427L6.97313 343.513C6.97313 343.513 6.79423 343.979 6.8275 343.892C6.39826 344.647 5.91545 345.255 5.37912 345.715C4.32005 346.734 3.23106 347.526 2.11901 348.11C1.94622 347.529 1.66953 347.161 1.28894 347.006C1.18141 346.942 1.08221 346.857 0.985819 346.745C1.37609 346.894 1.76556 346.739 2.15973 346.286C3.1323 345.033 4.15694 343.97 5.22536 343.118C5.68702 342.737 6.14835 342.529 6.61769 342.472C6.79437 342.451 6.9516 342.5 7.09073 342.634C7.19523 342.84 7.15315 342.472 7.13169 342.872C7.13169 342.872 7.05792 343.197 7.04398 343.272L7.00642 343.427ZM86.7021 148.264C86.7021 148.264 86.7021 148.264 86.7396 148.167C86.7396 148.167 86.7259 148.126 86.7021 148.264ZM87.1504 146.2L87.2212 146.016C87.2017 146.086 87.1768 146.151 87.1463 146.211L87.1504 146.2ZM86.7491 147.512C86.7448 147.58 86.7406 147.649 86.7266 147.723L86.7505 147.528L86.7491 147.512ZM170.609 319.683C171.12 311.401 168.245 304.7 165.933 298.917C163.181 292.047 160.006 285.838 156.406 280.314C154.598 277.517 152.674 274.965 150.687 272.518C148.955 270.247 146.999 268.562 144.817 267.461C139.26 265.066 134.033 272.888 129.269 279.465C123.672 287.199 118.417 295.589 113.499 304.629C113.023 305.487 112.856 306.381 113 307.341C109.535 313.553 111.515 321.443 114.178 324.992C114.992 326.083 115.85 327.038 116.667 328.117C117.123 328.726 117.547 329.38 117.932 330.115C118.28 330.775 118.463 330.89 118.167 331.832C117.305 334 116.347 336.073 115.292 338.018C114.26 340.228 113.247 342.426 112.218 344.625C112.073 345.004 111.984 345.389 111.943 345.801C111.897 346.208 111.91 346.594 111.975 346.938C112.037 347.294 112.149 347.593 112.302 347.825C112.464 348.052 112.651 348.198 112.875 348.262C114.853 348.25 116.832 347.49 118.817 345.971C120.845 344.605 122.913 343.099 124.629 344.895C125.739 346.226 126.757 347.738 127.669 349.431L130.613 354.102C132.42 356.942 134.161 359.912 136.086 362.522C139.396 367.061 143.568 369.949 148.576 365.6C153.589 361.24 158.035 352.529 161.667 344.89C163.582 340.86 165.432 336.731 167.19 332.594C169.056 328.594 170.193 324.298 170.609 319.683ZM160.985 338.911C157.609 346.324 153.737 354.304 149.122 359.54C148.126 360.757 147.073 361.609 145.966 362.083C144.86 362.557 143.8 362.624 142.79 362.273C140.911 361.36 139.293 359.807 137.944 357.607C135.962 354.746 134.104 351.66 132.201 348.651L129.256 343.981C128.324 342.284 127.266 340.838 126.067 339.661C124.236 338.357 122.236 338.465 120.062 339.98C119.008 340.585 117.901 341.462 116.791 342.135C117.961 339.626 119.144 337.099 120.322 334.51C122.115 330.606 121.515 327.738 119.997 325.234C118.486 322.735 116.552 321.314 115.232 318.62C114.205 316.539 113.596 312.511 115.306 309.818C115.569 309.439 115.749 308.989 115.851 308.456C115.954 307.94 115.957 307.453 115.857 307.006C119.676 300.046 123.7 293.466 127.925 287.26C130.089 284.108 132.295 281.078 134.546 278.159C136.512 275.6 138.651 272.744 140.951 272.217C143.16 271.986 145.071 272.854 146.683 274.806C148.56 276.755 150.335 278.933 151.992 281.341C155.416 286.194 158.486 291.664 161.194 297.716C162.597 300.785 163.871 304.017 165.028 307.421C166.113 310.115 166.9 313.127 167.387 316.46C168.365 324.322 164.056 332.158 160.985 338.911ZM136.49 302.886C136.912 302.686 137.327 302.54 137.741 302.435C138.234 302.298 138.718 302.224 139.199 302.192C139.619 302.093 139.994 301.767 140.322 301.199C140.65 300.631 140.844 299.991 140.904 299.264C140.94 298.56 140.829 297.988 140.566 297.546C140.309 297.108 139.971 296.918 139.558 296.98C138.38 297.089 137.198 297.455 136.005 298.056C134.753 298.664 133.289 299.493 132.478 301.606C131.667 303.718 131.943 306.263 131.938 308.319L131.916 314.888C131.879 315.577 131.988 316.133 132.24 316.566C132.486 316.994 132.809 317.186 133.208 317.14C133.612 317.042 133.977 316.722 134.297 316.176C134.621 315.619 134.813 315.005 134.875 314.309L135.005 308.814C135.01 307.924 135.014 307.034 135.009 306.15C135.02 305.987 135.066 304.34 135.062 303.702L135.091 303.626C135.559 303.323 136.028 303.078 136.494 302.875L136.49 302.886ZM134.949 303.691C134.911 303.788 134.882 303.864 134.949 303.691V303.691ZM150.015 315.072C150.073 315.742 149.974 316.42 149.72 317.081C149.466 317.742 149.129 318.2 148.709 318.473C145.245 320.347 141.774 322.185 138.294 324.103C137.886 324.343 137.512 324.323 137.176 324.034C136.845 323.749 136.646 323.274 136.574 322.621C136.526 321.945 136.621 321.278 136.875 320.617C137.129 319.956 137.47 319.487 137.881 319.22C141.351 317.309 144.827 315.46 148.296 313.59C148.713 313.344 149.088 313.379 149.42 313.68C149.752 313.98 149.943 314.476 150.001 315.146L150.015 315.072ZM151.584 331.705C151.598 331.63 151.623 331.565 151.655 331.521L151.584 331.705ZM155.426 326.365C155.072 330.111 154.485 334.867 151.967 336.648C150.864 337.283 149.772 337.568 148.704 337.484C147.64 337.562 146.6 337.444 145.6 337.144C145.208 337.037 144.933 336.685 144.765 336.108C144.598 335.532 144.588 334.889 144.74 334.169C144.903 333.459 145.174 332.886 145.56 332.454C145.946 332.022 146.334 331.852 146.726 331.959C147.207 332.1 147.7 332.193 148.202 332.222L148.68 332.258L148.74 332.311L148.899 332.318L149.767 332.273C150.056 332.247 150.358 332.205 150.653 332.142L150.938 332.07C150.938 332.07 151.144 331.974 151.168 331.966C151.189 331.97 151.468 331.778 151.477 331.814C151.477 331.814 151.447 331.89 151.435 331.922L151.472 331.825C151.472 331.825 151.51 331.727 151.514 331.716L151.593 331.51C151.655 331.348 151.688 331.131 151.727 330.934C151.771 330.741 151.901 330.06 151.975 329.619L152.011 329.391L152.089 328.824C152.146 328.296 152.203 327.783 152.247 327.288C152.381 325.832 152.454 324.381 152.573 322.926C152.622 322.205 152.811 321.561 153.144 320.982C153.472 320.414 153.846 320.088 154.272 319.993C154.693 319.909 155.03 320.099 155.293 320.542C155.552 320.995 155.658 321.577 155.609 322.299C155.609 323.596 155.537 325.005 155.412 326.439L155.426 326.365ZM17.0884 77.618C17.361 73.5858 17.4804 69.6089 17.4451 65.6717C17.4224 63.1149 16.3407 62.9326 15.136 62.1542C13.9355 61.3649 12.542 60.467 11.3277 59.637C5.72233 55.8022 0.297305 51.4596 -4.95567 46.6309C-5.29185 46.3413 -5.66997 46.3326 -6.08587 46.5942C-6.50176 46.8558 -6.83937 47.3145 -7.09734 47.986C-9.53855 55.181 -12.7587 61.2148 -16.7687 66.0778C-18.7426 68.4857 -20.8068 70.441 -22.9653 71.9545C-24.9193 73.2984 -27.0109 74.4659 -27.841 78.4216C-28.1483 80.4056 -28.3398 82.3743 -28.4001 84.3261L-28.9399 91.6889C-29.2376 95.8437 -29.5712 99.9964 -29.815 104.126C-30.2508 111.218 -30.3605 118.836 -28.316 124.302C-27.7751 125.777 -27.1137 127.053 -26.3361 128.142C-26.2993 134.214 -23.0305 137.39 -20.1394 139.622C-15.3868 143.443 -10.3329 146.269 -4.98593 148.122C-4.47138 148.234 -3.99745 147.936 -3.55998 147.217C0.235157 140.699 3.58422 133.623 6.47754 125.996C9.36669 118.379 11.7086 110.45 13.5017 102.25C15.3058 94.0589 16.5014 85.8484 17.0884 77.618ZM-4.55827 142.407C-8.77559 140.878 -12.7902 138.688 -16.6061 135.847C-18.3511 134.719 -19.9755 133.276 -21.4792 131.519L-21.8852 130.953C-20.5649 131.182 -19.2063 130.853 -17.8204 129.957C-17.4211 129.681 -17.0945 129.213 -16.8503 128.559C-16.6062 127.904 -16.5097 127.252 -16.5664 126.598C-16.6287 125.938 -16.8127 125.463 -17.1392 125.167C-17.4602 124.876 -17.83 124.846 -18.2376 125.086C-20.0835 126.205 -21.7185 126.051 -23.1331 124.616C-23.149 123.55 -23.457 122.938 -24.0515 122.787C-24.2143 122.733 -24.3855 122.758 -24.5678 122.832C-25.0341 122.041 -25.4271 121.154 -25.744 120.146C-27.3957 114.975 -27.0457 108.011 -26.6016 101.604C-26.357 97.7779 -26.0598 93.9109 -25.7848 90.0825L-25.3482 84.0579C-25.2828 83.0475 -25.2119 82.0418 -25.1368 81.0253C-25.0914 80.3725 -25.1224 79.2502 -24.8342 78.6335C-24.3686 77.6507 -22.9725 77.167 -22.3672 76.737C-21.3625 76.0313 -20.3812 75.2334 -19.4066 74.3576C-17.5762 72.7054 -15.8268 70.7673 -14.1637 68.5385C-10.7574 64.0059 -7.87946 58.672 -5.53683 52.5165C0.866744 58.2644 7.51872 63.2893 14.4301 67.6007C14.4248 74.0113 14.004 80.5107 13.1634 87.1098C12.3228 93.7088 11.078 100.234 9.43999 106.693C7.79783 113.164 5.79868 119.399 3.43838 125.41C1.07944 131.436 -1.58791 137.081 -4.55266 142.354L-4.55827 142.407ZM-0.973004 91.6958C-3.67561 96.2869 -5.14302 102.303 -7.52361 107.373C-8.30237 109.038 -9.29775 110.674 -10.4224 109.878C-11.1647 109.08 -11.7644 108.044 -12.2271 106.766L-15.3769 100.492C-15.6203 100.037 -15.7074 99.4426 -15.6509 98.7417C-15.5847 98.0347 -15.3944 97.4057 -15.0649 96.8535C-14.7354 96.3013 -14.365 95.9862 -13.9591 95.9034C-13.5477 95.8254 -13.2113 95.9999 -12.9499 96.4269L-10.7006 100.902L-9.54578 103.223C-9.4495 103.393 -9.36705 103.579 -9.28876 103.776C-9.01831 103.072 -8.74786 102.368 -8.43748 101.713C-7.87993 100.262 -7.31822 98.7996 -6.80477 97.3102C-5.66979 94.1075 -4.33516 91.1488 -2.78571 88.4329C-2.44923 87.8434 -2.07045 87.5066 -1.63971 87.4164C-1.21447 87.3215 -0.871204 87.5164 -0.611266 87.9854C-0.34717 88.4436 -0.248955 89.0472 -0.312461 89.7854C-0.375965 90.5235 -0.580065 91.1694 -0.934424 91.729L-0.973004 91.6958ZM134.614 198.108L134.578 197.933C134.627 198.075 134.643 198.09 134.627 198.075L134.614 198.108ZM134.765 195.442C134.749 195.485 134.732 195.528 134.715 195.572C134.724 195.492 134.753 195.417 134.795 195.366L134.765 195.442ZM166.158 161.25C166.037 161.564 166.164 161.443 166.158 161.25V161.25ZM166.492 164.161L166.415 164.095C166.415 164.095 166.477 163.932 166.525 164.075L166.492 164.161ZM166.897 164.309C167.007 164.158 167.089 164.229 166.926 164.233L166.897 164.309ZM170.972 163.307L170.922 163.437C170.933 163.389 170.949 163.346 170.972 163.307ZM166.914 164.266L166.859 164.218C166.859 164.218 166.863 164.207 166.904 164.214L166.914 164.266ZM120.403 158.301C120.328 157.962 120.234 157.636 120.129 157.315C119.564 155.79 118.711 154.954 117.575 154.797C117.029 154.73 116.466 154.822 115.891 155.076C115.322 155.336 114.765 155.735 114.222 156.291C113.688 156.84 113.19 157.506 112.748 158.293C112.301 159.076 111.927 159.935 111.625 160.872C110.836 163.119 110.507 165.387 110.644 167.667C110.734 168.826 111.01 169.77 111.461 170.505C111.474 170.775 111.5 171.014 111.542 171.267C112.187 174.648 114.89 174.886 116.869 172.944C119.073 170.777 120.364 166.138 120.639 162.367L120.684 162.248C121.12 162.508 121.584 162.389 122.068 161.912C125.216 158.93 128.249 156.324 131.422 153.811C131.715 155.072 132.229 155.948 132.97 156.427C133.495 158.249 134.387 159.191 135.672 159.246C136.885 159.239 138.094 158.708 139.299 157.671L139.756 157.301L143.617 169.897C143.789 170.463 143.989 171.011 144.139 171.615L144.214 171.954C144.214 171.954 144.154 172.32 144.12 172.464C143.771 173.85 143.326 175.239 142.939 176.608C142.088 179.55 141.251 182.491 140.404 185.423C140.267 186.141 140.281 186.773 140.457 187.328C140.628 187.894 140.907 188.22 141.293 188.322C141.653 188.358 142.015 188.18 142.368 187.777C142.716 187.386 142.972 186.871 143.146 186.228C144.048 183.041 144.961 179.863 145.879 176.689C146.305 175.37 146.672 174.014 146.981 172.637C147.13 172.707 147.286 172.741 147.449 172.737C152.337 172.422 157.243 171.892 162.174 171.124C162.395 171.083 162.615 170.97 162.826 170.763C163.038 170.556 163.229 170.288 163.384 169.96C163.545 169.637 163.661 169.277 163.731 168.904C163.805 168.521 163.829 168.152 163.802 167.783C163.839 167.859 163.871 167.929 163.902 167.999C164.579 169.217 165.482 169.692 166.596 169.427C166.727 170.116 167.011 170.505 167.441 170.587C168.506 170.755 169.58 170.368 170.667 169.446C171.746 168.529 172.656 167.209 173.395 165.496C173.736 164.665 173.992 163.79 174.173 162.879C174.358 161.958 174.448 161.055 174.451 160.15C174.456 159.26 174.368 158.42 174.198 157.639C174.019 156.865 173.766 156.186 173.432 155.624C172.893 154.64 172.222 153.962 171.428 153.566C170.639 153.174 169.796 153.097 168.901 153.364C168.075 146.482 167.433 139.485 166.984 132.366C167.345 131.827 167.667 131.238 167.945 130.57C168.702 128.714 169.017 126.808 168.874 124.869C168.791 123.976 168.623 123.153 168.375 122.406C168.127 121.659 167.802 121.033 167.41 120.508C167.013 119.993 166.563 119.619 166.062 119.376C165.567 119.136 165.039 119.042 164.478 119.107C163.427 119.152 162.395 119.719 161.398 120.806C160.406 121.898 159.611 123.318 159.028 125.064C158.455 126.632 158.167 128.243 158.161 129.881C158.151 131.53 158.424 132.919 158.981 134.048C159.538 135.176 160.279 135.844 161.2 136.061C162.116 136.273 163.055 135.987 164.012 135.196C164.46 142.012 165.076 148.713 165.867 155.305L165.922 155.352C165.138 156.191 164.482 157.269 163.953 158.587C163.425 159.905 163.097 161.294 162.967 162.739C162.9 163.964 162.993 165.097 163.25 166.126C163.041 165.945 162.805 165.872 162.544 165.921C157.608 166.685 152.696 167.21 147.813 167.53C147.429 167.574 147.087 167.855 146.781 168.384C146.75 168.272 146.726 168.164 146.69 168.047C145.225 163.21 143.733 158.406 142.264 153.58C142.35 153.28 142.431 152.974 142.496 152.67C142.828 150.548 142.891 148.512 142.681 146.558C142.56 144.638 142.153 143.004 141.462 141.673C141.306 141.409 141.137 141.163 140.956 140.964C141.083 140.597 141.147 140.22 141.149 139.832C141.191 130.368 141.353 120.893 141.657 111.395C142.563 111.195 143.373 110.48 144.086 109.235C144.999 107.585 145.463 105.765 145.479 103.775C145.497 101.916 145.275 100.24 144.822 98.7257C144.37 97.2113 143.726 96.0225 142.886 95.1544C142 94.2904 140.982 94.1339 139.834 94.6586C138.695 95.2768 137.666 96.351 136.748 97.8811C135.116 100.411 133.807 104.141 134.364 107.332C134.916 110.517 136.803 110.932 138.708 110.44C138.429 120.276 138.258 130.076 138.208 139.85C137 139.977 135.825 140.651 134.68 141.856C133.539 143.05 132.599 144.618 131.854 146.557C131.624 147.252 131.441 147.975 131.327 148.712C127.798 151.482 124.32 154.482 120.878 157.715C120.691 157.857 120.516 158.066 120.361 158.336L120.403 158.301ZM165.936 126.922L165.931 126.744C165.927 126.813 165.913 126.887 165.893 126.957L165.936 126.922ZM165.301 124.775C165.263 124.741 165.224 124.708 165.224 124.708C165.224 124.708 165.228 124.755 165.258 124.81L165.301 124.775ZM164.237 124.204L164.182 124.156C164.182 124.156 164.191 124.208 164.194 124.239L164.237 124.204ZM161.919 125.998L161.977 125.846C162.056 125.583 161.995 125.876 161.871 126.028L161.919 125.998ZM163.563 130.254C163.575 130.222 163.592 130.178 163.604 130.146L163.45 130.301L163.321 130.406L163.103 130.535L162.673 130.641L162.585 130.565L162.236 130.481L162.198 130.447C162.148 130.405 162.132 130.39 162.132 130.39L161.939 130.224C161.856 130.153 161.761 129.942 161.705 129.821L161.631 129.613L161.36 129.438L161.304 128.784C161.314 128.662 161.318 128.536 161.313 128.416C161.353 128.177 161.377 127.924 161.391 127.677C161.415 127.539 161.444 127.405 161.478 127.261C161.54 127.099 161.611 126.915 161.621 126.678C161.659 126.581 161.692 126.494 161.729 126.397C161.767 126.299 161.804 126.202 161.842 126.104C161.991 125.887 162.128 125.645 162.26 125.398C162.301 125.289 162.402 125.218 162.469 125.16L162.659 124.949C162.677 124.921 162.702 124.914 162.727 124.907L162.677 124.864C162.845 124.792 163.008 124.615 163.174 124.527C163.241 124.485 163.309 124.442 163.377 124.399L163.827 124.297L164.008 124.266L164.475 124.366L164.608 124.48C164.608 124.48 164.552 124.432 164.674 124.537L164.712 124.57C164.854 124.678 164.986 124.792 165.12 124.921L165.258 125.04L165.485 125.423L165.512 125.562L165.656 126.046L165.711 126.094C165.711 126.094 165.711 126.094 165.734 126.243L165.748 126.399L165.778 126.684L165.77 126.952C165.77 126.952 165.741 127.201 165.737 127.326C165.699 127.424 165.662 127.521 165.668 127.657C165.564 127.87 165.477 128.098 165.406 128.339C165.347 128.418 165.302 128.495 165.254 128.583C164.741 128.429 164.267 128.727 163.832 129.477C163.782 129.607 163.694 129.704 163.612 129.821C163.559 129.977 163.531 130.126 163.524 130.279L163.563 130.254ZM169.761 164.931L169.917 164.792C169.872 164.853 169.815 164.905 169.761 164.931ZM171.235 159.987L171.146 159.911C171.146 159.911 171.193 159.923 171.235 159.987ZM167.539 159.067C167.654 158.978 167.769 158.89 167.885 158.817C168.063 158.696 168.238 158.602 168.414 158.509L168.707 158.415C168.882 158.378 169.049 158.364 169.22 158.338L169.499 158.377L169.982 158.533L170.704 159.155C170.814 159.25 170.909 159.461 170.999 159.626L171.173 159.977L171.305 160.51L171.355 160.552L171.378 160.76C171.428 160.802 171.397 161.035 171.412 161.149L171.424 161.289C171.411 161.495 171.369 161.776 171.366 161.86C171.359 161.954 171.341 162.04 171.319 162.136C171.281 162.233 171.232 162.363 171.198 162.45L171.152 162.569C171.152 162.569 170.999 162.97 170.924 163.165C170.974 163.035 171.056 162.991 170.894 163.241C170.894 163.241 170.77 163.566 170.651 163.665L170.494 163.919C170.328 164.122 170.167 164.315 169.992 164.482C169.965 164.515 169.931 164.545 169.904 164.578C169.857 164.624 169.804 164.666 169.75 164.691C169.583 164.821 169.401 164.895 169.232 165.009L168.927 165.078L168.745 165.094L168.646 165.008L168.508 165.005C168.394 164.517 168.196 164.174 167.909 163.984C167.627 163.784 167.315 163.775 166.977 163.93L166.867 163.966L166.96 163.916C166.888 163.854 166.843 163.974 166.96 163.916C166.891 163.886 166.818 163.866 166.746 163.862L166.664 163.79C166.664 163.79 166.664 163.79 166.597 163.733C166.567 163.736 166.545 163.717 166.526 163.672L166.443 163.6L166.343 163.384C166.284 163.233 166.229 163.07 166.188 162.89C166.154 162.731 166.165 162.453 166.122 162.833C166.079 163.23 166.122 162.833 166.104 162.688C166.099 162.453 166.09 162.229 166.065 162.006C166.065 162.006 166.085 161.821 166.086 161.722C166.098 161.616 166.166 161.516 166.164 161.385C166.212 161.282 166.253 161.173 166.289 161.06C166.336 160.899 166.391 160.758 166.46 160.616L166.497 160.519C166.645 160.286 166.787 160.033 166.922 159.775C166.96 159.735 166.996 159.68 167.028 159.635C167.194 159.432 167.366 159.249 167.539 159.067ZM140.698 99.6846L140.649 99.6419C140.649 99.6419 140.697 99.6115 140.719 99.6305L140.698 99.6846ZM137.322 103.681C137.472 103.233 137.42 103.463 137.373 103.624L137.322 103.681ZM137.158 104.491C137.158 104.491 137.158 104.491 137.149 104.685C137.144 104.869 137.182 104.483 137.231 104.395L137.158 104.491ZM139.606 105.087L139.364 105.181C138.989 105.319 138.609 105.41 138.235 105.448L138.129 105.457L137.996 105.458C137.846 105.43 137.701 105.348 137.542 105.341L137.184 105.033C137.159 105.04 137.137 105.021 137.124 104.98C137.099 104.93 137.084 104.874 137.078 104.812C137.116 104.714 137.079 104.581 137.094 104.465C137.103 104.386 137.115 104.296 137.129 104.221C137.162 104.134 137.196 104.048 137.229 103.961C137.323 103.754 137.406 103.537 137.483 103.3C137.483 103.3 137.707 102.716 137.745 102.618C137.509 103.078 137.782 102.521 137.745 102.618C137.795 102.488 137.836 102.38 137.886 102.25C138.138 101.804 138.405 101.414 138.66 100.999C138.711 100.942 138.767 100.875 138.807 100.808C139.01 100.566 139.207 100.36 139.413 100.148L139.494 100.089L139.614 100.005L139.834 99.8914C139.834 99.8914 140.055 99.851 140.129 99.8288L140.19 99.881L140.471 99.9505L141.006 100.411C140.703 100.15 141.083 100.478 141.133 100.635L141.467 101.255L141.555 101.331L141.611 101.509C141.692 101.737 141.762 101.956 141.833 102.191C141.905 102.425 141.946 102.605 141.99 102.815L142.069 103.201L142.085 103.33L142.186 104.253L142.212 104.68L142.216 104.842L142.203 105.219L142.157 105.569L142.099 105.72C142.076 105.759 142.06 105.802 142.049 105.85L141.974 106.045C141.943 106.106 141.918 106.171 141.899 106.24C141.899 106.24 141.899 106.24 141.87 106.316L141.737 106.202C141.663 105.576 141.461 105.128 141.141 104.852C140.821 104.577 140.467 104.545 140.068 104.763L139.555 105.028L139.606 105.087ZM134.479 147.839C134.587 147.557 134.763 147.348 134.9 147.106C135.037 146.863 134.942 146.997 134.967 146.932C135.048 146.815 135.131 146.714 135.22 146.617C135.373 146.447 135.517 146.282 135.682 146.121L135.879 145.931L136.008 145.826C136.203 145.72 136.392 145.551 136.587 145.445L136.802 145.342L136.988 145.242C137.175 145.174 137.384 145.108 137.584 145.064L137.902 145.021C137.858 144.983 137.679 144.988 137.968 145.078L138.187 145.137L138.727 145.602L138.905 145.885L139.021 146.115L139.22 146.763L139.316 147.162L139.394 147.532L139.424 147.76L139.476 148.237C139.508 148.495 139.528 148.787 139.542 149.058C139.555 149.329 139.572 149.704 139.58 150.028C139.585 149.614 139.609 149.952 139.58 150.028L139.563 150.662C139.552 150.941 139.547 151.239 139.527 151.539L139.486 152.066C139.358 152.229 139.221 152.356 139.078 152.479L138.94 152.59L138.567 152.874C138.338 153.051 138.123 153.227 137.891 153.373C137.665 153.524 137.448 153.669 137.21 153.81L137.033 153.888L136.776 153.984C136.673 154.024 136.576 154.028 136.477 154.057L136.37 154.067L136.152 154.023L135.932 153.948L135.59 153.654L135.535 153.434C135.519 152.368 135.203 151.778 134.6 151.648L134.386 151.593C134.32 151.536 134.287 151.508 134.304 151.522L134.183 151.418L134.26 151.484C134.177 151.413 134.144 151.384 134.199 151.432L133.995 151.256L134.158 150.776C134.33 150.233 134.385 149.689 134.325 149.176C134.304 149 134.27 148.841 134.226 148.688C134.285 148.536 134.339 148.395 134.393 148.254C134.451 148.103 134.485 147.901 134.535 147.771L134.479 147.839ZM113.589 165.462L113.582 165.614C113.582 165.614 113.585 165.472 113.601 165.429L113.589 165.462ZM113.775 166.487C113.775 166.487 113.791 166.443 113.787 166.454L113.775 166.487ZM114.637 168.959C114.668 168.972 114.696 168.996 114.719 169.03L114.637 168.959ZM115.332 168.982L115.086 169.029L114.96 168.92C114.983 168.782 115.001 168.639 115.014 168.492C115.051 167.803 114.956 167.23 114.712 166.776C114.47 166.336 114.146 166.129 113.742 166.17L113.786 166.208L113.723 165.952C113.723 165.952 113.695 165.74 113.685 165.631C113.684 165.5 113.694 165.379 113.704 165.258C113.715 165.095 113.731 164.921 113.756 164.74L113.77 164.551C113.816 164.432 113.862 164.313 113.87 164.291C113.894 164.153 113.923 164.019 113.956 163.875C113.98 163.737 114.015 163.608 114.048 163.464L114.135 163.237C114.227 162.941 114.339 162.648 114.468 162.37C114.514 162.251 114.564 162.121 114.614 161.991C114.664 161.861 114.664 161.861 114.668 161.85C114.676 161.829 114.96 161.396 115.004 161.318L115.212 161.007L115.357 160.858L115.538 160.654C115.671 160.595 115.826 160.44 115.938 160.378L116.058 160.294L116.108 160.337C116.24 160.278 116.369 160.23 116.504 160.203L116.592 160.279L116.784 160.314L116.988 160.49C117.065 160.557 117.076 160.566 117.032 160.528L117.269 160.732L117.432 161.032L117.489 161.21C117.533 161.248 117.532 161.421 117.576 161.516C117.598 161.766 117.629 162.009 117.648 162.284L117.662 162.44L117.624 162.538L117.625 162.726C117.615 163.02 117.595 163.32 117.57 163.615C117.558 163.836 117.536 164.047 117.509 164.269C117.509 164.269 117.509 164.269 117.459 164.399L117.371 164.915C117.296 165.282 117.224 165.624 117.132 165.977C117.093 166.116 117.043 166.246 116.978 166.378C116.87 166.659 116.757 166.952 116.641 167.255C116.524 167.558 116.516 167.58 116.458 167.732C116.395 167.894 116.395 167.894 116.4 167.883C116.28 168.098 116.145 168.298 116.008 168.483L115.744 168.789L115.706 168.886L115.557 168.988L115.332 168.982ZM139.569 99.8362L139.656 99.7814C139.656 99.7814 139.7 99.8194 139.602 99.8647L139.569 99.8362ZM163.623 130.003L163.589 130.09C163.654 130.016 163.736 130.014 163.711 130.079L163.623 130.003ZM162.719 124.756C162.824 124.673 162.889 124.657 162.719 124.756V124.756ZM162.061 130.575L161.929 130.461C161.929 130.461 162.015 130.579 162.09 130.671L162.061 130.575ZM155.591 200.367C150.86 199.564 146.195 198.514 141.575 197.229C141.749 195.88 141.794 194.578 141.701 193.33C141.585 191.457 141.199 189.884 140.531 188.588C140.118 187.886 139.614 187.423 139.004 187.215C138.394 187.007 137.762 187.068 137.102 187.392C135.976 187.821 134.938 188.729 133.988 190.115C133.031 191.497 132.322 193.134 131.853 195.023C131.481 196.677 131.398 198.249 131.586 199.766C131.778 201.272 132.217 202.458 132.9 203.334C132.809 203.876 132.812 204.383 132.904 204.852C133.001 205.324 133.174 205.675 133.423 205.905C133.576 206.08 133.742 206.222 133.919 206.332C132.585 214.408 131.584 222.455 130.909 230.495C130.203 230.823 129.516 231.313 128.842 231.943C127.849 232.846 127.042 234.126 126.421 235.782C125.745 237.693 125.588 239.533 125.959 241.28C126.294 242.794 126.904 243.824 127.784 244.395C128.868 244.954 130.026 245.13 131.253 244.933C131.605 244.876 131.92 244.628 132.218 244.178C132.436 244.525 132.702 244.711 133.029 244.719C133.352 244.738 133.675 244.584 133.989 244.263C134.776 243.456 135.413 242.39 135.91 241.06C136.397 239.735 136.66 238.362 136.69 236.946C136.754 235.444 136.582 234.114 136.167 232.963C135.746 231.822 135.157 231.026 134.385 230.592C134.229 230.501 134.07 230.421 133.907 230.367C134.551 222.331 135.551 214.268 136.896 206.201C137.839 205.658 138.696 204.782 139.479 203.583C139.726 203.19 139.95 202.778 140.162 202.34C145.104 203.758 150.117 204.877 155.193 205.718C155.393 207.03 155.737 208.177 156.235 209.154C156.203 209.313 156.186 209.472 156.18 209.64C156.135 210.35 156.241 210.932 156.499 211.37C156.757 211.824 157.099 212.003 157.512 211.94C159.471 211.538 161.254 210.047 162.852 207.473C164.557 204.676 165.772 200.634 164.574 197.814C163.928 196.594 163.076 195.947 162.028 195.851C161.259 195.636 160.467 195.616 159.647 195.803C158.859 195.946 158.104 196.42 157.376 197.248C156.651 198.066 156.053 199.107 155.591 200.367ZM132.026 235.32C131.768 235.285 131.96 235.263 132.026 235.32V235.32ZM132.651 235.47L132.7 235.512C132.496 235.509 132.7 235.512 132.739 235.546L133.202 235.944L133.345 236.183L133.45 236.273C133.51 236.325 133.545 236.542 133.569 236.65C133.594 236.758 133.569 236.65 133.641 236.712C133.667 236.893 133.693 237.073 133.699 237.266C133.699 237.266 133.683 237.498 133.704 237.559C133.704 237.559 133.67 237.991 133.657 238.196C133.631 238.246 133.606 238.311 133.591 238.37C133.528 238.532 133.462 238.705 133.446 238.937L133.226 239.511C133.191 239.582 133.162 239.658 133.138 239.738C133.029 239.832 132.892 240.017 132.797 240.093C132.722 240.173 132.649 240.268 132.579 240.353C132.319 239.941 131.987 239.756 131.588 239.801L130.665 239.856L130.316 239.83C130.105 239.806 129.902 239.761 129.702 239.69L128.859 238.963L128.775 238.704C128.775 238.704 128.825 238.574 128.821 238.585L129.004 238.108C129.023 238.038 129.052 237.963 129.083 237.902C129.134 237.788 129.197 237.683 129.27 237.588L129.366 237.339L129.63 237.033C129.745 236.887 129.866 236.761 129.995 236.655C130.061 236.597 130.137 236.533 130.209 236.48C130.349 236.384 130.49 236.303 130.635 236.212L130.858 236.088L131.02 236.011L130.901 236.052C131.194 235.901 131.484 235.834 131.771 235.85C131.771 235.85 131.865 235.931 131.948 235.83C132.097 235.843 132.232 235.873 132.368 235.918L132.651 235.47ZM135.073 198.994L135.035 198.961C134.802 198.746 134.981 198.871 135.073 198.994ZM135.641 193.774C135.682 193.666 135.807 193.571 135.641 193.774V193.774ZM135.166 194.533C135.166 194.533 135.108 194.684 135.079 194.76C135.049 194.836 135.114 194.516 135.143 194.498L135.166 194.533ZM134.638 197.912L134.578 197.227L134.587 196.975C134.592 196.849 134.596 196.723 134.616 196.596C134.617 196.496 134.624 196.401 134.641 196.3C134.665 196.105 134.683 196.192 134.579 196.463C134.562 196.276 134.696 195.872 134.74 195.679C134.753 195.647 134.769 195.604 134.782 195.571L134.827 195.452C134.884 195.285 134.951 195.111 135.023 194.943C135.049 194.893 135.074 194.828 135.09 194.77C135.152 194.607 135.214 194.445 135.324 194.351L135.574 193.947L135.981 193.462L136.297 193.172C136.444 193.039 136.588 192.932 136.738 192.846L136.981 192.709L137.114 192.65L137.218 192.61L137.483 192.55L137.619 192.538L137.789 192.554L137.932 192.678L138.104 192.956L138.194 193.162L138.257 193.361L138.358 193.708C138.424 193.938 138.47 194.179 138.525 194.4L138.577 194.877C138.609 195.135 138.642 195.394 138.655 195.665C138.669 195.936 138.655 196.371 138.66 196.188C138.659 196.418 138.648 196.639 138.637 196.86L138.607 197.281C138.607 197.281 138.496 198.065 138.561 197.4C138.508 197.787 138.434 198.17 138.35 198.559C138.305 198.678 138.259 198.798 138.217 198.906C138.167 199.036 138.117 199.166 138.067 199.296C138.017 199.426 137.968 199.556 137.922 199.675C137.909 199.707 137.901 199.729 137.889 199.762C137.762 200.013 137.625 200.256 137.476 200.473C137.451 200.538 137.426 200.603 137.401 200.668L137.293 200.777C137.22 200.872 137.145 200.952 137.075 201.021C137.075 201.021 136.889 201.178 136.871 201.206L136.491 201.47L136.301 201.565L136.181 201.591C136.218 201.018 136.15 200.527 135.981 200.107C135.812 199.688 135.569 199.421 135.26 199.328L135.023 199.124C134.944 198.969 134.858 198.809 134.765 198.67L134.726 198.637L134.612 198.265L134.563 198.222L134.638 197.912ZM159.477 206.022C159.539 205.975 159.596 205.923 159.647 205.866C159.647 205.866 159.526 205.934 159.453 205.972L159.477 206.022ZM160.6 204.856L160.658 204.704C160.658 204.704 160.606 204.746 160.6 204.741L160.6 204.856ZM161.55 203.281C161.573 203.201 161.603 203.125 161.637 203.054C161.637 203.054 161.592 203.058 161.546 203.177L161.55 203.281ZM158.538 204.953L158.5 204.92C158.404 204.521 158.499 204.732 158.543 204.828L158.538 204.953ZM162.088 201.612C162.124 201.671 162.124 201.671 162.065 201.577L162.088 201.612ZM159.042 201.121C159.276 201.105 159.563 200.949 159.8 200.923C160.032 200.892 160.072 200.941 160.198 200.92L160.419 200.937C160.682 200.977 160.941 201.027 161.198 201.104C161.341 201.227 161.54 201.226 161.708 201.284L161.995 201.531C161.874 201.427 161.995 201.531 162.05 201.578L162.088 201.612C162.072 201.655 162.055 201.698 162.039 201.742C162.039 201.742 162.039 201.742 161.989 201.872C161.965 201.952 161.932 202.039 161.897 202.11L161.855 202.218C161.806 202.348 161.781 202.413 161.806 202.348C161.767 202.488 161.721 202.607 161.664 202.717C161.618 202.836 161.573 202.955 161.523 203.085C161.431 203.323 161.237 203.617 161.218 203.63C161.073 203.894 160.922 204.153 160.764 204.392C160.764 204.392 160.764 204.392 160.714 204.522L160.621 204.629C160.278 205.083 159.916 205.492 159.548 205.838L159.449 205.925C159.39 205.962 159.332 205.998 159.28 206.04C159.1 205.783 158.939 205.515 158.785 205.209L158.603 204.822C158.565 204.674 158.517 204.532 158.461 204.411L158.289 203.845L158.225 203.573L158.165 203.118L158.135 202.775L158.164 202.281C158.164 202.281 158.164 202.281 158.201 202.184C158.239 202.086 158.201 202.184 158.255 202.043C158.286 201.983 158.311 201.918 158.33 201.848C158.313 201.891 158.301 201.924 158.284 201.967L158.434 201.577L158.68 201.299L158.809 201.194L159.042 201.121ZM161.996 202.195L161.917 202.401C161.92 202.317 161.929 202.238 161.941 202.148L161.996 202.195ZM158.202 202.257C158.219 202.213 158.232 202.181 158.248 202.138L158.294 202.018C158.185 202.112 158.158 202.219 158.147 202.209L158.202 202.257ZM133.557 236.682L133.598 236.862C133.519 236.78 133.552 236.693 133.557 236.682ZM133.64 237.706C133.583 237.455 133.634 237.455 133.64 237.706V237.706ZM-78.9252 190.13C-78.9597 190.143 -78.9929 190.172 -79.0219 190.19C-79.0219 190.19 -78.9072 190.102 -78.9252 190.13ZM-48.0375 177.473C-48.0375 177.473 -48.0375 177.473 -48.0916 177.614C-48.0805 177.566 -48.0541 177.516 -48.032 177.478L-48.0375 177.473ZM-47.9532 176.681L-47.9342 176.841C-47.9437 176.79 -47.9436 176.732 -47.9422 176.69L-47.9532 176.681ZM-48.0668 176.193L-48.0227 176.231C-48.0227 176.231 -48.0201 176.32 -48.0475 176.181L-48.0668 176.193ZM-48.7719 175.413C-48.838 175.356 -48.8766 175.323 -48.8932 175.309L-48.7719 175.413ZM-51.6815 176.38C-51.6607 176.326 -51.6358 176.261 -51.615 176.207C-51.5904 176.372 -51.6319 176.423 -51.6333 176.408L-51.6815 176.38ZM-51.8188 176.738C-51.7884 176.678 -51.7634 176.613 -51.7439 176.543C-51.7439 176.543 -51.7814 176.64 -51.8313 176.77L-51.8188 176.738ZM-48.9562 179.406L-49.0061 179.536C-48.9894 179.493 -48.9686 179.439 -48.952 179.395L-48.9562 179.406ZM-48.9046 221.949L-44.2088 204.111C-43.3686 204.215 -42.5247 203.89 -41.6732 203.124C-40.5949 202.151 -39.709 200.78 -39.0156 199.013C-38.2776 196.997 -37.8362 194.912 -37.6871 192.748C-37.5121 190.708 -37.4697 188.726 -37.5516 186.781C-37.5937 185.707 -37.8128 184.826 -38.2048 184.128C-38.6023 183.425 -39.1108 183.031 -39.7303 182.944C-40.902 182.958 -42.0377 183.623 -43.118 184.926C-44.1954 186.146 -45.1682 187.571 -46.0463 189.208C-47.1581 191.09 -47.7887 193.228 -47.9437 195.617C-47.9809 197.776 -47.4911 199.308 -46.4827 200.235C-46.4139 200.323 -46.3312 200.394 -46.2457 200.439L-51.6578 221.191C-52.993 221.555 -54.2122 222.609 -55.3071 224.332C-55.3676 224.223 -55.4378 224.119 -55.5121 224.026C-60.0309 219.196 -64.6967 214.729 -69.5204 210.616C-69.4302 210.305 -69.3757 209.991 -69.3627 209.671C-69.3581 209.43 -69.3632 209.195 -69.3931 208.967C-64.2837 200.784 -59.0424 192.888 -53.6595 185.272C-53.4903 185.576 -53.2879 185.794 -53.0466 185.93C-52.2441 186.246 -51.3939 186.229 -50.5059 185.884C-49.6137 185.529 -48.7623 184.878 -47.9532 183.917C-46.1454 181.828 -44.5679 178.141 -44.8499 174.77C-45.0254 173.394 -45.4124 172.282 -46.0111 171.434C-46.6002 170.581 -47.3238 170.116 -48.1682 170.023C-49.0635 169.813 -49.9816 169.988 -50.9321 170.553C-51.8813 171.134 -52.7469 172.031 -53.5332 173.257C-54.0164 174.095 -54.3839 175.032 -54.6343 176.085C-54.8805 177.127 -54.9846 178.162 -54.9479 179.174C-54.9174 179.82 -54.8261 180.403 -54.6767 180.95C-54.9171 181.118 -55.1467 181.352 -55.3653 181.654C-60.4714 188.874 -65.458 196.356 -70.3347 204.105L-70.7121 202.28L-71.0854 200.445L-71.1688 200.013L-71.2056 199.765L-71.2479 199.512L-71.3407 198.971C-71.6682 197.016 -71.9446 195.063 -72.185 193.054C-71.962 192.626 -71.7514 192.173 -71.5628 191.701C-70.6296 189.348 -69.9818 186.879 -69.6194 184.294C-69.1507 181.641 -69.1916 179.227 -69.7491 177.031C-70.0537 176.106 -70.4483 175.319 -70.937 174.682C-71.4257 174.044 -71.981 173.58 -72.6029 173.29C-73.2289 173.01 -73.8842 172.921 -74.5786 173.029C-75.2688 173.126 -75.9622 173.423 -76.6545 173.907C-78.049 174.94 -79.2897 176.452 -80.3782 178.426C-81.4667 180.4 -82.2658 182.595 -82.7797 185.021C-83.4738 187.897 -83.4539 190.48 -82.7309 192.761C-82.1612 194.333 -81.3003 195.205 -80.1386 195.37C-80.0737 196.06 -79.8801 196.587 -79.5537 196.94C-78.9917 197.54 -78.3575 197.856 -77.6345 197.902C-76.9128 197.933 -76.1891 197.691 -75.454 197.171C-75.3047 197.069 -75.1637 196.931 -75.0172 196.798C-74.4657 200.747 -73.7816 204.58 -72.9593 208.302C-76.2496 209.878 -79.4502 212.195 -82.557 215.241L-82.6121 215.194C-83.1574 213.845 -83.8898 212.868 -84.8119 212.289C-85.7354 211.696 -86.7412 211.564 -87.8294 211.895C-88.3761 212.001 -88.9203 212.253 -89.4634 212.635C-90.001 213.023 -90.5181 213.529 -90.9995 214.152C-91.4906 214.781 -91.9239 215.489 -92.3119 216.308C-92.7012 217.111 -93.0189 217.977 -93.2705 218.899C-93.7549 221.076 -93.7517 223.054 -93.2652 224.843C-92.9419 226.101 -92.3846 226.942 -91.6084 227.366C-91.6274 227.912 -91.5552 228.392 -91.3834 228.785C-91.2117 229.178 -90.9761 229.424 -90.6768 229.523C-89.6755 229.838 -88.6278 229.689 -87.5378 229.085C-86.4477 228.482 -85.4522 227.494 -84.5415 226.117C-83.4094 224.411 -82.6658 222.399 -82.3067 220.07C-82.0072 220.054 -81.7102 219.892 -81.4198 219.595C-80.9829 219.164 -80.5405 218.738 -80.0912 218.332L-79.4235 217.739L-79.3902 217.653C-79.2768 217.549 -79.1525 217.454 -79.0239 217.348C-78.149 216.617 -77.2576 215.958 -76.3801 215.374C-75.4971 214.794 -74.5838 214.211 -73.6762 213.739L-72.3418 213.072C-72.4473 214.091 -72.2554 214.776 -71.7606 215.13C-66.8556 219.356 -62.0796 223.918 -57.4465 228.832L-57.2426 229.008C-57.567 230.502 -57.7092 231.979 -57.665 233.43C-57.8877 233.685 -58.0746 234 -58.2147 234.384C-58.5296 235.222 -58.5932 236.018 -58.4069 236.755C-61.3055 240.615 -63.9827 244.911 -66.4399 249.627C-66.6144 249.967 -66.76 250.346 -66.8684 250.743C-67.0597 250.477 -67.2677 250.255 -67.4923 250.076C-68.2351 249.508 -69.0601 249.345 -69.9575 249.581C-70.8592 249.827 -71.7188 250.442 -72.5307 251.429C-73.5337 252.684 -74.217 254.272 -74.5864 256.188C-74.974 258.247 -74.9126 260.073 -74.3912 261.676C-74.2336 262.259 -73.9583 262.611 -73.5665 262.718C-73.179 262.836 -72.7895 262.681 -72.3981 262.254C-72.0068 261.827 -71.7297 261.259 -71.5724 260.544C-71.4096 259.834 -71.4055 259.174 -71.5631 258.591C-71.6359 258.399 -71.6825 258.215 -71.7346 258.025L-71.7671 257.709L-71.7845 257.449L-71.7673 257.118C-71.7673 257.118 -71.6924 256.923 -71.7295 256.79C-71.7609 256.662 -71.6293 256.357 -71.6181 256.309C-71.6098 256.288 -71.5973 256.255 -71.589 256.234C-71.5599 256.158 -71.5349 256.093 -71.5058 256.017C-71.4392 255.844 -71.3092 255.696 -71.2151 255.547C-71.1681 255.501 -71.1224 255.439 -71.0726 255.367L-70.9067 255.221C-70.7975 255.128 -70.687 255.05 -70.5806 254.983L-70.401 254.879L-69.9964 254.78L-69.8846 254.776L-69.5632 254.836L-69.0286 255.297L-68.8925 255.573L-68.7718 255.965L-68.7198 256.212C-68.6926 256.408 -68.675 256.611 -68.6658 256.835C-68.6495 256.964 -68.6429 257.1 -68.6556 257.247L-68.6733 257.866L-68.7212 258.373C-68.7669 258.492 -68.8169 258.622 -68.7923 258.787L-68.9371 259.412L-69.0328 259.661C-69.1091 259.898 -69.1923 260.115 -69.2866 260.322C-69.3255 260.462 -69.3754 260.592 -69.4364 260.712C-69.6386 261.086 -69.8518 261.45 -70.0719 261.793L-70.3209 262.098C-70.4785 262.279 -70.6375 262.445 -70.7924 262.6L-70.9818 262.768C-70.6997 262.492 -70.9818 262.768 -71.0109 262.844C-71.04 262.92 -71.3412 263.093 -71.5153 263.202L-72.0168 263.477L-72.2847 263.563C-72.6534 263.663 -73.0109 263.716 -73.3628 263.715C-73.7674 263.814 -74.1323 264.133 -74.4521 264.68C-74.772 265.226 -74.9677 265.85 -75.0298 266.546C-75.0628 267.224 -74.9576 267.79 -74.7059 268.224C-74.4597 268.652 -74.1413 268.854 -73.7424 268.809C-71.9179 268.795 -70.1921 267.701 -68.5567 265.506C-67.7473 264.431 -67.0825 263.158 -66.5594 261.663C-66.0404 260.178 -65.7201 258.638 -65.597 257.057C-65.5036 255.84 -65.5483 254.677 -65.7284 253.599C-65.3088 253.557 -64.9425 253.253 -64.6157 252.669C-61.9037 247.481 -58.9084 242.854 -55.6383 238.809C-54.3229 238.746 -53.0123 238.217 -51.7021 237.213C-50.598 236.477 -49.6256 235.34 -48.7809 233.79C-47.9193 232.139 -47.4246 230.317 -47.3062 228.328C-47.2291 226.982 -47.3262 225.745 -47.6069 224.624C-47.8877 223.503 -48.3221 222.609 -48.9046 221.949ZM-51.9615 177.739C-51.9587 177.713 -51.9462 177.68 -51.9324 177.663L-51.9615 177.739ZM-52.0226 177.917L-52.0887 177.86C-52.0887 177.86 -52.0141 177.838 -51.9934 177.842L-52.0226 177.917ZM-51.7524 176.622C-51.7261 176.573 -51.7094 176.529 -51.6983 176.481C-51.6983 176.481 -51.6983 176.481 -51.6484 176.351C-51.6414 176.314 -51.6289 176.282 -51.6109 176.254C-51.4906 176.112 -51.3702 175.971 -51.2417 175.866L-51.1546 175.811C-50.9874 175.681 -50.8175 175.582 -50.642 175.488L-50.6035 175.522L-50.5027 175.508L-50.0953 175.383L-49.6867 175.331C-49.9186 175.362 -49.6371 175.374 -49.593 175.412L-49.0676 175.591C-49.1062 175.557 -49.0676 175.591 -49.018 175.633L-48.3787 176.184L-48.1764 176.517L-48.2371 176.465L-48.1434 176.546C-48.0993 176.584 -48.0828 176.598 -48.0883 176.593L-48.0332 176.641L-48.0253 176.849C-47.992 176.763 -47.9878 176.752 -48.0048 176.968L-47.9662 177.001L-47.9902 177.254C-48.0276 177.352 -48.0651 177.449 -48.0584 177.585C-48.0584 177.585 -48.0584 177.585 -48.0875 177.66C-48.1458 177.812 -48.1499 177.823 -48.1333 177.78C-48.1708 177.877 -48.2124 177.985 -48.2498 178.083C-48.2914 178.191 -48.383 178.429 -48.4454 178.592C-48.3913 178.451 -48.2917 178.364 -48.4454 178.592C-48.4717 178.641 -48.4883 178.685 -48.5036 178.744L-48.5868 178.96C-48.6659 179.166 -48.8014 179.309 -48.9039 179.48L-48.9455 179.588C-48.9455 179.588 -48.9455 179.588 -48.9954 179.718C-49.0453 179.848 -49.0328 179.816 -49.037 179.827C-49.1795 180.007 -49.3288 180.166 -49.474 180.315C-49.539 180.389 -49.5999 180.452 -49.6662 180.51L-50.1388 180.823L-50.3861 180.971L-50.5146 181.019L-50.7534 181.087L-50.9453 181.109C-50.8212 180.423 -50.8393 179.802 -51.0039 179.256C-51.1643 178.7 -51.4328 178.368 -51.801 178.238L-52.0104 178.058C-52.0283 178.028 -52.0324 177.981 -52.0309 177.939L-51.9648 177.996L-52.0529 177.92L-52.0567 177.701L-52.068 177.864C-52.0181 177.734 -52.0453 177.537 -52.0395 177.369L-51.898 177.001C-51.898 177.001 -51.898 177.001 -51.9313 177.088C-51.9313 177.088 -51.898 177.001 -51.8855 176.969C-51.7495 176.538 -51.7287 176.484 -51.7411 176.516L-51.7524 176.622ZM-76.3409 192.587L-76.7758 192.688L-76.8144 192.655L-77.2089 192.574C-77.1475 192.223 -77.1303 191.892 -77.1587 191.565C-77.2209 190.906 -77.4201 190.432 -77.7563 190.142C-78.087 189.857 -78.461 189.838 -78.8782 190.084L-78.9886 190.104C-79.0686 190.064 -79.1569 190.045 -79.2494 190.038L-79.8005 189.563L-79.9476 189.278L-80.0435 188.935L-80.0821 188.902C-80.1175 188.612 -80.1376 188.321 -80.1439 188.013L-80.1281 187.666C-80.1166 187.445 -80.09 187.223 -80.0785 187.002C-80.067 186.782 -80.0286 186.872 -80.0422 186.774C-80.0655 186.682 -79.9751 186.313 -79.9333 186.09C-79.8914 185.866 -79.762 185.3 -79.6481 184.908C-79.6481 184.908 -79.5357 184.616 -79.5191 184.572C-79.5119 184.42 -79.4992 184.272 -79.5059 184.137C-79.3644 183.769 -79.2271 183.411 -79.0856 183.043C-78.9442 182.675 -78.9317 182.642 -78.8526 182.436C-78.7736 182.231 -78.6987 182.036 -78.6737 181.971C-78.0488 180.649 -77.3044 179.647 -76.4364 178.954C-76.6451 179.134 -76.1586 178.746 -76.0771 178.686L-75.6833 178.463L-75.5065 178.385C-75.3284 178.322 -75.1531 178.286 -74.9819 178.261L-74.7279 178.249L-74.4396 178.281C-74.252 178.327 -74.0685 178.384 -73.8934 178.463L-73.1604 179.095C-73.0035 179.316 -72.8494 179.564 -72.7133 179.84L-72.6747 179.874L-72.5651 180.256L-72.498 180.559L-72.4434 180.895C-72.3592 181.573 -72.3591 182.279 -72.4475 183.025C-72.5193 183.784 -72.6381 184.533 -72.8078 185.28C-72.8957 185.738 -72.9987 186.197 -73.1113 186.662C-73.2198 187.116 -73.2528 187.03 -73.2574 187.272C-73.2574 187.272 -73.4696 187.824 -73.4738 187.835C-73.6876 188.544 -73.9414 189.205 -74.2435 189.838C-74.7162 190.21 -75.0789 190.791 -75.3371 191.578L-75.6621 191.946L-75.9205 192.142C-76.0642 192.249 -76.2148 192.335 -76.3668 192.406C-76.3668 192.406 -76.0468 192.509 -76.3409 192.587ZM-85.1733 219.417L-85.1771 219.255C-85.173 219.302 -85.1731 219.359 -85.1733 219.417ZM-85.7896 217.66C-85.7249 217.759 -85.5981 217.869 -85.7896 217.66V217.66ZM-90.2192 218.918C-90.4186 219.266 -90.276 219.028 -90.2192 218.918V218.918ZM-90.5839 220.594L-90.5954 220.814C-90.6063 220.747 -90.6034 220.663 -90.5839 220.594ZM-90.3371 222.147C-90.3371 222.147 -90.3371 222.147 -90.2655 222.209L-90.3371 222.147ZM-86.3441 222.617C-86.3594 222.676 -86.376 222.72 -86.4024 222.769C-86.556 222.997 -86.7178 223.189 -86.8879 223.346C-86.9378 223.476 -87.0704 223.534 -87.1589 223.631L-87.2005 223.739C-87.3691 223.854 -87.5363 223.983 -87.7104 224.093L-87.9923 224.254L-88.0945 224.31C-88.2837 224.363 -88.4618 224.426 -88.6427 224.457L-88.6923 224.415C-88.7007 223.787 -88.8212 223.28 -89.0634 222.898C-89.3055 222.517 -89.6157 222.35 -89.9898 222.388C-89.8738 222.373 -89.6599 222.37 -89.9898 222.388L-90.2433 222.17L-90.3602 221.94L-90.4153 221.892L-90.4451 221.607C-90.4451 221.607 -90.6043 221.124 -90.4958 221.433C-90.3874 221.743 -90.4958 221.433 -90.4667 221.358L-90.5416 220.846L-90.4917 220.716L-90.4786 220.338C-90.4632 220.222 -90.4533 220.101 -90.4476 219.99L-90.4355 219.482C-90.4161 219.412 -90.387 219.336 -90.3565 219.276C-90.369 219.308 -90.3856 219.352 -90.3981 219.384C-90.5645 219.817 -90.2566 219.016 -90.2025 218.875C-90.1706 218.773 -90.1373 218.686 -90.0985 218.604C-90.0417 218.495 -89.9794 218.39 -89.9171 218.285C-89.7595 218.104 -89.6018 217.922 -89.4428 217.756C-89.3861 217.704 -89.3336 217.663 -89.281 217.622L-89.205 217.558L-88.7421 217.25L-88.5018 217.14C-88.1718 217.064 -87.8515 216.994 -87.5313 216.982L-87.2636 217.01C-87.087 217.047 -86.9091 217.1 -86.734 217.178L-86.012 217.8C-85.913 218.001 -85.7961 218.174 -85.6652 218.33L-85.5109 218.463C-85.456 218.625 -85.4053 218.799 -85.3684 218.989C-85.3975 219.065 -85.3482 219.223 -85.3387 219.332C-85.3886 219.462 -85.3891 219.692 -85.4045 219.809L-85.5354 220.417L-85.7517 220.98C-85.8183 221.153 -85.8932 221.348 -85.9681 221.543C-86.0346 221.716 -86.1012 221.89 -86.2381 222.017L-86.3441 222.617ZM-71.4102 255.825L-71.3811 255.75C-71.3811 255.75 -71.3936 255.782 -71.4102 255.825ZM-44.8761 195.766C-44.8303 195.647 -44.8137 195.604 -44.7887 195.539C-44.8233 195.61 -44.8525 195.686 -44.8816 195.761L-44.8761 195.766ZM-42.7356 198.634C-42.8268 198.699 -42.773 198.731 -42.7356 198.634V198.634ZM-40.7268 188.097C-40.7268 188.097 -40.7017 187.916 -40.6798 188.051L-40.7268 188.097ZM-40.7268 188.097C-40.728 187.966 -40.7389 187.899 -40.6937 188.067L-40.7268 188.097ZM-44.8568 195.047L-44.9144 194.854L-44.9238 194.745C-44.9057 194.659 -44.8918 194.585 -44.8792 194.495C-44.8251 194.354 -44.7752 194.224 -44.7817 194.031C-44.7827 193.843 -44.7526 193.955 -44.7318 193.901C-44.6221 193.577 -44.4973 193.252 -44.3615 192.937C-44.3615 192.937 -44.3199 192.829 -44.2949 192.764L-44.0789 192.373C-43.7382 191.773 -43.3852 191.198 -43.0143 190.652C-42.8469 190.407 -42.6891 190.168 -42.5258 189.934C-42.4235 189.821 -42.3335 189.682 -42.2353 189.579C-41.9628 189.252 -41.6779 188.949 -41.3849 188.683C-41.2757 188.59 -41.1651 188.512 -41.0546 188.434L-40.8805 188.325L-40.7962 188.296L-40.7518 188.868L-40.7634 189.204L-40.7793 190.257C-40.7904 191.012 -40.8153 191.783 -40.8636 192.52C-40.898 193.182 -40.9586 193.836 -41.0495 194.493C-41.0703 194.547 -41.087 194.591 -41.1078 194.645L-41.2054 195.166C-41.2876 195.571 -41.3821 195.951 -41.4754 196.346C-41.5378 196.509 -41.6002 196.671 -41.6584 196.823C-41.7208 196.985 -41.7583 197.083 -41.8082 197.213C-41.9563 197.446 -42.1017 197.71 -42.2485 197.958L-42.2818 198.045L-42.4851 198.287L-42.7036 198.532L-42.7411 198.629L-42.9373 198.777C-42.6809 198.205 -42.539 197.607 -42.5226 196.972C-42.4966 196.331 -42.6032 195.807 -42.8274 195.398C-43.0433 195.024 -43.3148 194.833 -43.6516 194.832C-43.9938 194.825 -44.3199 195.006 -44.6352 195.368L-44.8226 195.207L-44.8568 195.047ZM-51.0683 231.228L-51.5219 231.76L-51.7653 232.012L-51.8787 232.116C-52.3029 232.399 -52.6995 232.706 -53.1236 232.932C-53.324 233.033 -53.5284 233.145 -53.7314 233.215L-54.1664 233.374L-54.3625 233.407L-54.4501 233.043L-54.4995 232.885L-54.547 232.455L-54.6035 231.685C-54.5963 231.533 -54.5891 231.381 -54.5764 231.233C-54.569 230.966 -54.5464 230.697 -54.5183 230.433L-54.4444 230.049C-54.4011 229.784 -54.3426 229.517 -54.2732 229.26C-54.2732 229.26 -54.2399 229.173 -54.2232 229.13C-54.1954 229.038 -54.1622 228.952 -54.1234 228.87C-54.0318 228.632 -53.9403 228.393 -53.8404 228.133C-53.7988 228.025 -53.7489 227.895 -53.6687 227.82C-53.6064 227.715 -53.5441 227.61 -53.4708 227.515C-53.4596 227.467 -53.443 227.423 -53.4209 227.385C-53.4097 227.337 -53.3931 227.293 -53.3668 227.244C-53.3168 227.114 -53.1953 227.046 -53.1109 226.96C-53.0127 226.857 -52.909 226.759 -52.8082 226.687C-52.6796 226.582 -52.5497 226.492 -52.413 226.422L-52.2333 226.318L-51.7225 226.21L-51.5792 226.333L-51.3062 226.425L-50.8763 226.795L-50.7016 227.104L-50.6357 227.276L-50.5507 227.609L-50.5011 227.652L-50.4753 227.832C-50.4467 228.044 -50.4333 228.258 -50.4296 228.477C-50.4296 228.477 -50.4249 228.943 -50.4376 229.09L-50.47 229.423C-50.5491 229.629 -50.573 229.882 -50.6204 230.1C-50.6883 230.258 -50.7507 230.421 -50.8034 230.577L-50.9283 230.902C-50.9313 231.044 -51.0033 231.155 -51.0697 231.27L-51.0683 231.228ZM76.3081 23.2313C72.2739 26.9923 68.7866 32.003 65.8462 38.2634C62.3465 45.4834 59.2846 53.9312 58.1972 62.5666C57.6832 66.5206 57.7521 70.1984 58.4067 73.6311C59.171 76.6251 60.2287 79.2374 61.559 81.4648C62.7041 83.7921 63.6147 86.1192 62.9039 89.8027C62.3265 92.2605 62.1301 94.6429 62.3065 96.9717C61.6944 97.3238 61.1275 97.9021 60.614 98.685C60.1019 99.4836 59.7013 100.393 59.4192 101.433C59.1287 102.494 59.0108 103.546 59.0557 104.594C58.7434 104.815 58.4365 105.098 58.146 105.453C56.9288 106.884 56.1524 108.752 55.8113 111.053C55.6202 112.143 55.574 113.199 55.677 114.21C55.734 114.692 55.8242 115.144 55.9463 115.552C55.2408 116.415 54.7171 117.492 54.3655 118.789C54.0097 120.097 53.8997 121.357 54.0367 122.585C54.428 125.099 55.344 126.725 56.7945 127.455C59.4172 129.297 62.322 130.863 65.5838 129.017C67.3812 128.042 68.838 126.141 69.9336 123.308C70.4317 121.935 70.6524 120.539 70.6012 119.125C71.7309 117.98 72.4999 116.379 72.8985 114.329C73.218 112.485 73.1023 110.915 72.5542 109.593C73.0977 108.273 73.4012 106.891 73.4743 105.441C73.5339 103.892 73.3778 102.503 73.0048 101.259C73.5846 100.418 74.1454 99.4739 74.7541 98.6721C79.1164 92.9304 84.5221 92.1675 88.964 86.6386C94.2027 80.124 97.668 69.9767 99.711 60.2474C100.631 55.9803 101.16 51.7216 101.298 47.4866C101.43 43.247 101.168 39.2303 100.505 35.4582C99.0163 27.9336 94.582 24.3725 90.4816 21.6037C88.3195 19.8995 85.9349 19.0991 83.3361 19.181C80.9381 19.6377 78.5922 20.9898 76.3081 23.2313ZM56.0659 115.814C56.1001 115.973 56.1439 116.126 56.2058 116.251C56.0375 116.193 56.0213 116.006 56.0659 115.814ZM67.2628 122.088C66.8404 122.863 66.3507 123.45 65.809 123.848C64.6619 124.676 63.5477 124.941 62.4663 124.644C61.0276 124.284 59.6778 123.597 58.428 122.592C57.9 122.324 57.4745 121.828 57.1557 121.092C57.0431 120.793 57.0176 120.44 57.0791 120.031C57.1539 119.894 57.23 119.772 57.3172 119.66C58.6964 117.922 59.66 115.566 59.0339 113.167C58.7543 112.119 58.5021 111.209 59.1766 109.988C59.556 109.306 60.0641 109.167 60.5232 108.698C61.2408 107.976 61.7147 106.971 61.9697 105.677C62.1412 104.773 61.815 102.127 62.7098 101.86C63.1282 101.745 63.4918 101.41 63.8131 100.821C65.135 102.364 66.654 103.298 68.366 103.634C68.9108 103.801 69.4752 103.84 70.0618 103.783C70.2554 104.311 70.384 104.912 70.4559 105.565C70.5073 106.099 70.4463 107.69 70.018 107.984C69.7622 108.21 69.5381 108.508 69.3345 108.866C69.3035 108.507 69.2157 108.201 69.0672 107.958C68.8002 107.526 68.457 107.331 68.0387 107.389L67.5888 107.376C67.0934 107.367 66.5966 107.343 66.1207 107.264C65.6405 107.196 65.3715 107.152 65.0157 107.047C64.8716 106.62 64.6637 106.34 64.3769 106.209C64.0943 106.066 63.7919 106.108 63.4728 106.309C63.0582 106.586 62.7261 107.05 62.4723 107.71C62.2227 108.36 62.1179 109.034 62.1663 109.71C62.3047 110.954 62.7241 111.733 63.4246 112.048C63.8451 112.252 64.2851 112.386 64.7377 112.43C65.7062 112.601 66.69 112.656 67.6907 112.61C68.0869 112.533 68.4435 112.235 68.7605 111.715C68.8597 112.565 69.168 113.004 69.6868 113.047C69.84 113.049 69.9515 113.16 70.0257 113.368C70.0998 113.576 70.1104 113.816 70.0519 114.082C69.8693 115.035 69.1484 115.308 68.7094 115.362C68.4568 115.389 68.2178 115.515 67.9786 115.756C67.8498 115.27 67.6366 114.928 67.3402 114.744C67.0438 114.561 66.7237 114.574 66.3783 114.766L66.2028 114.86C65.7982 115.016 65.4033 115.108 65.014 115.148C64.6084 115.115 64.2166 115.009 63.8388 114.827C63.5852 114.666 63.3482 114.462 63.1279 114.215C62.7917 113.925 62.4136 113.916 61.9922 114.173C61.5721 114.446 61.24 114.909 60.9862 115.57C60.7324 116.23 60.6276 116.904 60.6857 117.574C60.7493 118.249 60.9443 118.734 61.2805 119.024C62.913 120.56 64.7798 120.741 66.877 119.578C67.0027 119.499 67.1354 119.383 67.2613 119.246C67.3349 119.685 67.4778 120.038 67.6843 120.303C67.8686 120.663 67.3888 121.836 67.2628 122.088ZM85.5844 24.8807C87.8819 25.7934 90.0266 27.1799 92.0173 29.0248C94.0198 30.4762 95.662 32.6552 96.9399 35.5727C99.3003 41.8591 98.5904 51.5549 96.9673 59.599C95.3443 67.643 92.8347 75.226 88.9581 81.0401C85.7223 85.8927 81.7599 87.4811 78.0863 90.2842C76.1751 91.6505 74.3872 93.4977 72.7129 95.8322C72.2922 96.45 71.9169 97.1213 71.5088 97.6491C71.2373 97.4584 70.9337 97.4275 70.6091 97.5659C70.2846 97.7044 69.9832 97.9925 69.7133 98.4087C68.9048 98.2599 68.1298 97.967 67.3923 97.519C65.7547 96.5117 64.8481 94.9954 65.5462 91.5171C66.3557 88.2069 66.4692 85.1043 65.8868 82.2095C64.6824 76.9047 61.4413 74.4005 61.0141 68.2948C60.5578 61.501 62.7234 54.0685 65.1078 47.7472C69.4895 36.1117 77.8514 22.2689 85.5844 24.8807ZM92.6459 12.6853C93.3726 10.1254 94.1805 7.62121 95.0698 5.17263C95.3291 4.51668 95.6626 4.06877 96.0785 3.80721C96.4889 3.5409 96.867 3.54953 97.2115 3.81752C97.5477 4.10717 97.7427 4.59238 97.8008 5.2623C97.8492 5.9383 97.7486 6.60123 97.5003 7.26668C96.9341 8.91242 96.3414 10.6651 95.8137 12.4017L95.5359 13.3732C95.3579 14.0848 95.0821 14.669 94.7073 15.1101C94.4209 15.4544 94.1253 15.6321 93.8175 15.6697C93.5096 15.7072 93.2352 15.6005 93.0122 15.3218C92.7905 15.0587 92.6408 14.6847 92.574 14.2091C92.506 13.718 92.5332 13.208 92.6459 12.6853ZM83.6064 3.35438C83.6376 2.89115 83.742 2.44767 83.9084 2.01442C83.9916 1.7978 84.0748 1.58118 84.1539 1.37539C84.4847 0.838737 84.862 0.54394 85.2693 0.476754C85.682 0.414318 86.0101 0.610493 86.2632 1.0592C86.5163 1.5079 86.6173 2.08509 86.5663 2.79076L85.8818 8.60169C85.8409 9.071 85.742 9.51923 85.5756 9.95248L85.3301 10.5915C84.9896 11.1342 84.6178 11.4338 84.2105 11.501C83.8019 11.5526 83.4697 11.3672 83.2208 10.9077C82.9635 10.4698 82.8625 9.89264 82.9177 9.17614C83.1339 7.25766 83.3735 5.31618 83.6064 3.35438ZM72.5958 5.761C72.6441 5.02417 72.8427 4.37356 73.1861 3.80442C73.5266 3.26168 73.8984 2.96214 74.3112 2.8997C74.7239 2.83726 75.0575 3.03819 75.3009 3.49297C75.4316 3.7065 75.5111 3.97684 75.5533 4.2871C75.6135 4.56961 75.6309 4.88728 75.5985 5.21979L75.5981 4.68608C75.6255 7.00178 75.8269 9.20799 76.1914 11.2952L76.3321 12.0364C76.469 12.6156 76.4733 13.2536 76.3437 13.9348C76.0875 15.0981 75.6156 15.8303 74.9305 16.105C74.2468 16.3953 73.7741 16.0601 73.504 15.121C73.2129 13.6448 72.9936 12.1152 72.8365 10.5383C72.6863 8.98164 72.6093 7.3872 72.5958 5.761ZM62.4584 20.0058C62.7838 19.4644 63.1542 19.1493 63.5656 19.0713C63.9867 18.9872 64.3286 19.1664 64.5969 19.6138L67.0303 23.7431C67.2641 24.204 67.3513 24.7981 67.2892 25.4943C67.223 26.2013 67.0327 26.8302 66.7087 27.3872C66.3751 27.9503 65.995 28.2715 65.578 28.3447C65.157 28.4288 64.8192 28.2387 64.5648 27.7745L62.1285 23.6716C61.8989 23.1999 61.8076 22.6166 61.8738 21.9096C61.9345 21.1978 62.1344 20.5628 62.4584 20.0058ZM54.2166 38.94C54.3697 38.2358 54.6316 37.6686 55.012 37.2323C55.3868 36.7912 55.7736 36.6054 56.1626 36.6811L59.5761 37.8202C59.9636 37.9379 60.239 38.2904 60.4063 38.867C60.568 39.4389 60.5778 40.0816 60.4315 40.8061C60.2729 41.5056 60.0013 42.0789 59.6155 42.5105C59.2296 42.9421 58.836 43.1075 58.4456 43.0162L55.0486 41.8914C54.6707 41.7676 54.4009 41.4198 54.2391 40.848C54.0774 40.2761 54.0689 39.6489 54.2166 38.94ZM100.684 21.9892C100.746 21.293 100.946 20.658 101.26 20.1071C102.142 18.5748 103.024 17.0426 103.899 15.4901C104.234 14.9426 104.605 14.6275 105.015 14.5339C105.445 14.4437 105.789 14.6386 106.049 15.1076C106.296 15.5515 106.392 16.124 106.346 16.8344C106.287 17.5617 106.088 18.2123 105.756 18.791C104.879 20.3279 104.003 21.8649 103.122 23.4127C102.791 23.9493 102.422 24.2801 102.012 24.3736C101.591 24.4577 101.253 24.2677 100.991 23.825C100.738 23.3763 100.631 22.7944 100.681 22.0731L100.684 21.9892ZM104.542 34.2086C104.709 33.4875 104.985 32.9034 105.379 32.4501L107.483 30.0099C107.861 29.6 108.24 29.4515 108.621 29.5488C108.998 29.657 109.27 29.9784 109.436 30.5395C109.525 30.8037 109.562 31.1092 109.541 31.4512C109.559 31.7845 109.527 32.117 109.445 32.4643C109.325 33.197 109.078 33.8205 108.709 34.3239L106.601 36.7749C106.218 37.1801 105.839 37.3442 105.454 37.2576C105.061 37.1352 104.776 36.7887 104.604 36.2074C104.528 35.9262 104.492 35.6207 104.503 35.2848C104.473 34.942 104.489 34.5953 104.565 34.2276L104.542 34.2086ZM103.489 50.3552C103.645 49.6246 103.926 49.0452 104.318 48.6184C104.695 48.2084 105.079 48.0491 105.464 48.1356L110.281 48.6385C110.591 48.6897 110.844 48.8926 111.033 49.2579C111.223 49.6232 111.319 50.0805 111.32 50.6298C111.317 51.1743 111.225 51.7005 111.036 52.2298C110.846 52.7437 110.591 53.1585 110.286 53.4574C109.897 53.8579 109.513 54.0172 109.134 53.9354L104.327 53.4265C103.933 53.304 103.658 52.9515 103.495 52.364C103.336 51.7658 103.34 51.1061 103.507 50.385L103.489 50.3552ZM71.7105 65.6175C72.6264 65.8301 73.5614 65.4967 74.5001 64.6189C74.4571 65.4756 74.645 66.0556 75.0557 66.3806L75.0233 66.7131C74.9502 67.3997 74.8413 68.0843 74.7116 68.7655C74.4214 70.4184 74.0885 72.0489 73.7197 73.6773C73.5959 74.1905 73.4776 74.7085 73.3469 75.2014C72.4058 78.0522 71.5696 80.9356 70.8146 83.8748C70.6822 84.5248 70.677 85.1113 70.8057 85.6547C70.9344 86.198 71.1642 86.5546 71.4909 86.7352C71.8218 86.905 72.1696 86.8587 72.5442 86.5903C72.9132 86.3172 73.2121 85.8827 73.4464 85.2918C74.4276 82.4322 75.2929 79.5305 76.0438 76.5446C76.4727 75.2563 76.9181 73.9823 77.3939 72.7055C78.1262 70.7992 78.8668 68.8713 79.7065 67.0864C80.0102 66.2957 80.3884 65.5404 80.7375 64.8608C81.0624 65.2561 81.4262 65.5695 81.8232 65.7963C83.2117 66.4592 84.6463 66.0662 86.1381 64.6269C86.524 64.1953 86.7956 63.622 86.9584 62.9118C87.1157 62.1968 87.1211 61.5527 86.9579 60.9652C86.792 60.4042 86.5167 60.0517 86.1291 59.934C85.7374 59.8271 85.3521 59.9709 84.9593 60.3821C84.4174 60.8955 83.8927 61.0201 83.3992 60.739C83.3697 60.2811 83.2766 59.9126 83.1116 59.5974C82.6634 58.6635 82.0401 58.4148 81.2416 58.8512C81.0004 58.7155 80.7465 58.6697 80.4746 58.7093C79.8865 58.8081 79.3351 59.2124 78.8245 59.9113C78.7704 60.0522 78.4011 60.498 78.2045 60.8188C78.1852 60.067 78.2267 59.3098 78.3317 58.5209C78.4015 57.3845 78.1448 56.6588 77.5616 56.3437C76.9826 56.0179 76.4259 56.3022 75.886 57.1922C75.1752 58.6989 74.3244 59.7679 73.3088 60.4065L73.0905 60.5356C73.1026 60.027 73.2304 59.5605 73.4534 59.1327C73.7677 58.5819 73.9622 57.9421 74.0242 57.2459C74.0863 56.5497 74.0046 55.9604 73.7792 55.4778C73.5261 55.0291 73.198 54.833 72.7852 54.8954C72.3725 54.9578 72.0048 55.2465 71.6588 55.7845C70.6037 57.6145 70.0616 59.6558 70.0283 61.9193C70.0445 62.8702 70.2071 63.6879 70.5205 64.3616C70.8284 65.0305 71.2443 65.4753 71.7614 65.6758L71.7105 65.6175ZM75.0491 66.1875C75.0491 66.1875 75.0863 66.2627 75.1056 66.2506L75.0491 66.1875Z" fill="url(#paint0_linear_1_159667)"/>
<defs>
<linearGradient id="paint0_linear_1_159667" x1="129.384" y1="31.5373" x2="-110.988" y2="310.524" gradientUnits="userSpaceOnUse">
<stop stop-color="#762ECF"/>
<stop offset="0.318" stop-color="#002EA4"/>
<stop offset="0.661465" stop-color="#CD0606"/>
<stop offset="0.95" stop-color="#C908B3"/>
</linearGradient>
</defs>
</svg>