<svg width="409" height="273" viewBox="0 0 409 273" fill="none" xmlns="http://www.w3.org/2000/svg">
<g opacity="0.1" clip-path="url(#clip0_1_159668)">
<mask id="mask0_1_159668" style="mask-type:luminance" maskUnits="userSpaceOnUse" x="18" y="129" width="127" height="117">
<path d="M18.5 129.322H144.779V245.085H18.5V129.322Z" fill="white"/>
</mask>
<g mask="url(#mask0_1_159668)">
<path d="M103.46 215.463C103.394 215.912 103.372 216.364 103.391 216.815C103.413 217.27 103.476 217.716 103.586 218.158C103.693 218.598 103.841 219.024 104.029 219.439C104.218 219.85 104.447 220.242 104.711 220.609C104.975 220.979 105.273 221.318 105.603 221.629C105.933 221.939 106.288 222.219 106.675 222.46C107.058 222.702 107.46 222.906 107.884 223.069C108.305 223.235 108.742 223.358 109.188 223.439C109.634 223.521 110.083 223.558 110.536 223.552C110.991 223.546 111.441 223.496 111.884 223.405C112.33 223.314 112.76 223.179 113.178 223.003C113.596 222.827 113.995 222.614 114.372 222.36C114.749 222.109 115.098 221.823 115.422 221.503C115.745 221.183 116.031 220.835 116.289 220.461C116.543 220.085 116.76 219.69 116.939 219.272C117.118 218.855 117.253 218.425 117.351 217.983L123.185 190.863L123.339 190.23C123.496 189.568 123.587 188.896 123.609 188.215C123.628 187.534 123.581 186.86 123.462 186.188C123.342 185.517 123.157 184.864 122.906 184.234C122.651 183.6 122.337 183 121.96 182.432C121.583 181.865 121.156 181.341 120.669 180.864C120.185 180.384 110.618 178.823 110.046 178.452C109.474 178.082 120.658 168.582 120.023 168.337C117.777 167.471 115.572 167.633 113.834 169.298L107.798 175.081L111.447 156.289L140.708 142.458C141.1 142.273 141.471 142.053 141.823 141.796C142.172 141.542 142.495 141.253 142.788 140.936C143.083 140.616 143.347 140.274 143.573 139.904C143.802 139.537 143.994 139.151 144.148 138.746C144.305 138.338 144.418 137.924 144.494 137.497C144.569 137.071 144.6 136.638 144.594 136.205C144.588 135.772 144.538 135.342 144.446 134.918C144.358 134.495 144.226 134.084 144.06 133.682C143.89 133.284 143.683 132.904 143.441 132.543C143.199 132.185 142.926 131.85 142.621 131.542C142.316 131.235 141.983 130.962 141.625 130.717C141.264 130.472 140.887 130.265 140.488 130.096C140.089 129.923 139.677 129.791 139.253 129.7C138.829 129.606 138.401 129.556 137.968 129.547C137.534 129.537 137.104 129.569 136.677 129.641C136.249 129.713 135.831 129.826 135.426 129.976L114.243 137.93C112.349 138.643 110.395 138.96 108.374 138.878L88.684 138.119C87.622 138.078 86.5695 138.147 85.5232 138.329C84.4738 138.514 83.459 138.803 82.4756 139.201C81.489 139.6 80.5559 140.095 79.6762 140.692C78.7964 141.285 77.989 141.966 77.2537 142.734L52.992 168.027C52.2065 168.846 51.6693 169.803 51.3802 170.898C50.7267 170.704 50.0637 170.588 49.382 170.55C48.7033 170.512 48.0309 170.553 47.3617 170.676C46.6925 170.798 46.0453 170.992 45.4232 171.265C44.8011 171.542 44.2198 171.884 43.6763 172.291L41.81 170.832C40.924 170.139 39.9405 169.643 38.8566 169.348C37.7726 169.053 36.673 168.981 35.5607 169.132C35.1303 169.188 34.7438 169.355 34.4077 169.631C34.0715 169.907 33.8358 170.249 33.6945 170.663C31.5705 171.35 29.8205 172.577 28.4475 174.343L21.5384 183.176C21.0954 183.744 20.7121 184.353 20.3854 184.996C20.0617 185.642 19.8041 186.311 19.6093 187.007C19.4177 187.701 19.2951 188.41 19.2417 189.128C19.1883 189.85 19.204 190.565 19.292 191.284C19.38 191.999 19.5371 192.699 19.7601 193.386C19.9863 194.07 20.2785 194.729 20.6336 195.357C20.9886 195.984 21.4002 196.574 21.8715 197.12C22.3396 197.666 22.8612 198.162 23.4299 198.607L40.4998 211.952C41.0685 212.394 41.6749 212.78 42.319 213.104C42.9631 213.43 43.6323 213.687 44.3298 213.882C45.0241 214.073 45.7342 214.195 46.4537 214.249C47.1732 214.302 47.8896 214.286 48.6059 214.199C49.3223 214.111 50.026 213.954 50.711 213.728C51.3959 213.502 52.0526 213.213 52.681 212.859C53.3093 212.504 53.8969 212.09 54.4467 211.619C54.9934 211.149 55.4898 210.631 55.9328 210.063L62.8419 201.23C64.2211 199.473 64.9878 197.481 65.1449 195.253C65.5125 195.018 65.7921 194.704 65.9806 194.312C66.1691 193.916 66.2382 193.505 66.1848 193.072C66.0654 191.955 65.7293 190.904 65.1826 189.925C64.6327 188.943 63.9164 188.109 63.0272 187.418L61.1609 185.959C61.6731 184.77 61.9056 183.524 61.8584 182.229C61.8113 180.933 61.4877 179.709 60.8876 178.557C61.406 178.288 61.8804 177.955 62.314 177.56L76.1667 164.865L72.9651 182.894L59.1533 234.594C59.0779 234.885 59.015 235.18 58.9679 235.478C58.9239 235.777 58.8956 236.075 58.8831 236.376C58.8674 236.677 58.8736 236.978 58.8925 237.279C58.9113 237.581 58.949 237.879 59.0025 238.174C59.0527 238.472 59.1218 238.764 59.2067 239.055C59.2915 239.344 59.392 239.626 59.5083 239.906C59.6214 240.185 59.7534 240.455 59.8979 240.718C60.0424 240.982 60.2027 241.239 60.3755 241.484C60.5483 241.732 60.7336 241.967 60.9347 242.193C61.1327 242.422 61.3432 242.636 61.5662 242.839C61.7893 243.043 62.0218 243.232 62.2637 243.411C62.5088 243.589 62.7602 243.753 63.0209 243.903C63.2817 244.054 63.5519 244.189 63.8284 244.311C64.1018 244.433 64.3845 244.537 64.6736 244.628C64.9595 244.719 65.2517 244.791 65.547 244.851C65.8424 244.91 66.1409 244.951 66.4425 244.976C66.6781 244.998 66.9106 245.008 67.1463 245.008C67.5861 245.008 68.0229 244.97 68.4596 244.901C68.8932 244.829 69.3205 244.725 69.7383 244.584C70.1593 244.446 70.5615 244.277 70.9542 244.073C71.3438 243.869 71.7177 243.636 72.0728 243.376C72.4278 243.112 72.7577 242.824 73.0656 242.51C73.3735 242.196 73.6563 241.857 73.9108 241.5C74.1653 241.139 74.3915 240.762 74.5863 240.367C74.7811 239.972 74.9445 239.564 75.0733 239.143L88.8034 194.086L106.524 194.77L103.46 215.463ZM48.408 175.137C48.9389 175.071 49.4636 175.109 49.9821 175.253C50.4973 175.398 50.9686 175.633 51.3896 175.966L52.8538 177.111C52.9354 177.199 53.0171 177.287 53.102 177.371C53.5701 177.839 54.0948 178.225 54.6761 178.535L55.7317 179.358C56.2721 179.781 56.6806 180.308 56.9539 180.942C57.2241 181.573 57.331 182.232 57.2681 182.916L47.5628 175.329C47.8393 175.235 48.1189 175.172 48.408 175.137ZM41.0622 176.06L42.4384 177.133L49.5987 182.731L58.1321 189.401C58.6129 189.778 59.0307 190.214 59.3858 190.71L44.2104 189.618L39.4944 175.156C40.0599 175.382 40.5815 175.683 41.0622 176.06ZM52.3259 207.245C52.0683 207.575 51.7761 207.879 51.4588 208.152C51.1383 208.428 50.7958 208.67 50.4282 208.877C50.0606 209.084 49.6773 209.254 49.2783 209.382C48.8761 209.514 48.4677 209.608 48.0498 209.658C47.6319 209.709 47.2109 209.718 46.793 209.687C46.372 209.655 45.9573 209.586 45.552 209.473C45.1467 209.36 44.7539 209.21 44.3801 209.018C44.003 208.83 43.648 208.604 43.315 208.347L26.245 195.002C25.9151 194.742 25.6103 194.453 25.337 194.133C25.0605 193.816 24.8217 193.471 24.6144 193.104C24.407 192.737 24.2373 192.354 24.1054 191.955C23.9734 191.554 23.8823 191.146 23.832 190.725C23.7786 190.308 23.7692 189.891 23.8006 189.47C23.832 189.05 23.9043 188.636 24.0174 188.231C24.1305 187.823 24.2813 187.434 24.4698 187.057C24.6583 186.681 24.8846 186.326 25.1422 185.994L32.0512 177.161C32.7519 176.264 33.6285 175.599 34.6842 175.172L40.3396 192.498C40.4841 192.941 40.7386 193.305 41.1031 193.59C41.4707 193.876 41.8854 194.036 42.3504 194.07L60.5294 195.376C60.3692 196.502 59.9387 197.515 59.235 198.41L52.3259 207.245ZM87.2167 189.445C86.9622 189.436 86.714 189.467 86.4721 189.539C86.2302 189.612 86.0071 189.721 85.7997 189.866C85.5955 190.013 85.4164 190.189 85.2687 190.393C85.1211 190.6 85.0111 190.823 84.9388 191.064L70.6935 237.807C70.6243 238.039 70.5332 238.258 70.4201 238.469C70.307 238.682 70.1719 238.88 70.0211 239.068C69.8703 239.253 69.7006 239.423 69.5153 239.576C69.3299 239.727 69.1319 239.862 68.9214 239.978C68.7109 240.091 68.491 240.185 68.2616 240.257C68.0323 240.329 67.7966 240.376 67.5578 240.405C67.3191 240.43 67.0803 240.433 66.8415 240.414C66.6027 240.392 66.3671 240.348 66.1377 240.282C65.9052 240.216 65.6821 240.129 65.4685 240.022C65.2548 239.912 65.0538 239.783 64.8652 239.633C64.6767 239.485 64.5039 239.319 64.3468 239.137C64.1897 238.955 64.0515 238.76 63.9352 238.553C63.8158 238.343 63.7184 238.124 63.643 237.898C63.5645 237.669 63.5111 237.436 63.4828 237.198C63.4514 236.959 63.442 236.721 63.4577 236.483C63.4734 236.241 63.5142 236.006 63.5739 235.773L77.4108 183.979C77.4266 183.917 77.4423 183.854 77.4548 183.788L81.8535 159.013C81.8943 158.777 81.8975 158.542 81.8661 158.304C81.8346 158.068 81.7655 157.842 81.6618 157.626C81.5582 157.409 81.4262 157.215 81.2597 157.042C81.0963 156.867 80.9109 156.722 80.7004 156.609C80.4899 156.493 80.27 156.412 80.0343 156.368C79.7987 156.321 79.563 156.314 79.3243 156.343C79.0886 156.371 78.8593 156.434 78.6425 156.534C78.4257 156.634 78.2277 156.763 78.0518 156.926L59.2192 174.187C58.9302 174.45 58.594 174.623 58.2107 174.698C57.8242 174.773 57.4472 174.742 57.0796 174.607L56.0773 173.823C55.9422 173.622 55.8448 173.408 55.7851 173.176C55.7255 172.944 55.7066 172.709 55.7255 172.47C55.7443 172.232 55.804 172.003 55.9014 171.786C55.9988 171.567 56.1308 171.369 56.2941 171.196L80.559 145.9C81.5927 144.821 82.8023 144.002 84.1879 143.443C85.5735 142.885 87.0125 142.634 88.508 142.69L108.195 143.45C110.831 143.556 113.382 143.142 115.852 142.213L137.035 134.263C137.204 134.2 137.38 134.156 137.559 134.137C137.742 134.115 137.921 134.118 138.103 134.14C138.282 134.165 138.458 134.212 138.628 134.278C138.794 134.347 138.954 134.432 139.102 134.539C139.25 134.645 139.382 134.768 139.498 134.909C139.614 135.047 139.715 135.198 139.793 135.361C139.872 135.524 139.932 135.696 139.969 135.875C140.007 136.051 140.023 136.233 140.013 136.415C140.001 136.826 139.878 137.203 139.652 137.545C139.426 137.89 139.124 138.147 138.753 138.323L108.421 152.659C108.085 152.816 107.806 153.045 107.579 153.337C107.353 153.632 107.209 153.964 107.146 154.328L102.892 178.363C102.838 178.661 102.845 178.962 102.91 179.26C102.976 179.558 103.099 179.831 103.275 180.082C103.451 180.33 103.671 180.537 103.928 180.7C104.186 180.861 104.469 180.967 104.771 181.017L114.564 182.643C114.925 182.702 115.277 182.8 115.619 182.931C115.962 183.063 116.289 183.229 116.597 183.43C116.905 183.628 117.187 183.857 117.448 184.114C117.709 184.375 117.941 184.654 118.146 184.961C118.347 185.266 118.516 185.589 118.651 185.931C118.79 186.273 118.89 186.621 118.953 186.985C119.016 187.346 119.044 187.71 119.032 188.077C119.019 188.441 118.972 188.805 118.887 189.16L118.727 189.822C118.724 189.841 118.721 189.856 118.714 189.875L112.877 217.019C112.807 217.333 112.682 217.625 112.5 217.892C112.32 218.158 112.094 218.381 111.827 218.56C111.56 218.739 111.268 218.861 110.951 218.927C110.636 218.993 110.319 218.996 110.002 218.936C109.684 218.88 109.392 218.767 109.119 218.594C108.846 218.422 108.616 218.205 108.428 217.942C108.239 217.681 108.107 217.393 108.032 217.079C107.956 216.768 107.941 216.451 107.988 216.131L111.425 192.916C111.472 192.596 111.453 192.279 111.365 191.965C111.277 191.651 111.13 191.369 110.922 191.121C110.715 190.87 110.467 190.672 110.175 190.528C109.882 190.387 109.574 190.308 109.251 190.296L87.2167 189.445Z" fill="url(#paint0_linear_1_159668)"/>
</g>
<path d="M99.5857 135.974C99.7868 135.984 99.9847 135.987 100.186 135.987C100.516 135.987 100.842 135.977 101.172 135.956C101.502 135.934 101.829 135.902 102.156 135.858C102.483 135.814 102.806 135.761 103.13 135.698C103.453 135.635 103.774 135.56 104.091 135.475C104.412 135.391 104.726 135.293 105.037 135.19C105.351 135.083 105.659 134.97 105.964 134.845C106.269 134.719 106.567 134.584 106.862 134.437C107.158 134.293 107.45 134.139 107.736 133.976C108.022 133.812 108.301 133.64 108.575 133.458C108.851 133.276 109.118 133.085 109.382 132.884C109.643 132.686 109.897 132.476 110.146 132.262C110.397 132.046 110.636 131.82 110.871 131.588C111.104 131.359 111.33 131.117 111.55 130.872C111.767 130.625 111.977 130.374 112.182 130.113C112.383 129.853 112.574 129.586 112.76 129.313C112.945 129.04 113.121 128.761 113.288 128.478C113.454 128.193 113.611 127.904 113.759 127.609C113.906 127.314 114.045 127.016 114.17 126.712C114.299 126.411 114.419 126.103 114.525 125.792C114.635 125.482 114.733 125.165 114.821 124.848C114.909 124.531 114.984 124.211 115.053 123.888C115.119 123.568 115.176 123.242 115.223 122.915C115.267 122.589 115.302 122.263 115.327 121.933C115.352 121.607 115.364 121.277 115.367 120.948C115.371 120.618 115.364 120.289 115.345 119.96C115.327 119.633 115.298 119.304 115.261 118.977C115.22 118.651 115.17 118.325 115.11 118.002C115.047 117.678 114.978 117.355 114.896 117.038C114.815 116.718 114.72 116.401 114.62 116.088C114.516 115.777 114.406 115.466 114.284 115.162C114.161 114.854 114.029 114.553 113.885 114.255C113.743 113.96 113.592 113.668 113.432 113.38C113.272 113.091 113.099 112.812 112.92 112.536C112.741 112.26 112.552 111.99 112.358 111.723C112.16 111.459 111.955 111.202 111.742 110.951C111.528 110.7 111.305 110.459 111.076 110.223C110.846 109.985 110.611 109.759 110.366 109.536C110.121 109.316 109.869 109.103 109.612 108.899C109.354 108.695 109.09 108.497 108.817 108.312C108.546 108.124 108.27 107.945 107.987 107.776C107.704 107.606 107.415 107.446 107.123 107.296C106.831 107.145 106.532 107.004 106.231 106.875C105.929 106.744 105.624 106.621 105.313 106.511C105.002 106.398 104.688 106.298 104.374 106.207C104.057 106.116 103.736 106.034 103.416 105.965C103.092 105.896 102.768 105.837 102.445 105.787C102.118 105.736 101.791 105.699 101.465 105.67C101.135 105.645 100.805 105.626 100.478 105.62C100.148 105.614 99.8182 105.617 99.4883 105.633C99.1616 105.648 98.8317 105.674 98.5049 105.711C98.1781 105.746 97.8514 105.793 97.5278 105.852C97.2042 105.909 96.8805 105.978 96.5601 106.056C96.2396 106.135 95.9223 106.223 95.6112 106.32C95.297 106.42 94.986 106.53 94.6781 106.649C94.3702 106.769 94.0685 106.897 93.7701 107.035C93.4716 107.177 93.1762 107.324 92.8872 107.481C92.5981 107.641 92.3154 107.807 92.0389 107.983C91.7592 108.162 91.489 108.347 91.222 108.541C90.9549 108.736 90.6973 108.937 90.4428 109.15C90.1914 109.36 89.9464 109.58 89.7076 109.806C89.4688 110.032 89.2363 110.267 89.0132 110.509C88.7902 110.753 88.5765 111.001 88.3691 111.259C88.1618 111.513 87.9638 111.776 87.7722 112.046C87.5837 112.313 87.4014 112.589 87.2286 112.868C87.059 113.151 86.8956 113.436 86.7416 113.728C86.5877 114.02 86.4432 114.315 86.3112 114.616C86.1761 114.917 86.0504 115.222 85.9373 115.532C85.8242 115.84 85.7174 116.15 85.6263 116.467C85.532 116.784 85.4472 117.101 85.3749 117.421C85.2995 117.744 85.2367 118.067 85.1864 118.391C85.133 118.717 85.0921 119.043 85.0607 119.37C85.0293 119.699 85.0104 120.029 84.9979 120.358C84.9885 120.684 84.9916 121.014 85.001 121.343C85.0136 121.673 85.0356 122.002 85.0701 122.328C85.1016 122.658 85.1455 122.984 85.2021 123.307C85.2555 123.634 85.3215 123.954 85.3969 124.277C85.4723 124.597 85.5571 124.914 85.6514 125.228C85.7488 125.545 85.8556 125.855 85.9719 126.163C86.0881 126.473 86.2138 126.775 86.3489 127.076C86.4871 127.377 86.6317 127.672 86.7856 127.961C86.9427 128.252 87.1061 128.538 87.282 128.817C87.4548 129.096 87.6371 129.369 87.8287 129.639C88.0204 129.906 88.2215 130.166 88.4288 130.421C88.6393 130.678 88.8561 130.926 89.0792 131.164C89.3054 131.406 89.5379 131.638 89.7767 131.864C90.0155 132.09 90.2637 132.306 90.5182 132.517C90.7727 132.727 91.0335 132.928 91.3005 133.119C91.5676 133.314 91.8409 133.496 92.1206 133.671C92.3971 133.847 92.683 134.01 92.972 134.167C93.2642 134.324 93.5564 134.471 93.858 134.609C94.1565 134.744 94.4613 134.873 94.7692 134.989C95.0771 135.108 95.3881 135.215 95.7023 135.312C96.0165 135.41 96.3339 135.494 96.6543 135.573C96.9748 135.648 97.2984 135.714 97.622 135.77C97.9456 135.824 98.2724 135.871 98.5992 135.905C98.9291 135.94 99.2558 135.962 99.5857 135.974ZM89.5882 120.414C89.6133 119.737 89.7044 119.068 89.8584 118.406C90.0124 117.747 90.2291 117.107 90.5056 116.489C90.7821 115.871 91.1152 115.284 91.5079 114.732C91.8975 114.177 92.3342 113.665 92.8244 113.195C93.3113 112.724 93.8392 112.304 94.4079 111.936C94.9766 111.566 95.5767 111.256 96.205 111.001C96.8334 110.747 97.4806 110.556 98.1467 110.427C98.8097 110.299 99.482 110.233 100.161 110.233C100.299 110.233 100.44 110.233 100.579 110.239C101.273 110.267 101.961 110.361 102.637 110.521C103.312 110.684 103.966 110.91 104.597 111.202C105.229 111.491 105.829 111.842 106.391 112.25C106.953 112.658 107.472 113.116 107.943 113.628C108.414 114.139 108.832 114.688 109.197 115.281C109.561 115.874 109.863 116.495 110.105 117.148C110.347 117.801 110.523 118.469 110.629 119.156C110.739 119.843 110.78 120.534 110.755 121.23C110.727 121.924 110.633 122.608 110.472 123.285C110.309 123.96 110.083 124.616 109.794 125.247C109.502 125.877 109.153 126.477 108.744 127.038C108.336 127.603 107.877 128.118 107.365 128.591C106.856 129.065 106.303 129.482 105.712 129.846C105.119 130.21 104.497 130.512 103.843 130.753C103.193 130.995 102.52 131.167 101.835 131.277C101.147 131.387 100.456 131.428 99.7617 131.403C99.0673 131.374 98.3824 131.28 97.7037 131.117C97.0282 130.957 96.3747 130.731 95.7432 130.439C95.1117 130.151 94.5147 129.799 93.9523 129.391C93.3868 128.984 92.8715 128.525 92.3971 128.014C91.9258 127.503 91.5079 126.953 91.1434 126.36C90.779 125.767 90.4774 125.146 90.2354 124.493C89.9935 123.841 89.8207 123.173 89.7107 122.485C89.6008 121.798 89.5599 121.108 89.5882 120.411V120.414Z" fill="url(#paint1_linear_1_159668)"/>
<mask id="mask1_1_159668" style="mask-type:luminance" maskUnits="userSpaceOnUse" x="135" y="116" width="301" height="124">
<path d="M135.453 116.248H435.413V239.145H135.453V116.248Z" fill="white"/>
</mask>
<g mask="url(#mask1_1_159668)">
<path d="M393.371 122.229H295.083C294.779 122.229 294.486 122.285 294.207 122.401C293.927 122.517 293.679 122.683 293.465 122.9C293.252 123.113 293.085 123.361 292.969 123.64C292.853 123.92 292.796 124.212 292.796 124.516V145.837H253.953C253.648 145.837 253.356 145.896 253.076 146.012C252.797 146.128 252.548 146.295 252.335 146.508C252.118 146.721 251.955 146.969 251.838 147.252C251.722 147.531 251.662 147.823 251.662 148.127V169.363H213.297C212.995 169.363 212.703 169.42 212.423 169.536C212.14 169.652 211.895 169.818 211.679 170.031C211.465 170.245 211.298 170.493 211.182 170.775C211.066 171.054 211.009 171.346 211.009 171.65V192.679H171.688C171.387 192.679 171.095 192.739 170.815 192.855C170.532 192.971 170.287 193.134 170.07 193.351C169.857 193.564 169.69 193.812 169.574 194.091C169.458 194.374 169.401 194.665 169.401 194.967V216.065H130.08C129.779 216.065 129.486 216.124 129.207 216.24C128.924 216.356 128.679 216.523 128.462 216.736C128.249 216.949 128.082 217.197 127.966 217.48C127.85 217.759 127.793 218.051 127.793 218.355V239.657H98.2717C97.9701 239.657 97.6779 239.717 97.3951 239.833C97.1155 239.949 96.8672 240.112 96.6536 240.328C96.4399 240.542 96.2734 240.79 96.1572 241.069C96.0409 241.351 95.9844 241.643 95.9844 241.944C95.9844 242.249 96.0409 242.54 96.1572 242.82C96.2734 243.102 96.4399 243.347 96.6536 243.563C96.8672 243.777 97.1155 243.943 97.3951 244.059C97.6779 244.175 97.9701 244.232 98.2717 244.232H130.08C130.385 244.232 130.677 244.175 130.957 244.059C131.236 243.943 131.485 243.777 131.698 243.563C131.915 243.347 132.079 243.102 132.195 242.82C132.311 242.54 132.371 242.249 132.371 241.944V220.642H171.688C171.993 220.642 172.285 220.583 172.565 220.467C172.845 220.351 173.093 220.188 173.307 219.971C173.523 219.758 173.687 219.51 173.803 219.231C173.919 218.948 173.979 218.656 173.979 218.355V197.257H213.297C213.601 197.257 213.894 197.198 214.173 197.081C214.453 196.965 214.701 196.799 214.918 196.586C215.132 196.372 215.295 196.124 215.411 195.842C215.527 195.563 215.587 195.271 215.587 194.967V173.938H253.953C254.254 173.938 254.547 173.878 254.829 173.762C255.109 173.646 255.357 173.483 255.571 173.266C255.785 173.053 255.951 172.805 256.067 172.526C256.184 172.243 256.24 171.952 256.24 171.65V150.414H295.083C295.388 150.414 295.677 150.355 295.96 150.239C296.24 150.123 296.488 149.96 296.702 149.743C296.915 149.53 297.082 149.282 297.198 149.003C297.314 148.72 297.371 148.428 297.371 148.127V126.803H393.371C393.673 126.803 393.965 126.747 394.245 126.631C394.528 126.515 394.776 126.348 394.99 126.135C395.203 125.918 395.37 125.671 395.486 125.391C395.602 125.112 395.659 124.82 395.659 124.516C395.659 124.212 395.602 123.92 395.486 123.64C395.37 123.361 395.203 123.113 394.99 122.897C394.776 122.683 394.528 122.517 394.245 122.401C393.965 122.285 393.673 122.229 393.371 122.229Z" fill="url(#paint2_linear_1_159668)"/>
</g>
<mask id="mask2_1_159668" style="mask-type:luminance" maskUnits="userSpaceOnUse" x="310" y="30" width="72" height="81">
<path d="M310.469 30.2305H381.249V110.851H310.469V30.2305Z" fill="white"/>
</mask>
<g mask="url(#mask2_1_159668)">
<path d="M326.864 72.7891L329.111 73.6551C329.202 73.7712 329.296 73.8873 329.393 74.0003L337.374 83.5169V92.0829C337.248 92.2962 337.16 92.5253 337.107 92.77C336.987 93.3379 336.818 93.8933 336.604 94.4361C336.39 94.9758 336.13 95.4967 335.831 95.9956C335.53 96.4913 335.187 96.962 334.807 97.4044C334.427 97.8437 334.012 98.2516 333.566 98.625C333.117 98.9952 332.642 99.3278 332.136 99.6196C331.634 99.9114 331.109 100.162 330.565 100.366C330.019 100.57 329.459 100.73 328.891 100.84C328.319 100.953 327.741 101.016 327.16 101.028C326.858 101.035 326.572 101.097 326.296 101.217C326.022 101.336 325.78 101.502 325.57 101.716C325.359 101.929 325.199 102.177 325.086 102.453C324.973 102.729 324.916 103.018 324.916 103.319V108.358C324.916 108.662 324.973 108.954 325.089 109.234C325.205 109.513 325.372 109.761 325.585 109.977C325.799 110.191 326.047 110.357 326.327 110.473C326.61 110.589 326.902 110.645 327.204 110.645H364.825C365.129 110.645 365.422 110.589 365.701 110.473C365.981 110.357 366.229 110.191 366.443 109.977C366.66 109.761 366.823 109.513 366.939 109.234C367.055 108.954 367.115 108.662 367.115 108.358V103.319C367.115 103.018 367.059 102.729 366.945 102.453C366.832 102.177 366.669 101.929 366.462 101.716C366.251 101.502 366.009 101.336 365.733 101.217C365.459 101.097 365.17 101.035 364.872 101.028C364.291 101.016 363.712 100.953 363.141 100.84C362.569 100.73 362.01 100.57 361.466 100.366C360.919 100.162 360.395 99.9114 359.892 99.6196C359.389 99.3278 358.912 98.9952 358.465 98.625C358.016 98.2516 357.601 97.8437 357.221 97.4044C356.841 96.962 356.502 96.4913 356.2 95.9956C355.899 95.4967 355.641 94.9758 355.427 94.4361C355.21 93.8933 355.044 93.3379 354.921 92.77C354.871 92.5253 354.783 92.2962 354.657 92.0797V83.5169L362.638 74.0003C362.732 73.8873 362.826 73.7712 362.921 73.6551L365.164 72.7891C366.336 72.3373 367.467 71.8008 368.557 71.1795C369.647 70.5582 370.684 69.8554 371.668 69.0772C372.654 68.2991 373.575 67.4519 374.433 66.5357C375.29 65.6195 376.073 64.6437 376.783 63.6082C377.493 62.5728 378.121 61.4903 378.668 60.3607C379.215 59.2311 379.676 58.0671 380.047 56.8685C380.418 55.6699 380.698 54.4493 380.886 53.2068C381.075 51.9674 381.169 50.7186 381.169 49.4635V37.854C381.169 37.5496 381.109 37.2578 380.993 36.9786C380.877 36.6962 380.713 36.4514 380.5 36.2349C380.283 36.0216 380.035 35.8553 379.755 35.7392C379.475 35.6231 379.183 35.5666 378.882 35.5666H371.394V32.5921C371.394 32.2909 371.338 31.999 371.222 31.7167C371.105 31.4374 370.939 31.1895 370.725 30.9762C370.508 30.7597 370.263 30.5965 369.981 30.4804C369.701 30.3643 369.409 30.3047 369.107 30.3047H322.924C322.62 30.3047 322.327 30.3643 322.048 30.4804C321.768 30.5965 321.52 30.7597 321.306 30.9762C321.089 31.1895 320.926 31.4374 320.81 31.7167C320.694 31.999 320.634 32.2909 320.634 32.5921V35.5666H313.15C312.845 35.5666 312.553 35.6231 312.273 35.7392C311.994 35.8553 311.745 36.0216 311.532 36.2349C311.315 36.4514 311.152 36.6962 311.035 36.9786C310.919 37.2578 310.859 37.5496 310.859 37.854V49.4635C310.859 50.7186 310.954 51.9674 311.142 53.2099C311.331 54.4493 311.61 55.6699 311.981 56.8685C312.352 58.0671 312.814 59.2311 313.36 60.3607C313.907 61.4903 314.535 62.5728 315.245 63.6082C315.956 64.6437 316.738 65.6195 317.596 66.5357C318.453 67.4519 319.374 68.2991 320.36 69.0772C321.344 69.8585 322.381 70.5582 323.471 71.1795C324.561 71.8008 325.692 72.3373 326.864 72.7891ZM350.08 85.0262V90.9439H341.948V85.0262H350.08ZM355.474 102.111C357.535 103.837 359.889 104.929 362.537 105.39V106.071H329.494V105.39C330.814 105.161 332.08 104.762 333.293 104.194C334.505 103.626 335.621 102.908 336.642 102.039C337.66 101.173 338.549 100.184 339.303 99.0799C340.057 97.9723 340.651 96.7863 341.088 95.5218H350.944C351.845 98.1323 353.357 100.329 355.474 102.111ZM376.594 40.1414V49.4635C376.591 51.139 376.39 52.7863 375.985 54.4116C375.579 56.0338 374.982 57.587 374.197 59.0648C373.408 60.5396 372.456 61.9013 371.335 63.1439C370.213 64.3895 368.959 65.4783 367.571 66.4133C369.773 61.917 371.027 57.1665 371.328 52.1682C371.332 52.0929 371.335 52.0144 371.341 51.936C371.354 51.6818 371.366 51.4277 371.372 51.1735C371.376 51.0857 371.379 50.9978 371.382 50.91C371.391 50.5836 371.398 50.2605 371.398 49.9341V40.1414H376.594ZM325.212 34.8826H366.82V49.9341C366.82 50.1695 366.817 50.4017 366.81 50.637C366.807 50.7562 366.804 50.8754 366.801 50.9978C366.795 51.1076 366.795 51.2206 366.788 51.3335C366.782 51.4967 366.773 51.663 366.763 51.8293C366.76 51.8921 366.757 51.9548 366.751 52.0207C366.738 52.2184 366.722 52.4161 366.707 52.6137C366.707 52.642 366.704 52.6702 366.7 52.7016C366.465 55.4471 365.893 58.1204 364.988 60.7247C364.083 63.3258 362.874 65.7795 361.356 68.0795L361.347 68.092C361.246 68.2458 361.142 68.3995 361.039 68.5501C361.007 68.594 360.976 68.6411 360.944 68.6882C360.856 68.8137 360.765 68.9392 360.677 69.0647C360.627 69.1337 360.58 69.2028 360.53 69.2718C360.448 69.3816 360.366 69.4946 360.281 69.6044C360.225 69.6828 360.165 69.7613 360.106 69.8397C360.024 69.9464 359.942 70.0531 359.857 70.1597C359.622 70.4641 359.38 70.7653 359.132 71.0603L351.274 80.4294H340.758L332.9 71.0603C332.655 70.7685 332.416 70.4704 332.18 70.1692C332.092 70.0593 332.008 69.9464 331.923 69.8366C331.866 69.7613 331.813 69.6891 331.756 69.6138C331.671 69.4977 331.583 69.3816 331.499 69.2655C331.451 69.2027 331.407 69.14 331.363 69.0772C331.269 68.9455 331.175 68.8137 331.084 68.6819C331.056 68.6442 331.03 68.6034 331.002 68.5627C329.387 66.2094 328.099 63.6867 327.138 60.9977C326.176 58.3118 325.573 55.5443 325.328 52.6985C325.328 52.6702 325.325 52.642 325.322 52.6169C325.306 52.4161 325.29 52.2184 325.278 52.0207C325.274 51.958 325.271 51.8921 325.268 51.8293C325.259 51.663 325.249 51.4998 325.24 51.3335C325.237 51.2206 325.234 51.1076 325.23 50.9978C325.227 50.8786 325.221 50.7562 325.218 50.637C325.215 50.4017 325.212 50.1695 325.212 49.9341V34.8826ZM315.437 40.1414H320.634V49.9341C320.634 50.2605 320.64 50.5868 320.646 50.91C320.65 50.9978 320.653 51.0888 320.656 51.1767C320.665 51.4308 320.675 51.685 320.69 51.936C320.694 52.0144 320.697 52.0929 320.703 52.1682C321.005 57.1665 322.255 61.917 324.458 66.4133C323.072 65.4783 321.815 64.3895 320.697 63.147C319.575 61.9013 318.62 60.5427 317.834 59.0648C317.049 57.587 316.452 56.037 316.047 54.4116C315.641 52.7863 315.437 51.139 315.437 49.4635V40.1414Z" fill="url(#paint3_linear_1_159668)"/>
</g>
<path d="M331.849 50.7716L338.428 55.5503L335.914 63.2816C335.839 63.5107 335.801 63.746 335.801 63.9876C335.801 64.2292 335.839 64.4646 335.914 64.6936C335.99 64.9258 336.097 65.136 336.238 65.3337C336.383 65.5282 336.549 65.6977 336.747 65.8389C336.942 65.9801 337.152 66.0899 337.385 66.1652C337.614 66.2374 337.85 66.275 338.092 66.275C338.334 66.275 338.569 66.2374 338.799 66.162C339.028 66.0899 339.242 65.9801 339.437 65.8389L346.013 61.0601L352.592 65.8389C352.786 65.9801 353 66.0899 353.229 66.162C353.459 66.2374 353.694 66.275 353.936 66.275C354.178 66.275 354.414 66.2374 354.643 66.1652C354.876 66.0899 355.086 65.9801 355.281 65.8389C355.479 65.6977 355.646 65.5282 355.79 65.3337C355.931 65.136 356.038 64.9258 356.114 64.6936C356.189 64.4646 356.227 64.2292 356.227 63.9876C356.227 63.746 356.189 63.5107 356.114 63.2816L353.6 55.5503L360.179 50.7716C360.374 50.6304 360.544 50.461 360.685 50.2665C360.827 50.0688 360.937 49.8586 361.012 49.6264C361.084 49.3973 361.122 49.162 361.122 48.9204C361.122 48.6788 361.084 48.4435 361.012 48.2144C360.937 47.9822 360.827 47.772 360.685 47.5743C360.544 47.3798 360.374 47.2103 360.179 47.0691C359.985 46.9279 359.771 46.8181 359.542 46.746C359.312 46.6707 359.077 46.633 358.835 46.633H350.703L348.19 38.9017C348.114 38.6727 348.008 38.4593 347.863 38.2648C347.722 38.0671 347.555 37.9008 347.357 37.7565C347.162 37.6153 346.949 37.5086 346.719 37.4333C346.49 37.358 346.254 37.3203 346.013 37.3203C345.771 37.3203 345.535 37.358 345.306 37.4333C345.076 37.5086 344.863 37.6153 344.668 37.7565C344.473 37.9008 344.303 38.0671 344.162 38.2648C344.021 38.4593 343.911 38.6727 343.835 38.9017L341.325 46.633H333.194C332.952 46.633 332.716 46.6707 332.487 46.746C332.257 46.8181 332.044 46.9279 331.849 47.0691C331.654 47.2103 331.484 47.3798 331.343 47.5743C331.202 47.772 331.092 47.9822 331.019 48.2144C330.944 48.4435 330.906 48.6788 330.906 48.9204C330.906 49.162 330.944 49.3973 331.019 49.6264C331.092 49.8586 331.202 50.0688 331.343 50.2665C331.484 50.461 331.654 50.6304 331.849 50.7716ZM342.987 51.2078C343.229 51.2078 343.464 51.1701 343.694 51.098C343.923 51.0226 344.137 50.9128 344.332 50.7716C344.53 50.6304 344.696 50.461 344.837 50.2665C344.982 50.0688 345.089 49.8586 345.164 49.6264L346.013 47.0127L346.864 49.6264C346.939 49.8586 347.046 50.0688 347.188 50.2665C347.332 50.461 347.499 50.6304 347.693 50.7716C347.891 50.9128 348.102 51.0226 348.334 51.098C348.564 51.1701 348.799 51.2078 349.041 51.2078H351.79L349.566 52.8237C349.371 52.9649 349.202 53.1343 349.06 53.332C348.916 53.5265 348.809 53.7399 348.733 53.9689C348.658 54.198 348.623 54.4333 348.623 54.6749C348.623 54.9165 348.658 55.1519 348.733 55.3809L349.585 57.9978L347.357 56.3818C347.162 56.2406 346.952 56.1308 346.719 56.0555C346.49 55.9834 346.254 55.9457 346.013 55.9457C345.771 55.9457 345.535 55.9834 345.306 56.0555C345.076 56.1308 344.863 56.2406 344.668 56.3818L342.443 57.9978L343.295 55.3841C343.367 55.1519 343.405 54.9165 343.405 54.6749C343.405 54.4333 343.367 54.198 343.295 53.9689C343.219 53.7399 343.109 53.5265 342.968 53.332C342.827 53.1343 342.657 52.968 342.462 52.8237L340.238 51.2078H342.987Z" fill="url(#paint4_linear_1_159668)"/>
<path d="M183.398 126.901C183.611 127.117 183.86 127.281 184.139 127.397C184.419 127.513 184.711 127.572 185.016 127.572C185.317 127.572 185.61 127.513 185.889 127.397C186.172 127.281 186.417 127.117 186.634 126.901L200.135 113.403C200.351 113.189 200.515 112.941 200.631 112.662C200.747 112.38 200.807 112.088 200.807 111.783C200.807 111.482 200.747 111.19 200.631 110.908C200.515 110.629 200.351 110.381 200.135 110.168C199.921 109.951 199.673 109.788 199.393 109.672C199.114 109.556 198.821 109.496 198.517 109.496C198.215 109.496 197.923 109.556 197.64 109.672C197.36 109.788 197.112 109.951 196.898 110.168L185.016 122.047L179.882 116.917C179.668 116.703 179.42 116.537 179.14 116.421C178.861 116.308 178.569 116.248 178.264 116.248C177.962 116.248 177.67 116.308 177.39 116.424C177.111 116.54 176.863 116.707 176.649 116.92C176.435 117.133 176.269 117.381 176.153 117.66C176.036 117.94 175.977 118.231 175.977 118.536C175.977 118.84 176.036 119.129 176.149 119.411C176.266 119.69 176.432 119.938 176.646 120.152L183.398 126.901Z" fill="url(#paint5_linear_1_159668)"/>
<path d="M188.396 140.268C189.897 140.271 191.383 140.117 192.851 139.81C194.321 139.499 195.744 139.044 197.117 138.442C198.494 137.839 199.791 137.102 201.013 136.227C202.236 135.354 203.354 134.366 204.369 133.261L208.761 137.651C208.46 138.285 208.265 138.95 208.168 139.643C208.073 140.34 208.086 141.033 208.208 141.724C208.328 142.414 208.548 143.073 208.871 143.694C209.192 144.319 209.603 144.877 210.097 145.373L225.941 161.212C226.255 161.529 226.601 161.808 226.972 162.056C227.343 162.304 227.735 162.514 228.147 162.684C228.562 162.856 228.986 162.985 229.426 163.073C229.862 163.157 230.305 163.201 230.752 163.201C231.198 163.201 231.641 163.157 232.081 163.073C232.517 162.985 232.941 162.856 233.356 162.684C233.768 162.514 234.16 162.304 234.531 162.056C234.905 161.808 235.248 161.529 235.565 161.212C235.879 160.898 236.162 160.553 236.41 160.183C236.658 159.809 236.869 159.417 237.038 159.006C237.211 158.592 237.34 158.168 237.428 157.729C237.513 157.29 237.557 156.847 237.557 156.402C237.557 155.956 237.513 155.511 237.428 155.075C237.34 154.635 237.211 154.212 237.038 153.798C236.869 153.387 236.658 152.994 236.41 152.621C236.162 152.251 235.879 151.906 235.565 151.592L219.72 135.753C219.224 135.257 218.665 134.846 218.043 134.523C217.417 134.2 216.761 133.98 216.069 133.861C215.378 133.738 214.684 133.726 213.989 133.82C213.292 133.914 212.629 134.112 211.994 134.413L207.131 129.55C207.53 128.865 207.894 128.163 208.218 127.441C208.545 126.719 208.827 125.982 209.072 125.226C209.314 124.473 209.519 123.71 209.679 122.932C209.839 122.157 209.955 121.376 210.031 120.588C210.103 119.798 210.134 119.007 210.125 118.216C210.112 117.422 210.056 116.635 209.958 115.85C209.861 115.063 209.72 114.285 209.537 113.513C209.352 112.744 209.129 111.985 208.862 111.238C208.595 110.494 208.29 109.763 207.944 109.051C207.599 108.339 207.216 107.648 206.791 106.977C206.37 106.305 205.915 105.659 205.421 105.038C204.931 104.42 204.407 103.827 203.847 103.262C203.291 102.7 202.704 102.17 202.091 101.671C201.475 101.169 200.834 100.705 200.168 100.278C199.502 99.848 198.814 99.4558 198.107 99.1013C197.397 98.7467 196.671 98.4329 195.93 98.16C195.185 97.8838 194.431 97.6517 193.661 97.4603C192.892 97.2657 192.116 97.1182 191.33 97.0116C190.545 96.9017 189.756 96.839 188.964 96.817C188.172 96.7982 187.381 96.8202 186.592 96.8861C185.803 96.9519 185.018 97.0586 184.242 97.2092C183.463 97.3598 182.696 97.5544 181.939 97.7897C181.185 98.025 180.443 98.3012 179.714 98.6181C178.989 98.9318 178.282 99.2864 177.594 99.6817C176.906 100.074 176.243 100.504 175.602 100.971C174.961 101.436 174.348 101.935 173.764 102.468C173.176 103.001 172.62 103.566 172.099 104.159C171.574 104.752 171.084 105.374 170.625 106.02C170.169 106.669 169.748 107.338 169.365 108.031C168.985 108.725 168.639 109.437 168.335 110.168C168.03 110.899 167.766 111.646 167.54 112.405C167.317 113.164 167.134 113.936 166.996 114.714C166.858 115.496 166.76 116.28 166.707 117.071C166.654 117.858 166.641 118.652 166.676 119.443C166.707 120.234 166.786 121.021 166.902 121.803C167.021 122.587 167.185 123.362 167.386 124.128C167.59 124.893 167.835 125.643 168.121 126.384C168.407 127.121 168.734 127.843 169.098 128.545C169.462 129.248 169.865 129.929 170.304 130.588C170.744 131.247 171.219 131.881 171.725 132.49C172.234 133.095 172.774 133.676 173.346 134.222C173.918 134.771 174.518 135.285 175.146 135.768C175.775 136.252 176.428 136.697 177.104 137.111C177.782 137.522 178.48 137.896 179.196 138.228C179.916 138.564 180.648 138.859 181.399 139.113C182.149 139.371 182.91 139.584 183.686 139.753C184.459 139.926 185.238 140.055 186.027 140.139C186.815 140.227 187.604 140.271 188.396 140.271V140.268ZM216.484 138.988L232.329 154.827C232.536 155.034 232.696 155.276 232.809 155.548C232.923 155.821 232.976 156.107 232.976 156.402C232.976 156.697 232.919 156.979 232.806 157.252C232.693 157.525 232.533 157.767 232.326 157.974C232.115 158.184 231.876 158.344 231.603 158.457C231.33 158.57 231.047 158.627 230.752 158.627C230.456 158.627 230.17 158.57 229.9 158.457C229.627 158.344 229.385 158.184 229.174 157.977L213.333 142.138C213.122 141.931 212.959 141.689 212.846 141.416C212.733 141.143 212.673 140.858 212.673 140.56C212.673 140.265 212.73 139.979 212.843 139.706C212.956 139.43 213.116 139.189 213.327 138.981C213.534 138.771 213.776 138.608 214.052 138.495C214.326 138.382 214.612 138.326 214.907 138.329C215.202 138.329 215.488 138.385 215.761 138.501C216.035 138.614 216.277 138.777 216.484 138.988ZM188.396 101.376C188.958 101.376 189.517 101.404 190.076 101.461C190.636 101.514 191.192 101.596 191.745 101.706C192.295 101.815 192.838 101.953 193.379 102.117C193.916 102.28 194.444 102.468 194.962 102.685C195.484 102.898 195.99 103.139 196.486 103.403C196.982 103.667 197.463 103.955 197.931 104.269C198.396 104.58 198.849 104.915 199.282 105.273C199.719 105.628 200.134 106.004 200.53 106.403C200.929 106.801 201.306 107.215 201.661 107.652C202.019 108.085 202.352 108.536 202.666 109.004C202.977 109.471 203.266 109.951 203.53 110.447C203.797 110.943 204.036 111.451 204.253 111.969C204.466 112.49 204.655 113.017 204.818 113.554C204.982 114.093 205.12 114.636 205.227 115.188C205.337 115.74 205.421 116.293 205.475 116.854C205.531 117.413 205.557 117.975 205.557 118.536C205.557 119.098 205.531 119.656 205.475 120.218C205.421 120.777 205.337 121.332 205.227 121.884C205.12 122.433 204.982 122.979 204.818 123.516C204.655 124.052 204.466 124.583 204.253 125.1C204.036 125.621 203.797 126.129 203.53 126.622C203.266 127.118 202.977 127.601 202.666 128.069C202.352 128.536 202.019 128.985 201.661 129.421C201.306 129.854 200.929 130.271 200.53 130.667C200.134 131.065 199.719 131.442 199.282 131.799C198.849 132.154 198.396 132.49 197.931 132.8C197.463 133.114 196.982 133.403 196.486 133.666C195.99 133.933 195.484 134.171 194.962 134.388C194.444 134.601 193.916 134.793 193.379 134.956C192.838 135.119 192.295 135.254 191.745 135.364C191.192 135.473 190.636 135.555 190.076 135.612C189.517 135.665 188.958 135.693 188.396 135.693C187.833 135.693 187.274 135.665 186.715 135.612C186.155 135.555 185.599 135.473 185.046 135.364C184.496 135.254 183.953 135.119 183.412 134.956C182.875 134.793 182.347 134.601 181.829 134.388C181.307 134.171 180.802 133.933 180.305 133.666C179.809 133.403 179.328 133.114 178.86 132.8C178.392 132.49 177.942 132.154 177.509 131.799C177.072 131.442 176.657 131.065 176.258 130.667C175.862 130.271 175.485 129.854 175.127 129.421C174.772 128.985 174.439 128.536 174.125 128.069C173.814 127.601 173.525 127.118 173.261 126.622C172.994 126.126 172.755 125.621 172.538 125.1C172.325 124.583 172.136 124.052 171.973 123.516C171.809 122.979 171.671 122.433 171.564 121.881C171.454 121.332 171.37 120.777 171.316 120.218C171.26 119.656 171.234 119.098 171.234 118.536C171.234 117.975 171.263 117.413 171.316 116.854C171.373 116.296 171.458 115.74 171.568 115.188C171.677 114.639 171.813 114.093 171.976 113.557C172.139 113.02 172.328 112.49 172.545 111.972C172.761 111.454 173 110.946 173.264 110.45C173.531 109.955 173.82 109.475 174.131 109.007C174.442 108.539 174.779 108.091 175.134 107.655C175.492 107.222 175.869 106.804 176.265 106.409C176.664 106.01 177.078 105.634 177.512 105.276C177.949 104.922 178.398 104.586 178.866 104.275C179.331 103.962 179.815 103.673 180.308 103.409C180.805 103.143 181.311 102.904 181.832 102.688C182.351 102.474 182.878 102.283 183.416 102.12C183.953 101.957 184.496 101.819 185.049 101.709C185.599 101.599 186.155 101.517 186.715 101.461C187.274 101.404 187.833 101.379 188.396 101.376Z" fill="url(#paint6_linear_1_159668)"/>
<path d="M238.955 129.097H282.935C283.24 129.097 283.532 129.037 283.811 128.921C284.091 128.805 284.339 128.639 284.553 128.425C284.77 128.212 284.933 127.964 285.049 127.682C285.166 127.402 285.225 127.11 285.225 126.806V78.6832C285.225 78.6801 285.225 78.6769 285.225 78.6738C285.225 78.6581 285.222 78.6456 285.222 78.633C285.219 78.5451 285.213 78.4604 285.203 78.3757C285.2 78.3537 285.194 78.3286 285.191 78.3035C285.175 78.2157 285.156 78.1278 285.131 78.04C285.128 78.0337 285.128 78.0274 285.125 78.0212C285.096 77.927 285.062 77.8329 285.021 77.745C285.012 77.7262 285.002 77.7074 284.996 77.6886C284.958 77.6101 284.914 77.5348 284.867 77.4595C284.861 77.447 284.855 77.4344 284.845 77.425C284.792 77.3434 284.732 77.265 284.666 77.1897C284.66 77.1834 284.657 77.174 284.65 77.1677L274.207 65.3637C274.185 65.3386 274.163 65.3166 274.141 65.2915C274.125 65.279 274.112 65.2633 274.1 65.2507C274.05 65.2036 274.002 65.1566 273.949 65.1158C273.946 65.1095 273.94 65.1064 273.933 65.1001C273.886 65.0625 273.839 65.0279 273.792 64.9966C273.773 64.9809 273.751 64.9683 273.732 64.9558C273.694 64.9338 273.66 64.9118 273.622 64.8899C273.6 64.8773 273.575 64.8648 273.55 64.8522C273.512 64.8303 273.475 64.8146 273.437 64.7957C273.415 64.7863 273.39 64.7738 273.368 64.7644C273.311 64.7424 273.251 64.7204 273.195 64.7016C273.167 64.6922 273.142 64.6859 273.113 64.6797C273.076 64.6671 273.035 64.6577 272.997 64.6483C272.969 64.642 272.944 64.6357 272.915 64.6294C272.865 64.62 272.815 64.6138 272.764 64.6075C272.749 64.6075 272.733 64.6043 272.717 64.6012C272.648 64.5949 272.576 64.5918 272.507 64.5918C272.504 64.5918 272.497 64.5918 272.491 64.5918H238.955C238.65 64.5918 238.358 64.6483 238.078 64.7644C237.798 64.8805 237.55 65.0468 237.336 65.2601C237.12 65.4766 236.956 65.7245 236.84 66.0038C236.724 66.283 236.664 66.5748 236.664 66.8792V126.806C236.664 127.11 236.724 127.402 236.84 127.682C236.956 127.964 237.12 128.212 237.336 128.425C237.55 128.639 237.798 128.805 238.078 128.921C238.358 129.037 238.65 129.097 238.955 129.097ZM277.858 76.3958H274.782V72.9193L277.858 76.3958ZM241.242 69.1666H270.204V78.6832C270.204 78.9876 270.26 79.2794 270.377 79.5586C270.493 79.841 270.659 80.0889 270.873 80.3023C271.09 80.5156 271.335 80.6819 271.618 80.798C271.897 80.9141 272.19 80.9737 272.491 80.9737H280.648V124.519H241.242V69.1666Z" fill="url(#paint7_linear_1_159668)"/>
<path d="M275.009 119.289L272.452 118.012C272.002 117.783 271.525 117.657 271.019 117.635C270.513 117.613 270.026 117.695 269.558 117.88C269.307 117.598 269.018 117.362 268.691 117.174C268.364 116.986 268.015 116.851 267.648 116.773C267.277 116.694 266.906 116.675 266.532 116.713C266.155 116.754 265.797 116.848 265.452 117.002C265.137 116.515 264.729 116.126 264.226 115.838C263.723 115.549 263.183 115.392 262.602 115.367C262.391 115.084 262.149 114.827 261.879 114.601C261.606 114.375 261.314 114.184 260.996 114.027C260.679 113.87 260.346 113.751 260 113.673C259.658 113.594 259.306 113.56 258.954 113.563C258.599 113.569 258.25 113.613 257.908 113.701C257.565 113.789 257.235 113.917 256.924 114.08C256.61 114.247 256.321 114.448 256.057 114.683C255.79 114.915 255.558 115.179 255.353 115.467L252.457 119.618C252.284 119.869 252.164 120.142 252.102 120.437C252.036 120.735 252.029 121.03 252.083 121.332C252.136 121.63 252.243 121.906 252.406 122.163C252.57 122.417 252.777 122.631 253.025 122.806C253.277 122.979 253.547 123.098 253.845 123.164C254.141 123.227 254.439 123.233 254.738 123.18C255.036 123.126 255.313 123.02 255.57 122.857C255.825 122.693 256.038 122.486 256.211 122.238L257.694 120.111C257.688 120.444 257.735 120.77 257.836 121.09C257.936 121.407 258.087 121.702 258.285 121.969C258.483 122.238 258.722 122.467 258.995 122.656C259.268 122.847 259.567 122.985 259.89 123.076C260.211 123.167 260.538 123.202 260.871 123.183C261.204 123.164 261.527 123.092 261.835 122.966C262.146 122.841 262.426 122.668 262.677 122.452C262.929 122.232 263.139 121.978 263.306 121.689C263.83 121.972 264.393 122.116 264.99 122.119C265.583 122.122 266.146 121.984 266.674 121.702C266.944 121.981 267.252 122.21 267.594 122.389C267.94 122.568 268.304 122.687 268.688 122.747C269.071 122.806 269.454 122.806 269.838 122.74C270.221 122.675 270.582 122.549 270.925 122.364L272.961 123.384C273.234 123.519 273.52 123.597 273.822 123.619C274.126 123.641 274.422 123.603 274.708 123.506C274.997 123.412 275.254 123.264 275.484 123.064C275.713 122.866 275.895 122.631 276.033 122.358C276.169 122.088 276.247 121.802 276.269 121.498C276.288 121.197 276.253 120.902 276.156 120.613C276.059 120.324 275.914 120.067 275.713 119.838C275.515 119.609 275.279 119.424 275.009 119.289Z" fill="url(#paint8_linear_1_159668)"/>
<path d="M249.392 93.0533H270.147C270.449 93.0533 270.741 92.9968 271.021 92.8807C271.304 92.7646 271.549 92.5983 271.765 92.385C271.979 92.1685 272.146 91.9206 272.259 91.6413C272.375 91.3621 272.435 91.0703 272.435 90.7659C272.435 90.4615 272.375 90.1697 272.259 89.8905C272.146 89.6112 271.979 89.3633 271.765 89.1468C271.549 88.9335 271.304 88.7672 271.021 88.6511C270.741 88.535 270.449 88.4785 270.147 88.4785H249.392C249.087 88.4785 248.795 88.535 248.515 88.6511C248.236 88.7672 247.988 88.9335 247.774 89.1468C247.557 89.3633 247.394 89.6112 247.278 89.8905C247.161 90.1697 247.102 90.4615 247.102 90.7659C247.102 91.0703 247.161 91.3621 247.278 91.6413C247.394 91.9206 247.557 92.1685 247.774 92.385C247.988 92.5983 248.236 92.7646 248.515 92.8807C248.795 92.9968 249.087 93.0533 249.392 93.0533Z" fill="url(#paint9_linear_1_159668)"/>
<path d="M272.435 102.217C272.435 101.913 272.375 101.621 272.259 101.342C272.146 101.059 271.979 100.815 271.765 100.598C271.549 100.385 271.304 100.218 271.021 100.102C270.741 99.9862 270.449 99.9297 270.147 99.9297H249.392C249.087 99.9297 248.795 99.9862 248.515 100.102C248.236 100.218 247.988 100.385 247.774 100.598C247.557 100.815 247.394 101.059 247.278 101.342C247.161 101.621 247.102 101.913 247.102 102.217C247.102 102.521 247.161 102.813 247.278 103.092C247.394 103.372 247.557 103.62 247.774 103.833C247.988 104.049 248.236 104.216 248.515 104.332C248.795 104.448 249.087 104.504 249.392 104.504H270.147C270.449 104.504 270.741 104.448 271.021 104.332C271.304 104.216 271.549 104.049 271.765 103.833C271.979 103.62 272.146 103.372 272.259 103.092C272.375 102.813 272.435 102.521 272.435 102.217Z" fill="url(#paint10_linear_1_159668)"/>
</g>
<defs>
<linearGradient id="paint0_linear_1_159668" x1="81.9029" y1="129.545" x2="81.9029" y2="245.008" gradientUnits="userSpaceOnUse">
<stop stop-color="#44B301"/>
<stop offset="1" stop-color="#6C7011"/>
</linearGradient>
<linearGradient id="paint1_linear_1_159668" x1="100.18" y1="105.617" x2="100.18" y2="135.987" gradientUnits="userSpaceOnUse">
<stop stop-color="#44B301"/>
<stop offset="1" stop-color="#6C7011"/>
</linearGradient>
<linearGradient id="paint2_linear_1_159668" x1="245.822" y1="122.229" x2="245.822" y2="244.232" gradientUnits="userSpaceOnUse">
<stop stop-color="#44B301"/>
<stop offset="1" stop-color="#6C7011"/>
</linearGradient>
<linearGradient id="paint3_linear_1_159668" x1="346.014" y1="30.3047" x2="346.014" y2="110.645" gradientUnits="userSpaceOnUse">
<stop stop-color="#44B301"/>
<stop offset="1" stop-color="#6C7011"/>
</linearGradient>
<linearGradient id="paint4_linear_1_159668" x1="346.014" y1="37.3203" x2="346.014" y2="66.275" gradientUnits="userSpaceOnUse">
<stop stop-color="#44B301"/>
<stop offset="1" stop-color="#6C7011"/>
</linearGradient>
<linearGradient id="paint5_linear_1_159668" x1="188.392" y1="109.496" x2="188.392" y2="127.572" gradientUnits="userSpaceOnUse">
<stop stop-color="#44B301"/>
<stop offset="1" stop-color="#6C7011"/>
</linearGradient>
<linearGradient id="paint6_linear_1_159668" x1="202.107" y1="96.8105" x2="202.107" y2="163.201" gradientUnits="userSpaceOnUse">
<stop stop-color="#44B301"/>
<stop offset="1" stop-color="#6C7011"/>
</linearGradient>
<linearGradient id="paint7_linear_1_159668" x1="260.945" y1="64.5918" x2="260.945" y2="129.097" gradientUnits="userSpaceOnUse">
<stop stop-color="#44B301"/>
<stop offset="1" stop-color="#6C7011"/>
</linearGradient>
<linearGradient id="paint8_linear_1_159668" x1="264.16" y1="113.562" x2="264.16" y2="123.625" gradientUnits="userSpaceOnUse">
<stop stop-color="#44B301"/>
<stop offset="1" stop-color="#6C7011"/>
</linearGradient>
<linearGradient id="paint9_linear_1_159668" x1="259.768" y1="88.4785" x2="259.768" y2="93.0533" gradientUnits="userSpaceOnUse">
<stop stop-color="#44B301"/>
<stop offset="1" stop-color="#6C7011"/>
</linearGradient>
<linearGradient id="paint10_linear_1_159668" x1="259.768" y1="99.9297" x2="259.768" y2="104.504" gradientUnits="userSpaceOnUse">
<stop stop-color="#44B301"/>
<stop offset="1" stop-color="#6C7011"/>
</linearGradient>
<clipPath id="clip0_1_159668">
<rect width="409" height="272.302" fill="white"/>
</clipPath>
</defs>
</svg>
