<svg width="181" height="174" viewBox="0 0 181 174" fill="none" xmlns="http://www.w3.org/2000/svg">
<path d="M108.891 20.0708L117.402 50.5402L150.28 48.6056L136.287 76.4743L163.494 95.0557L133.544 107.284L142.35 137.687L110.457 128.552L96.7408 156.551L77.8282 130.328L48.0082 142.822L50.9252 111.781L18.9545 102.923L42.3361 81.588L23.1741 55.524L56.0799 53.8779L58.6926 22.8031L85.7256 41.6162L108.891 20.0708Z" fill="#F6CB48"/>
<path d="M63.6794 81.2C62.4651 80.8579 61.4717 80.2792 60.699 79.4641C59.9493 78.6361 59.4589 77.6402 59.2278 76.4764C59.0196 75.2999 59.1041 74.0419 59.4815 72.7027L63.1243 73.7289C62.8275 74.7825 62.8117 75.6936 63.077 76.4622C63.3602 77.2359 63.8679 77.7258 64.6 77.9321L66.6625 78.5132C67.3946 78.7194 68.077 78.5551 68.7096 78.0202C69.365 77.4724 69.8462 76.6539 70.1531 75.5646L73.5489 63.5111L77.2453 64.5524L73.8042 76.7667C73.4269 78.1059 72.8449 79.2141 72.0581 80.0911C71.2713 80.9681 70.3421 81.564 69.2704 81.8788C68.2038 82.1758 67.0811 82.1583 65.9026 81.8263L63.6794 81.2ZM82.174 86.4104C80.7633 86.0129 79.5963 85.3661 78.673 84.47C77.7727 83.561 77.1698 82.4853 76.8645 81.2428C76.5821 79.9875 76.6422 78.6456 77.0446 77.217L78.4029 72.3956C78.8054 70.967 79.4522 69.8 80.3433 68.8946C81.2573 67.9764 82.3331 67.3736 83.5705 67.0861C84.8308 66.7859 86.1664 66.8345 87.5771 67.2319L90.4163 68.0318C91.8271 68.4292 92.9826 69.0824 93.883 69.9914C94.8062 70.8876 95.4091 71.9633 95.6915 73.2186C95.9968 74.4611 95.9482 75.7966 95.5457 77.2252L94.1874 82.0466C93.7849 83.4751 93.1267 84.6485 92.2127 85.5668C91.3215 86.4722 90.2458 87.075 88.9855 87.3753C87.748 87.6627 86.424 87.6077 85.0133 87.2103L82.174 86.4104ZM85.9339 83.9424C86.9696 84.2342 87.9056 84.0932 88.7419 83.5192C89.596 82.9503 90.1942 82.0588 90.5363 80.8445L91.804 76.3445C92.1461 75.1302 92.1014 74.0575 91.6698 73.1264C91.2561 72.2004 90.5314 71.5914 89.4957 71.2996L86.6564 70.4997C85.6207 70.2079 84.6758 70.3465 83.8216 70.9154C82.9854 71.4893 82.3962 72.3834 82.0541 73.5977L80.7863 78.0977C80.4442 79.3119 80.48 80.3821 80.8937 81.3082C81.3253 82.2393 82.0589 82.8507 83.0946 83.1425L85.9339 83.9424ZM101.087 71.2693L104.784 72.3107L99.5012 91.0606L95.8048 90.0192L101.087 71.2693ZM108.915 73.4745L112.209 74.4027L117.617 89.6882L121.209 76.9382L124.825 77.957L119.543 96.7069L116.248 95.7787L110.84 80.4932L107.248 93.2432L103.632 92.2244L108.915 73.4745ZM71.8582 110.516C70.5368 110.144 69.4541 109.54 68.61 108.705C67.771 107.852 67.2181 106.838 66.9513 105.664C66.6845 104.491 66.7397 103.234 67.117 101.895L70.5581 89.6806L74.2545 90.722L70.8436 102.829C70.5418 103.9 70.5657 104.842 70.9152 105.654C71.2827 106.47 71.9039 107.002 72.7789 107.248L75.6181 108.048C76.511 108.3 77.3273 108.173 78.067 107.668C78.8067 107.164 79.3275 106.376 79.6293 105.304L83.0402 93.1971L86.7366 94.2385L83.2955 106.453C82.9182 107.792 82.3094 108.893 81.4691 109.755C80.6288 110.616 79.6192 111.19 78.4403 111.474C77.2665 111.741 76.0189 111.688 74.6975 111.316L71.8582 110.516ZM90.7615 115.842C88.7972 115.288 87.415 114.311 86.6147 112.91C85.8195 111.491 85.6986 109.799 86.252 107.835L89.8948 108.861C89.6332 109.79 89.6591 110.587 89.9724 111.254C90.3087 111.908 90.8964 112.353 91.7357 112.589L94.7089 113.427C95.4946 113.648 96.1738 113.666 96.7465 113.48C97.3421 113.282 97.7179 112.906 97.8738 112.352L98.1304 111.442C98.3769 110.567 97.8875 109.841 96.6622 109.264L91.9676 107.046C90.4359 106.325 89.3561 105.471 88.7281 104.485C88.123 103.486 87.9864 102.397 88.3185 101.218L88.7411 99.7182C89.0077 98.7718 89.4916 98.0118 90.1928 97.4384C90.917 96.8522 91.7986 96.4934 92.8379 96.3622C93.895 96.2359 95.0396 96.3464 96.2717 96.6935L99.2985 97.5462C100.459 97.8732 101.418 98.4036 102.175 99.1373C102.932 99.8709 103.428 100.743 103.664 101.754C103.923 102.752 103.891 103.822 103.569 104.965L99.9261 103.939C100.137 103.189 100.101 102.533 99.8156 101.971C99.5357 101.391 99.0564 101.005 98.3779 100.814L95.3511 99.9614C94.6011 99.7501 93.9487 99.7397 93.3939 99.9304C92.8569 100.126 92.5129 100.492 92.362 101.027L92.1583 101.751C91.9067 102.643 92.3668 103.371 93.5386 103.932L98.1989 106.17C99.7434 106.914 100.841 107.772 101.492 108.746C102.148 109.702 102.315 110.751 101.993 111.894L101.495 113.662C101.228 114.608 100.724 115.372 99.9819 115.953C99.2578 116.539 98.3646 116.904 97.3025 117.049C96.2454 117.175 95.0919 117.062 93.8419 116.71L90.7615 115.842Z" fill="black"/>
</svg>
