<svg width="17" height="15" viewBox="0 0 17 15" fill="none" xmlns="http://www.w3.org/2000/svg">
<g id="Arrow - Right">
<path id="Stroke 1" d="M0 7.72559C0 7.34589 0.282154 7.0321 0.648229 6.98243L0.75 6.97559L15.75 6.97559C16.1642 6.97559 16.5 7.31137 16.5 7.72559C16.5 8.10528 16.2178 8.41908 15.8518 8.46874L15.75 8.47559L0.75 8.47559C0.335786 8.47559 0 8.1398 0 7.72559Z" fill="white"/>
<path id="Stroke 3" d="M9.17003 2.23247C8.87651 1.94021 8.87549 1.46534 9.16775 1.17181C9.43344 0.904974 9.85005 0.879871 10.1441 1.09709L10.2284 1.16953L16.2784 7.19353C16.546 7.46002 16.5704 7.87813 16.3514 8.1722L16.2784 8.25643L10.2284 14.2814C9.93495 14.5737 9.46008 14.5727 9.16779 14.2792C8.90208 14.0124 8.87873 13.5957 9.0972 13.3025L9.16999 13.2186L14.686 7.7247L9.17003 2.23247Z" fill="white"/>
</g>
</svg>
